<svg width="340" height="362" viewBox="0 0 340 362" fill="none" xmlns="http://www.w3.org/2000/svg">
<path fill-rule="evenodd" clip-rule="evenodd" d="M98.9768 315.889C98.5244 316.197 97.9156 316.136 97.5342 315.743C95.2738 313.965 92.7552 312.567 90.4392 310.865C89.2002 309.942 87.888 309.121 86.5157 308.411C85.5127 307.901 84.7352 307.063 83.7696 306.473L83.5013 306.319C82.3243 305.683 81.3461 304.727 80.2053 304.003C79.2429 303.393 78.5239 302.45 77.5569 301.793C76.162 300.82 74.8169 299.778 73.5268 298.669C72.6139 298.06 71.8201 297.288 71.1846 296.393C71.0389 296.135 70.794 296.092 70.6106 295.938C69.8009 295.3 69.0308 294.614 68.3047 293.882C66.8117 292.292 65.1666 290.845 63.7002 289.234C62.6365 288.064 61.5083 286.964 60.412 285.829C59.358 284.736 58.3255 283.622 57.3147 282.487C54.9385 279.84 52.7193 277.056 50.6687 274.149C49.0916 271.854 47.6455 269.472 46.3372 267.014C45.196 265.064 44.1859 263.041 43.3138 260.958C42.6721 259.272 41.7816 257.67 41.303 255.957C40.8514 254.341 40.3087 252.74 39.8203 251.148C38.6883 247.459 37.707 243.737 36.8762 239.981C36.3846 237.77 35.9373 235.534 35.4124 233.339C34.7965 230.763 34.4779 228.137 33.8704 225.561C33.5159 224.052 33.3485 222.443 33.0861 220.889C32.8318 219.385 32.7896 217.854 32.4411 216.366C32.1454 214.87 31.9259 213.36 31.7833 211.842C31.604 210.436 31.0856 208.974 31.4749 207.501C30.6902 206.526 31.1294 205.325 30.9537 204.244C30.7779 203.163 30.6735 202.059 30.4366 201.012C30.1922 199.932 29.9732 198.825 29.7621 197.75C29.3329 195.568 28.6978 193.44 28.2666 191.272C28.0025 189.949 27.3601 188.801 26.9901 187.537C26.2683 185.12 25.3077 182.781 24.1225 180.554C23.6291 179.669 23.273 178.714 23.0664 177.722C22.9285 176.966 22.2012 176.68 21.9553 175.997C21.5577 174.891 20.9742 173.854 20.4906 172.78C20.3957 172.412 20.1095 172.123 19.7418 172.025L19.9813 171.047C19.8057 170.662 19.6717 171.137 19.4528 171.024C19.2128 170.601 18.8452 170.207 18.8756 169.612C18.9054 169.053 18.2658 168.922 18.1038 168.412C17.7473 167.303 16.4645 166.603 16.6525 165.228C15.7579 164.5 15.4091 163.396 14.7779 162.485C14.4485 162.061 14.2806 161.536 14.3017 161.002L14.3099 160.879C14.3793 160.354 13.3521 160.348 13.7124 159.665C12.3041 158.31 12.1341 156.356 11.5079 154.678C10.5039 151.986 9.28903 149.355 8.73573 146.473C8.45853 145.032 7.75243 143.615 7.44252 142.151C6.74501 138.862 5.82198 135.616 5.5194 132.243C5.39508 130.849 4.96011 129.483 4.84884 128.088L4.72064 126.475C4.53192 124.055 4.36895 121.632 4.36112 119.202C4.27278 118.643 4.34278 118.071 4.56318 117.55C4.89682 116.967 4.25803 116.489 4.27806 115.866C4.29822 115.126 4.67489 114.469 4.55966 113.668C4.49618 113.226 4.69541 112.553 4.62309 112.04C4.38861 110.374 5.13832 108.776 4.86467 107.116C4.86616 106.487 5.00788 105.867 5.27951 105.3C5.84526 103.367 5.4968 101.279 6.32519 99.4247C6.71892 98.5084 6.89401 97.5141 6.83793 96.5203L6.81043 96.1364C6.79194 95.8521 6.79017 95.5775 6.94921 95.4071C7.61489 94.6955 7.54173 93.744 7.79048 92.9156C8.05675 92.0283 8.01235 91.0588 8.39841 90.169C8.88169 89.3107 9.20864 88.3733 9.36404 87.4006C9.42826 85.7267 10.1668 84.3076 10.6959 82.811C10.9598 82.0632 10.9305 81.1322 11.8447 80.6636C12.3097 80.4252 11.3651 79.737 12.0316 79.3863L12.1093 79.35C12.5915 79.1501 12.6221 78.7364 12.5552 78.2281C12.4939 77.7633 13.3176 77.5479 13.1491 77.0595C12.9806 76.5711 12.9612 75.8876 13.2342 75.8349C13.9169 75.6994 13.3366 74.9027 13.9044 74.8343C13.9622 74.8115 14.0061 74.7631 14.0233 74.7034C14.4227 72.9955 15.7084 71.7108 16.1949 70.0146C16.5292 69.0072 17.051 68.072 17.7328 67.2584C18.3121 66.4633 18.8246 65.6215 19.265 64.7418C20.0709 63.2705 21.2847 62.1077 22.0674 60.641C22.2798 60.2442 23.3403 60.5151 22.8967 59.5932C23.5523 59.4478 23.441 58.7724 23.7434 58.3959C24.0594 58.1221 24.4158 57.8987 24.8 57.7336C25.1439 56.8457 25.6923 56.0514 26.4005 55.4151C27.6802 53.9572 29.0507 52.5817 30.504 51.2968L31.7035 50.2421C33.3068 48.8361 34.951 47.4702 36.9424 46.6093C37.4545 46.388 37.3018 45.831 37.73 45.5915C40.2144 44.1846 42.5466 42.5291 45.2953 41.5687C46.4455 41.1658 47.4917 40.3294 48.6687 39.9079C51.0309 39.0609 53.2601 37.9026 55.7776 37.3905C57.268 37.0881 58.7658 36.5369 60.2833 36.1892C63.4127 35.3788 66.6282 34.9481 69.8606 34.9065L71.8487 34.9283C73.616 34.948 75.3836 34.9834 77.1509 35.15C77.9873 35.2291 78.7546 35.5914 79.5293 35.589C80.2839 35.5857 81.031 35.7388 81.7236 36.0385C82.2719 36.2668 82.8117 35.8363 83.3909 36.174C83.8244 36.5252 84.4005 36.6403 84.9324 36.4873L85.0381 36.4532C85.3485 36.3205 85.8807 36.7009 86.3103 36.8547C86.9432 37.0232 87.5569 37.2572 88.1414 37.5527C88.5882 37.83 89.2785 37.1987 89.5169 37.9886C90.173 37.5961 90.7029 38.0649 91.2678 38.251L91.345 38.2745C91.9111 38.4326 92.456 38.6681 93.0103 38.8694L94.858 39.5405C95.3789 39.8172 95.9406 40.0093 96.5219 40.1095C97.5935 40.1153 98.4744 40.7266 99.5147 40.8713C100.668 41.1202 101.787 41.5109 102.844 42.0346C103.794 42.4273 104.847 42.1552 105.799 42.6476C106.699 43.1927 107.702 43.5448 108.745 43.6816C109.81 43.7299 110.731 44.3631 111.68 44.3707L111.858 44.3645C113.067 44.2752 113.926 45.0962 114.988 45.1562C117.306 45.2868 119.502 46.149 121.773 46.3258C124.638 46.5487 127.457 47.1262 130.348 47.2108C132.227 47.2659 134.116 47.261 135.997 47.3168C137.878 47.2993 139.754 47.1221 141.604 46.7871C143.925 46.4312 146.214 45.8884 148.447 45.1641C150.705 44.4607 152.829 43.423 155.065 42.6874C156.085 42.3515 157.02 41.836 158.058 41.5289C159.175 41.1983 160.165 40.4314 161.283 40.0965C164.081 39.2582 166.605 37.6708 169.509 37.1441C172.801 35.4946 176.474 35.0422 179.92 33.8695C181.522 33.3227 183.264 33.1965 184.953 32.8959L185.314 32.8286C188.303 32.249 191.329 31.9736 194.354 31.6695C197.13 31.4131 199.92 31.3398 202.706 31.4499C204.711 31.5125 206.714 31.6723 208.719 31.6972C209.532 31.7079 210.249 32.3704 211.094 31.9799C212.799 32.6759 214.722 32.3183 216.415 33.0765C217.627 32.8725 218.673 33.4367 219.71 33.8853C220.501 34.2293 221.336 33.8178 222.121 34.278C222.828 34.7643 223.651 35.0557 224.506 35.1225C225.945 35.0783 227.111 35.7472 228.364 36.1785C231.275 37.1812 234.169 38.2342 237.046 39.3375C237.988 39.6996 239.091 39.739 239.833 40.5852C240.484 41.3277 241.687 41.059 242.31 41.9182C242.538 42.231 242.939 41.7277 243.307 41.9881C244.026 42.4962 245.049 42.3437 245.677 43.1784C246.142 43.7963 247.193 43.545 247.701 44.2845L247.767 44.3917C248.056 44.9184 249.114 43.8891 249.254 45.0007C250.341 45.2192 251.177 45.9294 252.105 46.4595C252.873 46.8973 253.852 46.8226 254.496 47.618C255.045 48.296 256.276 47.9968 256.705 48.9649C258.023 49.1368 258.875 50.2448 260.101 50.6585C261.025 51.026 261.895 51.5158 262.689 52.1146C263.958 52.9773 265.253 53.8027 266.562 54.5949C267.03 54.8871 267.483 55.2049 267.916 55.547C268.16 55.733 268.182 56.0816 268.547 56.2103C270.858 57.0274 272.686 58.6578 274.567 60.1186C275.651 60.8588 276.674 61.6845 277.625 62.5875L277.94 62.8913C278.214 63.1926 278.834 63.4002 279.059 63.8C279.685 64.9131 280.747 65.5498 281.69 66.2875L281.846 66.4114C282.378 66.8202 282.849 67.304 283.242 67.8479C283.316 67.9516 283.326 68.1578 283.415 68.1914C285.054 68.8159 285.892 70.3373 287.065 71.4727C288.2 72.5707 289.13 73.8796 290.289 74.9448C292.627 77.093 316.883 111.411 319.408 117.131L320.131 118.767C320.852 120.407 321.561 122.056 322.195 123.728L322.735 125.151C323.274 126.576 323.8 128.01 324.244 129.457L324.838 131.389C326.022 135.255 327.168 139.136 328.067 143.087C328.867 146.613 329.453 150.169 330.047 153.729C330.427 156.014 330.706 158.297 330.895 160.602C331.197 164.284 331.417 167.972 331.555 171.664C331.68 175.14 331.058 178.575 331.369 182.034C330.643 184.047 331.257 186.254 330.464 188.256C330.74 189.326 330.258 190.343 330.097 191.344C329.932 192.379 330.032 193.495 329.489 194.498C329.241 194.953 329.609 195.581 329.3 196.136C328.98 196.591 328.879 197.164 329.026 197.7C328.282 197.939 329.06 198.54 328.712 198.967C328.335 199.43 328.123 200.005 328.11 200.601C328.154 201.946 327.247 203.071 327.235 204.279C327.225 205.515 326.498 206.475 326.366 207.567L326.349 207.774C326.277 209.22 325.122 210.175 324.923 211.527C324.905 211.646 324.611 211.721 324.443 211.821C324.455 212.132 324.801 212.104 325.011 212.37C324.589 212.655 324.208 212.997 323.88 213.387C323.6 213.941 323.378 214.524 323.217 215.124L324.034 216.496C323.589 217.169 323.634 217.837 323.088 218.341C322.85 218.561 322.874 219.326 322.785 219.842C322.668 220.519 321.745 220.818 321.89 221.381C321.977 222.019 321.844 222.669 321.514 223.222C319.59 228.588 317.644 233.947 315.675 239.297C315.466 239.871 315.494 240.628 314.727 240.886C315.419 241.802 314.139 241.936 314.041 242.584C313.866 243.179 313.561 243.728 313.15 244.192C312.539 245.08 312.35 246.252 311.937 247.286C311.771 248.032 311.397 248.717 310.86 249.261C310.316 249.703 310.279 250.583 309.829 251.242C309.212 252.03 308.702 252.895 308.313 253.817C308.148 254.493 307.795 255.11 307.296 255.595C306.86 255.974 307.068 256.893 306.282 257.123C305.921 258.331 305.064 259.233 304.388 260.248L304.263 260.44C302.585 263.059 300.752 265.576 298.772 267.976C297.124 269.998 295.511 272.048 293.844 274.054C293.302 274.701 292.732 275.342 292.149 275.948C290.108 278.189 287.944 280.315 285.668 282.317C283.6 284.037 281.607 285.855 279.456 287.489C278.313 288.359 277.328 289.477 276.207 290.412C273.564 292.619 270.867 294.751 268.061 296.744C265.671 298.595 263.107 300.209 260.405 301.564C259.675 301.895 259.042 302.434 258.33 302.812C257.481 303.154 256.656 303.556 255.863 304.015C254.922 304.707 253.824 305.087 252.88 305.72C252.148 306.211 251.129 305.756 250.529 306.727C250.092 307.433 248.833 307.001 248.29 307.822C247.092 307.716 246.393 308.806 245.263 309.054L245.113 309.082C243.933 309.254 242.845 310.059 241.717 310.586C240.619 311.179 239.482 311.699 238.315 312.14C236.141 312.818 234.191 314.017 232.06 314.731C230.028 315.41 228.137 316.537 225.981 316.791C225.472 316.851 225.511 317.299 225.147 317.444C224.769 317.596 224.397 317.419 224.05 317.605C222.62 318.309 221.136 318.897 219.612 319.363C217.474 320.097 215.309 320.771 213.183 321.52C209.876 322.627 206.513 323.56 203.107 324.314C200.897 324.839 198.668 325.287 196.448 325.757L193.351 326.416C191.803 326.744 190.253 327.066 188.7 327.36C186.724 327.733 184.725 327.973 182.745 328.323C181.178 328.597 179.617 328.938 178.06 329.278C175.908 329.749 173.734 330.144 171.585 330.6C168.538 331.229 165.458 331.687 162.36 331.973C160.795 332.163 159.219 332.254 157.642 332.244C156.762 332.214 155.881 332.24 155.005 332.321L154.567 332.366C152.531 332.612 150.557 332.301 148.555 332.237C147.94 332.215 147.365 332.059 146.786 331.978L146.538 331.949C146.04 331.9 145.559 331.816 145.074 331.738L144.709 331.681C142.987 331.425 141.309 330.869 139.554 330.839L139.224 330.839C139.099 330.846 138.975 330.822 138.86 330.772C137.101 329.896 135.088 329.93 133.275 329.212L132.957 329.077C131.269 328.31 129.297 328.426 127.627 327.534C126.399 327.802 125.43 326.917 124.317 326.776C121.442 326.411 118.873 325.132 116.193 324.194L115.843 324.074C113.049 323.135 110.298 322.067 107.522 321.072C105.615 320.258 103.777 319.289 102.028 318.175C101.657 317.859 101.247 317.592 100.808 317.38C100.014 317.164 99.3488 316.622 98.9768 315.889Z" fill="#8862DB"/>
<circle cx="177" cy="37" r="36" fill="white" stroke="#B6A68D" stroke-width="2"/>
<path d="M142 37H147" stroke="#B6A68D" stroke-width="2" stroke-linecap="round" stroke-linejoin="round"/>
<path d="M207 37H212" stroke="#B6A68D" stroke-width="2" stroke-linecap="round" stroke-linejoin="round"/>
<path d="M176.543 72.4995L176.457 67.5003" stroke="#B6A68D" stroke-width="2" stroke-linecap="round" stroke-linejoin="round"/>
<path d="M176.543 6.49902L176.457 1.49977" stroke="#B6A68D" stroke-width="2" stroke-linecap="round" stroke-linejoin="round"/>
<path d="M167 10.5L177 37L194 24" stroke="#B6A68D" stroke-width="3" stroke-linecap="round" stroke-linejoin="round"/>
<circle cx="177" cy="37" r="3" fill="#514846"/>
<path fill-rule="evenodd" clip-rule="evenodd" d="M171.957 334C105.407 334 51.4571 340.269 51.4571 348.001C51.4571 355.732 105.407 362 171.957 362C238.508 362 292.457 355.732 292.457 348.001C292.457 340.269 238.508 334 171.957 334Z" fill="#4B5D61" fill-opacity="0.1"/>
<path fill-rule="evenodd" clip-rule="evenodd" d="M219.003 349.683H212.67L226.317 201.683H232.654L219.003 349.683Z" fill="#B6A68E"/>
<path fill-rule="evenodd" clip-rule="evenodd" d="M265.694 349.683H272.028L258.38 201.683H252.047L265.694 349.683Z" fill="#B6A68E"/>
<path fill-rule="evenodd" clip-rule="evenodd" d="M184.168 190.433L147.68 181.033C141.415 169.414 134.439 158.193 126.792 147.433C122.73 151.454 120.472 157.63 116.382 161.61L140.16 191.622C141.255 192.835 186.945 197.45 186.945 197.45L184.168 190.433Z" fill="url(#paint0_linear_123_8)"/>
<path d="M132.136 105.011C132.553 98.063 131.236 91.1202 128.306 84.8065C125.64 79.2593 119.047 76.1265 113.032 76.1065C93.9387 76.0809 91.5123 101.306 79.3523 111.042C75.6395 114.016 71.4867 116.438 67.9731 119.644C54.9955 131.484 60.8419 153.404 72.7587 163.786C81.0283 170.986 94.0211 175.084 104.215 169.453C109.535 166.513 113.575 161.613 116.455 156.27C120.54 148.67 123.175 139.904 126.076 131.806C129.163 123.189 131.753 114.214 132.136 105.011Z" fill="#190C1A"/>
<path fill-rule="evenodd" clip-rule="evenodd" d="M121.345 168.901C121.345 168.901 107.017 154.209 103.332 147.828C99.6475 141.447 105.852 145.588 112.172 143.922C114.572 143.286 113.964 129.235 118.492 133.802C125.928 141.295 135.278 154.382 135.278 154.382L121.345 168.901Z" fill="url(#paint1_linear_123_8)"/>
<path d="M124.74 339.714H119.422L119.422 261.95H124.74L124.74 339.714Z" fill="#B6A68E"/>
<path fill-rule="evenodd" clip-rule="evenodd" d="M185.785 319.824C185.785 319.824 186.95 331.962 186.185 335.918C186.033 336.578 185.835 337.226 185.595 337.858C184.805 340.079 186.963 346.855 186.963 346.855L215.899 346.956C217.476 346.956 216.424 346.006 215.14 345.13C213.04 343.697 211.349 342.754 204.665 339.766C204.232 339.57 202.641 338.646 202.067 338.307C200.521 337.358 199.114 336.2 197.884 334.867C195.778 332.686 195.459 321.987 195.459 321.987L185.785 319.824Z" fill="url(#paint2_linear_123_8)"/>
<path fill-rule="evenodd" clip-rule="evenodd" d="M202.075 338.306C194.448 340.266 188.775 339.063 185.595 337.883C184.808 340.099 183.453 348.423 184.338 348.423C191.596 348.423 197.608 348.903 218.397 348.591C219.142 348.591 219.05 346.135 218.565 345.595C217.226 344.105 202.649 338.622 202.075 338.306Z" fill="#F7CB72"/>
<path fill-rule="evenodd" clip-rule="evenodd" d="M208.925 299.703C208.925 299.703 215.253 310.285 216.278 314.188C216.425 314.847 216.527 315.515 216.584 316.188C216.83 318.518 221.736 323.826 221.736 323.826L248.106 312.44C249.546 311.818 248.167 311.368 246.622 311.08C244.102 310.61 242.142 310.419 234.764 310.355C234.284 310.355 232.428 310.128 231.764 310.075C229.942 309.822 228.162 309.327 226.471 308.604C223.603 307.456 218.667 297.852 218.667 297.852L208.925 299.703Z" fill="url(#paint3_linear_123_8)"/>
<path fill-rule="evenodd" clip-rule="evenodd" d="M231.506 310.063C225.421 314.877 219.746 316.03 216.332 316.223C216.579 318.553 218.483 325.956 219.287 325.607C225.889 322.727 232.047 321.485 250.826 312.951C251.498 312.645 250.352 310.455 249.678 310.15C247.81 309.318 232.172 310.122 231.506 310.063Z" fill="#F7CB72"/>
<path d="M127.632 209.338V215.574L188.976 227.894L204.2 271.613L195.716 266.073L197.676 333.396L184.774 333.483C184.774 333.483 162.424 277.022 169.749 248.606L101.855 249.6C101.855 249.6 71.0851 238.24 86.9643 203.993L127.632 209.338Z" fill="#28141A" stroke="#232021" stroke-width="0.6024" stroke-linecap="round" stroke-linejoin="round"/>
<path d="M122.251 215.574C122.251 215.574 185.884 215.982 190.406 219.309C194.928 222.635 228.839 305.302 228.839 305.302L214.046 310.582C214.046 310.582 184.621 263.681 183.064 260.334C181.507 256.988 170.108 232.534 165.757 230.038C161.406 227.543 122.251 215.574 122.251 215.574Z" fill="#30181C" stroke="#232021" stroke-width="0.6024" stroke-linecap="round" stroke-linejoin="round"/>
<path fill-rule="evenodd" clip-rule="evenodd" d="M128.488 343.181C128.488 341.266 126.937 339.713 125.022 339.711H118.548C116.633 339.713 115.082 341.266 115.082 343.181L93.9251 343.182C91.493 343.18 89.5195 345.15 89.5155 347.582C89.5169 348.008 89.8625 348.352 90.2883 348.352H150.396C150.821 348.352 151.167 348.008 151.168 347.582C151.164 345.15 149.192 343.182 146.761 343.182H128.488V343.181Z" fill="#B6A68E"/>
<path fill-rule="evenodd" clip-rule="evenodd" d="M104.719 127.384C104.719 127.384 91.9187 124.864 86.0787 129.736C80.2387 134.608 87.3299 177.997 87.3243 185.176C87.3187 192.355 83.3147 212.686 83.3147 212.686C83.3147 212.686 122.103 219.49 128.263 208.702C128.263 208.702 130.016 167.57 129.756 162.398C129.496 157.226 123.744 136.078 122.156 133.806C120.568 131.535 104.719 127.384 104.719 127.384Z" fill="url(#paint4_linear_123_8)"/>
<path fill-rule="evenodd" clip-rule="evenodd" d="M104.638 107.587C104.638 107.587 104.571 107.97 104.451 108.621C103.872 111.746 101.634 122.109 100.124 124.956C98.2987 128.399 106.371 139.378 114.141 138.04C116.454 137.64 112.181 127.96 112.391 126.92C112.783 124.96 113.317 122.274 113.861 119.528C114.169 117.977 114.48 116.403 114.772 114.927C115.611 110.731 116.28 107.298 116.28 107.298L104.638 107.587Z" fill="url(#paint5_linear_123_8)"/>
<path fill-rule="evenodd" clip-rule="evenodd" d="M125.714 105.341C124.692 107.324 122.981 108.421 121.889 107.788C120.797 107.155 120.739 105.05 121.758 103.068C122.777 101.087 124.49 99.9905 125.582 100.623C126.674 101.256 126.733 103.364 125.714 105.341Z" fill="url(#paint6_linear_123_8)"/>
<path fill-rule="evenodd" clip-rule="evenodd" d="M114.076 85.9769C114.076 85.9769 108.588 85.3441 105.146 89.7849C101.704 94.2257 98.0003 107.954 106.546 115.419C115.092 122.884 123.534 114.433 124.786 105.476C126.038 96.5193 126.524 85.6521 114.076 85.9769Z" fill="url(#paint7_linear_123_8)"/>
<path d="M114.688 84.5089C114.688 84.5089 107.358 97.5672 102.113 98.1672C96.8683 98.7672 96.1795 105.702 96.1795 105.702C96.1795 105.702 98.0531 89.7137 103.248 86.6313C108.444 83.5489 114.688 84.5089 114.688 84.5089Z" fill="#190C1A"/>
<path d="M122.688 84.5089C122.688 84.5089 129.783 90.9697 126.91 95.9297C122.688 92.5641 115.493 92.5641 113.355 85.9449C111.216 79.3257 122.688 84.5089 122.688 84.5089Z" fill="#190C1A"/>
<path fill-rule="evenodd" clip-rule="evenodd" d="M102.325 104.326C102.365 104.821 102.049 105.275 101.571 105.41C100.084 105.722 98.5387 104.082 98.1083 101.77C97.6779 99.4593 98.5411 97.3225 100.028 97.0089C101.148 96.7721 102.304 97.6449 102.988 99.0833" fill="url(#paint8_linear_123_8)"/>
<path fill-rule="evenodd" clip-rule="evenodd" d="M94.5499 244.938C94.5499 244.938 157.813 246.018 164.407 244.938C171.002 243.857 173.86 252.122 171.888 256.454C169.916 260.786 164.504 262.454 156.533 262.854C148.562 263.254 82.2131 265.119 80.3419 263.347C78.8131 261.9 58.7011 193.137 51.3819 167.987C49.9162 162.962 52.7982 157.699 57.8219 156.227C62.8221 154.758 68.0714 157.596 69.5819 162.583L94.5499 244.938Z" fill="#514846"/>
<path fill-rule="evenodd" clip-rule="evenodd" d="M244.843 151.374H191.759C190.354 151.374 189.09 152.224 188.559 153.524L172.209 193.39H142.945C142.552 193.39 142.174 193.546 141.896 193.824C141.618 194.101 141.461 194.479 141.461 194.872C141.463 195.69 142.127 196.352 142.945 196.35H226.238C228.528 196.35 230.605 195.007 231.543 192.918L248.002 156.254C248.482 155.182 248.386 153.941 247.749 152.956C247.111 151.97 246.017 151.375 244.843 151.374Z" fill="white"/>
<path d="M214.58 172.583C214.347 174.281 212.791 175.475 211.091 175.26C209.436 174.807 208.458 173.103 208.901 171.446C209.134 169.749 210.691 168.557 212.39 168.775C214.041 169.229 215.018 170.928 214.58 172.583Z" fill="#D6D6D6"/>
<path d="M291.475 202L135.439 202C134.897 202 134.457 201.408 134.457 200.678V197.322C134.457 196.592 134.897 196 135.439 196L291.475 196C292.017 196 292.457 196.592 292.457 197.322V200.678C292.457 201.408 292.017 202 291.475 202Z" fill="#514846"/>
<path fill-rule="evenodd" clip-rule="evenodd" d="M160.811 349.682H154.475L168.124 201.682H174.458L160.811 349.682Z" fill="#B6A68E"/>
<path fill-rule="evenodd" clip-rule="evenodd" d="M212.622 349.682H218.955L205.308 201.682H198.972L212.622 349.682Z" fill="#B6A68E"/>
<path fill-rule="evenodd" clip-rule="evenodd" d="M146.96 184.791C146.038 185.25 120.56 181.093 113.28 181.093C112.436 178.769 107.3 162.761 106.549 160.562C102.66 163.362 95.8555 164.922 91.8291 167.465C94.7691 174.745 105.589 192.391 107.625 193.305C113.822 196.074 144.156 194.242 148.916 190.826C149.179 192.112 158.476 191.002 160.369 189.882C166.494 193.405 172.356 191.522 174.436 190.826C176.151 190.251 166.428 186.314 160.369 183.762C157.087 182.384 147.392 184.576 146.96 184.791Z" fill="url(#paint9_linear_123_8)"/>
<path fill-rule="evenodd" clip-rule="evenodd" d="M90.7219 169.119C90.7219 169.119 82.2851 150.415 81.0027 143.155C79.7203 135.895 85.9507 126.784 92.4827 127.371C99.0147 127.958 108.776 160.262 108.776 160.262L90.7219 169.119Z" fill="url(#paint10_linear_123_8)"/>
<defs>
<linearGradient id="paint0_linear_123_8" x1="197.512" y1="187.725" x2="117.803" y2="131.541" gradientUnits="userSpaceOnUse">
<stop stop-color="#B3826E"/>
<stop offset="1" stop-color="#2D181B"/>
</linearGradient>
<linearGradient id="paint1_linear_123_8" x1="140.056" y1="159.782" x2="102.005" y2="159.782" gradientUnits="userSpaceOnUse">
<stop stop-color="#F0C26B"/>
<stop offset="1" stop-color="#653623"/>
</linearGradient>
<linearGradient id="paint2_linear_123_8" x1="221.375" y1="341.681" x2="181.667" y2="318.816" gradientUnits="userSpaceOnUse">
<stop stop-color="#B3826E"/>
<stop offset="1" stop-color="#2D181B"/>
</linearGradient>
<linearGradient id="paint3_linear_123_8" x1="254.671" y1="318.776" x2="212.246" y2="286.308" gradientUnits="userSpaceOnUse">
<stop stop-color="#B3826E"/>
<stop offset="1" stop-color="#2D181B"/>
</linearGradient>
<linearGradient id="paint4_linear_123_8" x1="130" y1="186.5" x2="83" y2="192.5" gradientUnits="userSpaceOnUse">
<stop stop-color="#F0C26B"/>
<stop offset="1" stop-color="#653623"/>
</linearGradient>
<linearGradient id="paint5_linear_123_8" x1="118.739" y1="132.154" x2="92.8124" y2="125.261" gradientUnits="userSpaceOnUse">
<stop stop-color="#B3826E"/>
<stop offset="1" stop-color="#2D181B"/>
</linearGradient>
<linearGradient id="paint6_linear_123_8" x1="127.252" y1="106.505" x2="119.149" y2="103.593" gradientUnits="userSpaceOnUse">
<stop stop-color="#B3826E"/>
<stop offset="1" stop-color="#2D181B"/>
</linearGradient>
<linearGradient id="paint7_linear_123_8" x1="129" y1="112" x2="93.2304" y2="98.6926" gradientUnits="userSpaceOnUse">
<stop stop-color="#B3826E"/>
<stop offset="1" stop-color="#2D181B"/>
</linearGradient>
<linearGradient id="paint8_linear_123_8" x1="103.736" y1="103.8" x2="95.9691" y2="101.515" gradientUnits="userSpaceOnUse">
<stop stop-color="#B3826E"/>
<stop offset="1" stop-color="#2D181B"/>
</linearGradient>
<linearGradient id="paint9_linear_123_8" x1="187.036" y1="188.024" x2="130.416" y2="119.31" gradientUnits="userSpaceOnUse">
<stop stop-color="#B3826E"/>
<stop offset="1" stop-color="#2D181B"/>
</linearGradient>
<linearGradient id="paint10_linear_123_8" x1="112.816" y1="158.54" x2="80.6445" y2="158.54" gradientUnits="userSpaceOnUse">
<stop stop-color="#F0C26B"/>
<stop offset="1" stop-color="#653623"/>
</linearGradient>
</defs>
</svg>
