<svg width="72" height="72" viewBox="0 0 72 72" fill="none" xmlns="http://www.w3.org/2000/svg">
<g clip-path="url(#clip0_79_1063)">
<path d="M44.5288 59.4931C44.5288 60.403 45.269 61.1431 46.1789 61.1431C47.0887 61.1431 47.8289 60.403 47.8289 59.4931C47.8289 58.5832 47.0887 57.843 46.1789 57.843C45.269 57.843 44.5288 58.5832 44.5288 59.4931Z" fill="#8862DB"/>
<path d="M36.3953 -9.30884e-07C33.9744 -8.25064e-07 31.995 1.92616 31.9089 4.32644C31.4829 4.19192 31.0295 4.11932 30.5596 4.11932C28.0842 4.11932 26.0702 6.13317 26.0702 8.60872L26.0702 32.5864C24.9246 30.1799 24.2544 27.4423 24.07 24.3999C23.9976 23.2029 23.4633 22.1058 22.5655 21.3108C21.6677 20.5158 20.5143 20.1178 19.3174 20.1904C18.1204 20.263 17.0234 20.7973 16.2282 21.6949C15.433 22.5927 15.0345 23.7463 15.1077 24.9431C15.7777 35.9982 21.2233 44.4495 30.876 49.4446L30.876 52.6095L27.6415 52.6095C26.7736 52.6095 26.0701 53.3131 26.0701 54.181L26.0701 63.2335L24.67 63.2335C23.8021 63.2335 23.0986 63.9371 23.0986 64.805L23.0986 70.4285C23.0986 71.2964 23.8021 72 24.67 72C25.538 72 26.2415 71.2964 26.2415 70.4285L26.2415 66.3765L53.7576 66.3765L53.7576 70.4285C53.7576 71.2964 54.4612 72 55.3291 72C56.1971 72 56.9006 71.2964 56.9006 70.4285L56.9006 64.805C56.9006 63.9371 56.1971 63.2335 55.3291 63.2335L53.9291 63.2335L53.9291 54.181C53.9291 53.3131 53.2255 52.6095 52.3576 52.6095L47.75 52.6095L47.75 49.2407C50.7734 46.7311 52.5559 42.9393 52.5559 38.9386L52.5559 12.7279C52.5559 10.2525 50.5421 8.23848 48.0665 8.23848C47.5967 8.23848 47.1433 8.31108 46.7173 8.4456C46.6313 6.04532 44.6517 4.11916 42.2308 4.11916C41.761 4.11916 41.3076 4.19176 40.8816 4.32628C40.7958 1.92616 38.8162 -1.0367e-06 36.3953 -9.30884e-07ZM50.7865 55.7525L50.7865 63.2335L29.2132 63.2335L29.2132 55.7525L50.7865 55.7525ZM37.7418 4.48924L37.7418 8.60856L37.7418 25.0814C37.7418 25.9494 38.4453 26.6529 39.3132 26.6529C40.1812 26.6529 40.8847 25.9494 40.8847 25.0814L40.8847 8.60856C40.8847 7.86619 41.4888 7.26212 42.2312 7.26212C42.9735 7.26212 43.5774 7.86619 43.5774 8.60856L43.5774 12.7279L43.5774 27.9246C43.5774 28.7925 44.281 29.496 45.1489 29.496C46.0169 29.496 46.7204 28.7925 46.7204 27.9246L46.7204 12.7279C46.7204 11.9855 47.3245 11.3814 48.0668 11.3814C48.8092 11.3814 49.4133 11.9855 49.4133 12.7279L49.4133 38.9386C49.4133 42.2641 47.8971 45.2765 45.2533 47.2033C44.8474 47.4991 44.6074 47.9711 44.6074 48.4734L44.6074 52.6095L34.0191 52.6095L34.0191 48.4735C34.0191 47.8706 33.6741 47.3209 33.1312 47.0586C24.01 42.6528 18.8625 34.9396 18.245 24.7532C18.2232 24.3933 18.3426 24.0482 18.5812 23.779C18.8197 23.5098 19.1486 23.3495 19.5077 23.3278C19.8667 23.306 20.2125 23.4254 20.4819 23.6638C20.7512 23.9022 20.9114 24.2313 20.9332 24.5904C21.2778 30.2775 23.1386 35.0709 26.4639 38.8374C26.8964 39.3272 27.5869 39.4983 28.198 39.267C28.8092 39.0359 29.2135 38.4506 29.2135 37.7972L29.2135 32.388C34.0368 33.1449 37.7385 37.327 37.7385 42.358C37.7385 43.2259 38.442 43.9294 39.3099 43.9294C40.1779 43.9294 40.8814 43.2259 40.8814 42.358C40.8814 35.5915 35.7752 29.9983 29.2135 29.2185L29.2135 8.60887C29.2135 7.86651 29.8176 7.26244 30.5599 7.26244C31.3023 7.26244 31.9062 7.86651 31.9062 8.60887L31.9062 26.5033C31.9062 27.3712 32.6098 28.0748 33.4777 28.0748C34.3456 28.0748 35.0492 27.3712 35.0492 26.5033L35.0492 8.60887L35.0492 4.48924C35.0492 3.74687 35.6533 3.14296 36.3956 3.14296C37.138 3.14296 37.7418 3.74687 37.7418 4.48924Z" fill="#8862DB"/>
</g>
<defs>
<clipPath id="clip0_79_1063">
<rect width="72" height="72" fill="white" transform="translate(0 72) rotate(-90)"/>
</clipPath>
</defs>
</svg>
