<svg width="40" height="40" viewBox="0 0 40 40" fill="none" xmlns="http://www.w3.org/2000/svg">
<path d="M36.167 15.5417C35.4101 15.5417 32.7735 15.5417 28.9356 15.5417C25.8497 15.5417 25.2564 15.0217 25.2564 14.1903C25.2564 13.2407 26.7993 11.5805 27.1558 10.986C27.5123 10.3927 29.7669 8.37612 30.2418 5.40854C30.7166 2.44096 27.1558 0.304792 25.9693 2.3226C25.2649 3.5201 23.4766 7.06995 21.3404 8.61292C17.3779 11.4755 14.1004 17.706 9.97192 17.706V33.2748C13.374 33.2748 21.0815 37.0565 23.8122 37.6034C26.9043 38.2223 30.9448 39.5882 33.0896 36.6757C34.4115 34.88 36.4831 27.9085 38.0383 22.9647C41.9825 19.1757 39.2591 15.5417 36.167 15.5417Z" fill="#A381EF"/>
<path d="M6.10352e-05 20.7344V34.2659C6.10352e-05 35.9383 1.35506 37.2945 3.0274 37.2945H4.74858C5.86311 37.2945 6.76764 36.3912 6.76764 35.2755V17.7059H3.0274C1.35506 17.7059 6.10352e-05 19.0621 6.10352e-05 20.7344Z" fill="#A381EF"/>
</svg>
