<svg width="160" height="184" viewBox="0 0 160 184" fill="none" xmlns="http://www.w3.org/2000/svg">
<path d="M25.7409 30.5645C63.408 -9.65259 97.2386 -10.7203 133.859 30.5645C170.48 71.8493 133.859 140.895 133.859 140.895H25.7409C25.7409 140.895 -11.9262 70.7816 25.7409 30.5645Z" fill="#F3EFFC" fill-opacity="0.4"/>
<path d="M102.35 40.4126H50.6991C50.086 40.4126 49.4789 40.5332 48.9125 40.7674C48.3461 41.0017 47.8315 41.345 47.398 41.7778C46.9644 42.2107 46.6206 42.7245 46.386 43.29C46.1513 43.8556 46.0306 44.4617 46.0306 45.0738V122.939C46.0306 124.175 46.5224 125.36 47.398 126.235C48.2735 127.109 49.4609 127.6 50.6991 127.6H102.35C103.588 127.6 104.776 127.109 105.651 126.235C106.527 125.36 107.019 124.175 107.019 122.939C113.871 96.4769 114.081 70.5064 107.019 45.0738C107.019 43.8376 106.527 42.652 105.651 41.7778C104.776 40.9037 103.588 40.4126 102.35 40.4126ZM52.268 116.812C52.268 117.012 52.1884 117.204 52.0466 117.345C51.9049 117.487 51.7127 117.566 51.5122 117.566H49.5586C49.3581 117.566 49.1659 117.487 49.0241 117.345C48.8824 117.204 48.8028 117.012 48.8028 116.812V114.861C48.8028 114.661 48.8824 114.469 49.0241 114.328C49.1659 114.186 49.3581 114.107 49.5586 114.107H51.5122C51.7127 114.107 51.9049 114.186 52.0466 114.328C52.1884 114.469 52.268 114.661 52.268 114.861V116.812ZM52.268 109.114C52.268 109.314 52.1884 109.506 52.0466 109.647C51.9049 109.789 51.7127 109.868 51.5122 109.868H49.5586C49.3581 109.868 49.1659 109.789 49.0241 109.647C48.8824 109.506 48.8028 109.314 48.8028 109.114V107.163C48.8028 107.064 48.8223 106.966 48.8603 106.874C48.8983 106.783 48.954 106.7 49.0241 106.63C49.0943 106.559 49.1776 106.504 49.2693 106.466C49.361 106.428 49.4593 106.409 49.5586 106.409H51.5122C51.6115 106.409 51.7097 106.428 51.8014 106.466C51.8931 106.504 51.9765 106.559 52.0466 106.63C52.1168 106.7 52.1725 106.783 52.2105 106.874C52.2485 106.966 52.268 107.064 52.268 107.163V109.114ZM52.268 101.416C52.268 101.616 52.1884 101.808 52.0466 101.949C51.9049 102.091 51.7127 102.17 51.5122 102.17H49.5586C49.3581 102.17 49.1659 102.091 49.0241 101.949C48.8824 101.808 48.8028 101.616 48.8028 101.416V99.465C48.8028 99.2649 48.8824 99.073 49.0241 98.9314C49.1659 98.7899 49.3581 98.7104 49.5586 98.7104H51.5122C51.7127 98.7104 51.9049 98.7899 52.0466 98.9314C52.1884 99.073 52.268 99.2649 52.268 99.465V101.416ZM52.268 93.7175C52.268 93.9177 52.1884 94.1096 52.0466 94.2511C51.9049 94.3927 51.7127 94.4722 51.5122 94.4722H49.5586C49.3581 94.4722 49.1659 94.3927 49.0241 94.2511C48.8824 94.1096 48.8028 93.9177 48.8028 93.7175V91.767C48.8028 91.5668 48.8824 91.3749 49.0241 91.2334C49.1659 91.0918 49.3581 91.0123 49.5586 91.0123H51.5122C51.7127 91.0123 51.9049 91.0918 52.0466 91.2334C52.1884 91.3749 52.268 91.5668 52.268 91.767V93.7175ZM52.268 86.0195C52.268 86.2196 52.1884 86.4115 52.0466 86.5531C51.9049 86.6946 51.7127 86.7741 51.5122 86.7741H49.5586C49.3581 86.7741 49.1659 86.6946 49.0241 86.5531C48.8824 86.4115 48.8028 86.2196 48.8028 86.0195V84.0689C48.8028 83.8687 48.8824 83.6768 49.0241 83.5353C49.1659 83.3938 49.3581 83.3143 49.5586 83.3143H51.5122C51.7127 83.3143 51.9049 83.3938 52.0466 83.5353C52.1884 83.6768 52.268 83.8687 52.268 84.0689V86.0195ZM52.268 78.3214C52.268 78.5215 52.1884 78.7135 52.0466 78.855C51.9049 78.9965 51.7127 79.076 51.5122 79.076H49.5586C49.3581 79.076 49.1659 78.9965 49.0241 78.855C48.8824 78.7135 48.8028 78.5215 48.8028 78.3214V76.3708C48.8028 76.1707 48.8824 75.9787 49.0241 75.8372C49.1659 75.6957 49.3581 75.6162 49.5586 75.6162H51.5122C51.7127 75.6162 51.9049 75.6957 52.0466 75.8372C52.1884 75.9787 52.268 76.1707 52.268 76.3708V78.3214ZM52.268 70.6233C52.268 70.8234 52.1884 71.0154 52.0466 71.1569C51.9049 71.2984 51.7127 71.3779 51.5122 71.3779H49.5586C49.3581 71.3779 49.1659 71.2984 49.0241 71.1569C48.8824 71.0154 48.8028 70.8234 48.8028 70.6233V68.6727C48.8028 68.4726 48.8824 68.2806 49.0241 68.1391C49.1659 67.9976 49.3581 67.9181 49.5586 67.9181H51.5122C51.7127 67.9181 51.9049 67.9976 52.0466 68.1391C52.1884 68.2806 52.268 68.4726 52.268 68.6727V70.6233ZM52.268 62.9252C52.268 63.1253 52.1884 63.3173 52.0466 63.4588C51.9049 63.6003 51.7127 63.6798 51.5122 63.6798H49.5586C49.3581 63.6798 49.1659 63.6003 49.0241 63.4588C48.8824 63.3173 48.8028 63.1253 48.8028 62.9252V60.9746C48.8028 60.7745 48.8824 60.5826 49.0241 60.441C49.1659 60.2995 49.3581 60.22 49.5586 60.22H51.5122C51.7127 60.22 51.9049 60.2995 52.0466 60.441C52.1884 60.5826 52.268 60.7745 52.268 60.9746V62.9252ZM52.268 55.2271C52.268 55.4273 52.1884 55.6192 52.0466 55.7607C51.9049 55.9022 51.7127 55.9818 51.5122 55.9818H49.5586C49.3581 55.9818 49.1659 55.9022 49.0241 55.7607C48.8824 55.6192 48.8028 55.4273 48.8028 55.2271V53.2766C48.8028 53.0764 48.8824 52.8845 49.0241 52.743C49.1659 52.6014 49.3581 52.5219 49.5586 52.5219H51.5122C51.7127 52.5219 51.9049 52.6014 52.0466 52.743C52.1884 52.8845 52.268 53.0764 52.268 53.2766V55.2271Z" fill="#E1D8F6"/>
<path d="M51.8271 44.5644H49.2436C49.0002 44.5644 48.8028 44.7614 48.8028 45.0045V47.5836C48.8028 47.8267 49.0002 48.0237 49.2436 48.0237H51.8271C52.0706 48.0237 52.268 47.8267 52.268 47.5836V45.0045C52.268 44.7614 52.0706 44.5644 51.8271 44.5644Z" fill="#6C63FF"/>
<path d="M96.9696 54.4543H59.2476C59.194 54.4543 59.1426 54.433 59.1046 54.3951C59.0667 54.3572 59.0454 54.3057 59.0454 54.2521C59.0454 54.1985 59.0667 54.1471 59.1046 54.1092C59.1426 54.0713 59.194 54.05 59.2476 54.05H96.9696C97.0232 54.05 97.0746 54.0713 97.1125 54.1092C97.1504 54.1471 97.1717 54.1985 97.1717 54.2521C97.1717 54.3057 97.1504 54.3572 97.1125 54.3951C97.0746 54.433 97.0232 54.4543 96.9696 54.4543Z" fill="#E6E6E6"/>
<path d="M96.9696 46.8427H86.2273C86.1737 46.8427 86.1223 46.8214 86.0844 46.7835C86.0465 46.7456 86.0252 46.6942 86.0252 46.6406C86.0252 46.5869 86.0465 46.5355 86.0844 46.4976C86.1223 46.4597 86.1737 46.4384 86.2273 46.4384H96.9696C97.0232 46.4384 97.0746 46.4597 97.1125 46.4976C97.1504 46.5355 97.1717 46.5869 97.1717 46.6406C97.1717 46.6942 97.1504 46.7456 97.1125 46.7835C97.0746 46.8214 97.0232 46.8427 96.9696 46.8427Z" fill="#E6E6E6"/>
<path d="M96.9696 62.0658H59.2476C59.194 62.0658 59.1426 62.0445 59.1046 62.0066C59.0667 61.9687 59.0454 61.9173 59.0454 61.8637C59.0454 61.8101 59.0667 61.7587 59.1046 61.7208C59.1426 61.6829 59.194 61.6616 59.2476 61.6616H96.9696C97.0232 61.6616 97.0746 61.6829 97.1125 61.7208C97.1504 61.7587 97.1717 61.8101 97.1717 61.8637C97.1717 61.9173 97.1504 61.9687 97.1125 62.0066C97.0746 62.0445 97.0232 62.0658 96.9696 62.0658Z" fill="#E6E6E6"/>
<path d="M96.9696 69.6775H59.2476C59.194 69.6775 59.1426 69.6562 59.1046 69.6183C59.0667 69.5804 59.0454 69.5289 59.0454 69.4753C59.0454 69.4217 59.0667 69.3703 59.1046 69.3324C59.1426 69.2945 59.194 69.2732 59.2476 69.2732H96.9696C97.0232 69.2732 97.0746 69.2945 97.1125 69.3324C97.1504 69.3703 97.1717 69.4217 97.1717 69.4753C97.1717 69.5289 97.1504 69.5804 97.1125 69.6183C97.0746 69.6562 97.0232 69.6775 96.9696 69.6775Z" fill="#E6E6E6"/>
<path d="M96.9696 77.289H59.2476C59.194 77.289 59.1426 77.2677 59.1046 77.2298C59.0667 77.1919 59.0454 77.1405 59.0454 77.0869C59.0454 77.0333 59.0667 76.9819 59.1046 76.944C59.1426 76.9061 59.194 76.8848 59.2476 76.8848H96.9696C97.0232 76.8848 97.0746 76.9061 97.1125 76.944C97.1504 76.9819 97.1717 77.0333 97.1717 77.0869C97.1717 77.1405 97.1504 77.1919 97.1125 77.2298C97.0746 77.2677 97.0232 77.289 96.9696 77.289Z" fill="#E6E6E6"/>
<path d="M96.9696 84.9006H59.2476C59.194 84.9006 59.1426 84.8793 59.1046 84.8414C59.0667 84.8035 59.0454 84.7521 59.0454 84.6985C59.0454 84.6449 59.0667 84.5935 59.1046 84.5556C59.1426 84.5177 59.194 84.4964 59.2476 84.4964H96.9696C97.0232 84.4964 97.0746 84.5177 97.1125 84.5556C97.1504 84.5935 97.1717 84.6449 97.1717 84.6985C97.1717 84.7521 97.1504 84.8035 97.1125 84.8414C97.0746 84.8793 97.0232 84.9006 96.9696 84.9006Z" fill="#E6E6E6"/>
<path d="M96.9696 92.5121H59.2476C59.194 92.5121 59.1426 92.4908 59.1046 92.4529C59.0667 92.415 59.0454 92.3636 59.0454 92.31C59.0454 92.2564 59.0667 92.205 59.1046 92.1671C59.1426 92.1291 59.194 92.1078 59.2476 92.1078H96.9696C97.0232 92.1078 97.0746 92.1291 97.1125 92.1671C97.1504 92.205 97.1717 92.2564 97.1717 92.31C97.1717 92.3636 97.1504 92.415 97.1125 92.4529C97.0746 92.4908 97.0232 92.5121 96.9696 92.5121Z" fill="#E6E6E6"/>
<path d="M96.9696 100.124H59.2476C59.194 100.124 59.1426 100.103 59.1046 100.065C59.0667 100.027 59.0454 99.9753 59.0454 99.9217C59.0454 99.8681 59.0667 99.8167 59.1046 99.7788C59.1426 99.7409 59.194 99.7196 59.2476 99.7196H96.9696C97.0232 99.7196 97.0746 99.7409 97.1125 99.7788C97.1504 99.8167 97.1717 99.8681 97.1717 99.9217C97.1717 99.9753 97.1504 100.027 97.1125 100.065C97.0746 100.103 97.0232 100.124 96.9696 100.124Z" fill="#E6E6E6"/>
<path d="M96.9696 107.735H59.2476C59.194 107.735 59.1426 107.714 59.1046 107.676C59.0667 107.638 59.0454 107.587 59.0454 107.533C59.0454 107.48 59.0667 107.428 59.1046 107.39C59.1426 107.352 59.194 107.331 59.2476 107.331H96.9696C97.0232 107.331 97.0746 107.352 97.1125 107.39C97.1504 107.428 97.1717 107.48 97.1717 107.533C97.1717 107.587 97.1504 107.638 97.1125 107.676C97.0746 107.714 97.0232 107.735 96.9696 107.735Z" fill="#E6E6E6"/>
<path d="M96.9696 115.347H59.2476C59.194 115.347 59.1426 115.326 59.1046 115.288C59.0667 115.25 59.0454 115.199 59.0454 115.145C59.0454 115.091 59.0667 115.04 59.1046 115.002C59.1426 114.964 59.194 114.943 59.2476 114.943H96.9696C97.0232 114.943 97.0746 114.964 97.1125 115.002C97.1504 115.04 97.1717 115.091 97.1717 115.145C97.1717 115.199 97.1504 115.25 97.1125 115.288C97.0746 115.326 97.0232 115.347 96.9696 115.347Z" fill="#E6E6E6"/>
<path d="M91.3773 52.6765H65.3617C65.2605 52.6767 65.1601 52.6569 65.0665 52.6183C64.9729 52.5798 64.8878 52.5231 64.8161 52.4517C64.7444 52.3802 64.6875 52.2954 64.6487 52.202C64.6099 52.1085 64.5899 52.0084 64.5899 51.9073C64.5899 51.8062 64.6099 51.706 64.6487 51.6126C64.6875 51.5192 64.7444 51.4343 64.8161 51.3629C64.8878 51.2915 64.9729 51.2348 65.0665 51.1962C65.1601 51.1576 65.2605 51.1379 65.3617 51.138H91.3773C91.5814 51.1384 91.7771 51.2196 91.9213 51.3638C92.0656 51.508 92.1466 51.7035 92.1466 51.9073C92.1466 52.1111 92.0656 52.3066 91.9213 52.4508C91.7771 52.595 91.5814 52.6762 91.3773 52.6765Z" fill="#CCCCCC"/>
<path d="M91.3773 60.2881H65.3618C65.1574 60.2881 64.9614 60.2071 64.8169 60.0628C64.6724 59.9185 64.5912 59.7229 64.5912 59.5189C64.5912 59.3148 64.6724 59.1192 64.8169 58.9749C64.9614 58.8306 65.1574 58.7496 65.3618 58.7496H91.3773C91.5816 58.7496 91.7776 58.8306 91.9221 58.9749C92.0666 59.1192 92.1478 59.3148 92.1478 59.5189C92.1478 59.7229 92.0666 59.9185 91.9221 60.0628C91.7776 60.2071 91.5816 60.2881 91.3773 60.2881Z" fill="#CCCCCC"/>
<path d="M91.3773 67.8997H65.3617C65.2605 67.8998 65.1601 67.8801 65.0665 67.8415C64.9729 67.8029 64.8878 67.7463 64.8161 67.6748C64.7444 67.6034 64.6875 67.5185 64.6487 67.4251C64.6099 67.3317 64.5899 67.2315 64.5899 67.1304C64.5899 67.0293 64.6099 66.9292 64.6487 66.8358C64.6875 66.7423 64.7444 66.6575 64.8161 66.586C64.8878 66.5146 64.9729 66.458 65.0665 66.4194C65.1601 66.3808 65.2605 66.361 65.3617 66.3612H91.3773C91.5814 66.3615 91.7771 66.4427 91.9213 66.5869C92.0656 66.7311 92.1466 66.9266 92.1466 67.1304C92.1466 67.3342 92.0656 67.5297 91.9213 67.6739C91.7771 67.8182 91.5814 67.8993 91.3773 67.8997Z" fill="#CCCCCC"/>
<path d="M91.3773 75.5112H65.3618C65.1574 75.5112 64.9614 75.4302 64.8169 75.2859C64.6724 75.1417 64.5912 74.946 64.5912 74.742C64.5912 74.538 64.6724 74.3423 64.8169 74.1981C64.9614 74.0538 65.1574 73.9727 65.3618 73.9727H91.3773C91.5816 73.9727 91.7776 74.0538 91.9221 74.1981C92.0666 74.3423 92.1478 74.538 92.1478 74.742C92.1478 74.946 92.0666 75.1417 91.9221 75.2859C91.7776 75.4302 91.5816 75.5112 91.3773 75.5112Z" fill="#CCCCCC"/>
<path d="M91.3773 83.1229H65.3617C65.2605 83.123 65.1601 83.1032 65.0665 83.0647C64.9729 83.0261 64.8878 82.9694 64.8161 82.898C64.7444 82.8265 64.6875 82.7417 64.6487 82.6483C64.6099 82.5549 64.5899 82.4547 64.5899 82.3536C64.5899 82.2525 64.6099 82.1523 64.6487 82.0589C64.6875 81.9655 64.7444 81.8807 64.8161 81.8092C64.8878 81.7378 64.9729 81.6811 65.0665 81.6425C65.1601 81.604 65.2605 81.5842 65.3617 81.5844H91.3773C91.5814 81.5847 91.7771 81.6659 91.9213 81.8101C92.0656 81.9543 92.1466 82.1498 92.1466 82.3536C92.1466 82.5574 92.0656 82.7529 91.9213 82.8971C91.7771 83.0413 91.5814 83.1225 91.3773 83.1229Z" fill="#CCCCCC"/>
<path d="M91.3773 90.7345H65.3617C65.2605 90.7346 65.1601 90.7148 65.0665 90.6763C64.9729 90.6377 64.8878 90.581 64.8161 90.5096C64.7444 90.4381 64.6875 90.3533 64.6487 90.2599C64.6099 90.1665 64.5899 90.0663 64.5899 89.9652C64.5899 89.8641 64.6099 89.7639 64.6487 89.6705C64.6875 89.5771 64.7444 89.4923 64.8161 89.4208C64.8878 89.3494 64.9729 89.2927 65.0665 89.2542C65.1601 89.2156 65.2605 89.1958 65.3617 89.196H91.3773C91.5814 89.1963 91.7771 89.2775 91.9213 89.4217C92.0656 89.5659 92.1466 89.7614 92.1466 89.9652C92.1466 90.169 92.0656 90.3645 91.9213 90.5087C91.7771 90.6529 91.5814 90.7341 91.3773 90.7345Z" fill="#CCCCCC"/>
<path d="M91.3773 98.346H65.3618C65.1574 98.346 64.9614 98.265 64.8169 98.1207C64.6724 97.9764 64.5912 97.7808 64.5912 97.5767C64.5912 97.3727 64.6724 97.1771 64.8169 97.0328C64.9614 96.8885 65.1574 96.8075 65.3618 96.8075H91.3773C91.5816 96.8075 91.7776 96.8885 91.9221 97.0328C92.0666 97.1771 92.1478 97.3727 92.1478 97.5767C92.1478 97.7808 92.0666 97.9764 91.9221 98.1207C91.7776 98.265 91.5816 98.346 91.3773 98.346Z" fill="#CCCCCC"/>
<path d="M91.3773 105.958H65.3617C65.2605 105.958 65.1601 105.938 65.0665 105.899C64.9729 105.861 64.8878 105.804 64.8161 105.733C64.7444 105.661 64.6875 105.576 64.6487 105.483C64.6099 105.39 64.5899 105.289 64.5899 105.188C64.5899 105.087 64.6099 104.987 64.6487 104.894C64.6875 104.8 64.7444 104.715 64.8161 104.644C64.8878 104.573 64.9729 104.516 65.0665 104.477C65.1601 104.439 65.2605 104.419 65.3617 104.419H91.3773C91.5814 104.419 91.7771 104.501 91.9213 104.645C92.0656 104.789 92.1466 104.985 92.1466 105.188C92.1466 105.392 92.0656 105.588 91.9213 105.732C91.7771 105.876 91.5814 105.957 91.3773 105.958Z" fill="#CCCCCC"/>
<path d="M91.3773 113.569H65.3618C65.2606 113.569 65.1604 113.549 65.0669 113.511C64.9734 113.472 64.8884 113.415 64.8169 113.344C64.7453 113.272 64.6886 113.188 64.6498 113.094C64.6111 113.001 64.5912 112.901 64.5912 112.8C64.5912 112.699 64.6111 112.599 64.6498 112.506C64.6886 112.412 64.7453 112.327 64.8169 112.256C64.8884 112.185 64.9734 112.128 65.0669 112.089C65.1604 112.051 65.2606 112.031 65.3618 112.031H91.3773C91.5816 112.031 91.7776 112.112 91.9221 112.256C92.0666 112.4 92.1478 112.596 92.1478 112.8C92.1478 113.004 92.0666 113.2 91.9221 113.344C91.7776 113.488 91.5816 113.569 91.3773 113.569Z" fill="#CCCCCC"/>
<path d="M67.8759 46.9186H61.1433C61.0897 46.9186 61.0383 46.9398 61.0004 46.9777C60.9625 47.0155 60.9412 47.0669 60.9412 47.1204C60.9412 47.1739 60.9625 47.2252 61.0004 47.2631C61.0383 47.3009 61.0897 47.3222 61.1433 47.3222H64.3074V53.9083C64.3074 53.9618 64.3287 54.0131 64.3667 54.0509C64.4046 54.0888 64.456 54.1101 64.5096 54.1101C64.5632 54.1101 64.6146 54.0888 64.6525 54.0509C64.6904 54.0131 64.7117 53.9618 64.7117 53.9083V50.4809C64.7117 49.6432 65.0451 48.8397 65.6385 48.2473C66.2319 47.655 67.0367 47.3222 67.8759 47.3222C67.9295 47.3222 67.9809 47.3009 68.0188 47.2631C68.0567 47.2252 68.078 47.1739 68.078 47.1204C68.078 47.0669 68.0567 47.0155 68.0188 46.9777C67.9809 46.9398 67.9295 46.9186 67.8759 46.9186Z" fill="#D2C0FB"/>
<path d="M92.3204 115.172C92.2087 115.172 90.7917 115.082 90.7917 114.971L92.1182 108.25C92.1182 108.196 92.1395 108.145 92.1774 108.107C92.2154 108.069 92.2668 108.048 92.3204 108.048C92.374 108.048 92.4254 108.069 92.4633 108.107C92.5012 108.145 92.5225 108.196 92.5225 108.25V114.971C92.5225 115.024 92.5012 115.076 92.4633 115.113C92.4254 115.151 92.374 115.172 92.3204 115.172Z" fill="#D2C0FB"/>
<path d="M107.599 45.0738C107.599 43.8376 107.107 42.652 106.232 41.7778C105.356 40.9037 104.169 40.4126 102.93 40.4126H50.6798C52.7924 40.4126 78.177 41.903 94.3492 43.7843C97.0455 44.0976 99.5749 45.2491 101.58 47.0759C103.585 48.9027 104.964 51.3125 105.523 53.9647C110.278 76.5509 109.409 99.5529 103.354 122.939C103.354 124.175 102.862 125.36 101.987 126.235C101.111 127.109 99.9237 127.6 98.6856 127.6H102.93C104.169 127.6 105.356 127.109 106.232 126.235C107.107 125.36 107.599 124.175 107.599 122.939C114.451 96.4769 114.661 70.5064 107.599 45.0738Z" fill="#D2C0FB"/>
<path d="M105.629 125.3L105.237 125.199C112.149 98.5046 112.151 72.3501 105.244 47.4611C104.525 46.1597 103.491 45.0591 102.236 44.2599C100.981 43.4608 99.545 42.9886 98.0599 42.8866L77.3478 41.4211L77.3764 41.0185L98.0886 42.4839C99.645 42.5909 101.149 43.0868 102.464 43.9261C103.778 44.7654 104.86 45.9211 105.61 47.287L105.628 47.3304C109.12 59.9002 110.878 72.887 110.853 85.9313C110.827 98.7668 109.069 112.012 105.629 125.3Z" fill="white"/>
<path d="M16.2 176.207C16.136 176.271 15.984 176.287 15.744 176.255C15.504 176.239 15.312 176.127 15.168 175.919C15.056 175.695 14.992 175.439 14.976 175.151C14.96 174.863 14.96 174.463 14.976 173.951C15.072 173.391 15.232 172.655 15.456 171.743C15.68 170.831 15.928 169.815 16.2 168.695C16.488 167.559 16.776 166.399 17.064 165.215C17.208 164.655 17.32 164.183 17.4 163.799C17.496 163.415 17.56 163.127 17.592 162.935C17.64 162.727 17.664 162.623 17.664 162.623C17.648 162.655 17.624 162.687 17.592 162.719C17.576 162.751 17.56 162.783 17.544 162.815C17.528 162.847 17.512 162.879 17.496 162.911C17.496 162.911 17.464 162.967 17.4 163.079C17.352 163.191 17.24 163.383 17.064 163.655C16.936 163.847 16.816 164.071 16.704 164.327C16.592 164.583 16.4 164.919 16.128 165.335C15.872 165.815 15.584 166.367 15.264 166.991C14.944 167.615 14.672 168.111 14.448 168.479C14.336 168.655 14.232 168.807 14.136 168.935C14.056 169.063 14 169.167 13.968 169.247C13.904 169.423 13.8 169.639 13.656 169.895C13.512 170.151 13.344 170.399 13.152 170.639C13.056 170.783 12.928 170.951 12.768 171.143C12.624 171.335 12.496 171.511 12.384 171.671C12.272 171.815 12.216 171.887 12.216 171.887C12.184 171.983 12.08 172.135 11.904 172.343C11.728 172.551 11.512 172.783 11.256 173.039C11.016 173.279 10.768 173.503 10.512 173.711C9.952 174.159 9.488 174.439 9.12 174.551C8.768 174.663 8.36 174.527 7.896 174.143C7.688 173.887 7.52 173.631 7.392 173.375C7.264 173.103 7.2 172.735 7.2 172.271C7.2 171.807 7.28 171.159 7.44 170.327C7.552 169.799 7.672 169.239 7.8 168.647C7.944 168.055 8.088 167.487 8.232 166.943C8.376 166.383 8.504 165.903 8.616 165.503C8.744 165.087 8.832 164.799 8.88 164.639C8.928 164.239 8.936 164.031 8.904 164.015C8.872 163.983 8.792 164.071 8.664 164.279C8.552 164.455 8.344 164.823 8.04 165.383C7.736 165.943 7.392 166.599 7.008 167.351C6.64 168.103 6.28 168.855 5.928 169.607C5.272 170.823 4.72 171.839 4.272 172.655C3.824 173.471 3.456 174.127 3.168 174.623C2.88 175.103 2.656 175.463 2.496 175.703C2.352 175.959 2.24 176.135 2.16 176.231C2.096 176.343 2.048 176.415 2.016 176.447C1.776 176.431 1.568 176.319 1.392 176.111C1.216 175.903 1.072 175.655 0.96 175.367C0.928 175.207 0.904 175.039 0.888 174.863C0.872 174.687 0.888 174.495 0.936 174.287C1 174.063 1.096 173.823 1.224 173.567C1.432 173.151 1.632 172.799 1.824 172.511C2.016 172.223 2.136 172.047 2.184 171.983C2.264 171.871 2.328 171.751 2.376 171.623C2.424 171.495 2.456 171.375 2.472 171.263C2.552 171.167 2.672 170.967 2.832 170.663C3.008 170.359 3.184 170.031 3.36 169.679C3.488 169.471 3.664 169.183 3.888 168.815C4.112 168.431 4.352 168.023 4.608 167.591C4.864 167.143 5.088 166.735 5.28 166.367C5.984 165.103 6.544 164.095 6.96 163.343C7.376 162.575 7.672 162.087 7.848 161.879C7.96 161.799 8.056 161.647 8.136 161.423C8.232 161.183 8.312 161.007 8.376 160.895C8.6 160.447 8.824 160.079 9.048 159.791C9.288 159.487 9.496 159.335 9.672 159.335C9.8 159.335 9.96 159.383 10.152 159.479C10.36 159.575 10.56 159.711 10.752 159.887C10.928 160.095 11.088 160.375 11.232 160.727C11.392 161.063 11.424 161.511 11.328 162.071C11.312 162.327 11.272 162.639 11.208 163.007C11.144 163.359 11.08 163.711 11.016 164.063C10.952 164.415 10.888 164.711 10.824 164.951C10.696 165.671 10.552 166.359 10.392 167.015C10.248 167.655 10.112 168.247 9.984 168.791C9.856 169.335 9.752 169.815 9.672 170.231C9.592 170.631 9.536 170.959 9.504 171.215C9.488 171.471 9.52 171.639 9.6 171.719C9.648 171.735 9.712 171.719 9.792 171.671C9.888 171.607 9.96 171.543 10.008 171.479C10.104 171.351 10.192 171.223 10.272 171.095C10.352 170.967 10.456 170.807 10.584 170.615C10.84 170.263 11.104 169.879 11.376 169.463C11.664 169.031 12 168.503 12.384 167.879C12.784 167.239 13.256 166.455 13.8 165.527C14.344 164.583 15.008 163.415 15.792 162.023C16.16 161.463 16.512 160.903 16.848 160.343C17.184 159.783 17.488 159.351 17.76 159.047C18 158.791 18.296 158.703 18.648 158.783C19.016 158.863 19.352 159.063 19.656 159.383C19.96 159.703 20.128 160.095 20.16 160.559C20.176 160.783 20.128 161.183 20.016 161.759C19.92 162.319 19.784 162.951 19.608 163.655C19.432 164.359 19.232 165.047 19.008 165.719C18.96 165.991 18.88 166.351 18.768 166.799C18.656 167.247 18.536 167.703 18.408 168.167C18.28 168.631 18.16 169.047 18.048 169.415C17.936 169.959 17.84 170.391 17.76 170.711C17.696 171.031 17.664 171.399 17.664 171.815C17.52 172.071 17.424 172.439 17.376 172.919C17.328 173.399 17.304 173.895 17.304 174.407C17.24 175.031 17.104 175.471 16.896 175.727C16.704 175.983 16.576 176.103 16.512 176.087C16.384 176.039 16.28 176.079 16.2 176.207ZM20.2142 174.647C20.0862 174.519 19.9902 174.327 19.9262 174.071C19.8782 173.815 19.8622 173.567 19.8782 173.327C19.8942 173.071 19.9342 172.879 19.9982 172.751C19.9982 172.623 20.0142 172.527 20.0462 172.463C20.0942 172.383 20.1102 172.311 20.0942 172.247C20.0782 172.183 20.0942 172.071 20.1422 171.911C20.1902 171.751 20.2382 171.599 20.2862 171.455C20.3982 171.199 20.5262 170.871 20.6702 170.471C20.8142 170.055 20.9582 169.639 21.1022 169.223C21.2462 168.791 21.3662 168.423 21.4622 168.119C21.5582 167.799 21.6142 167.607 21.6302 167.543C21.6302 167.351 21.7582 167.247 22.0142 167.231C22.2062 167.167 22.4382 167.247 22.7102 167.471C22.9822 167.695 23.1982 167.935 23.3582 168.191C23.4862 168.319 23.5342 168.487 23.5022 168.695C23.4702 168.903 23.3662 169.199 23.1902 169.583C23.1262 169.711 23.0462 169.927 22.9502 170.231C22.8702 170.519 22.8142 170.759 22.7822 170.951C22.7182 171.079 22.6382 171.263 22.5422 171.503C22.4622 171.727 22.3902 171.943 22.3262 172.151C22.2942 172.231 22.2622 172.383 22.2302 172.607C22.1982 172.815 22.1582 173.031 22.1102 173.255C22.0622 173.479 21.9982 173.655 21.9182 173.783C21.7742 174.439 21.5182 174.823 21.1502 174.935C20.7982 175.047 20.4862 174.951 20.2142 174.647ZM22.8062 165.023C22.6302 164.895 22.4942 164.743 22.3982 164.567C22.3182 164.375 22.2702 164.207 22.2542 164.063C22.2542 163.919 22.2702 163.831 22.3022 163.799C22.4622 163.623 22.5982 163.391 22.7102 163.103C22.8382 162.815 22.9742 162.551 23.1182 162.311C23.1502 162.263 23.1902 162.199 23.2382 162.119C23.3022 162.023 23.3662 161.967 23.4302 161.951C23.6222 161.823 23.8862 161.831 24.2222 161.975C24.5742 162.119 24.8302 162.319 24.9902 162.575C25.1342 162.879 25.1742 163.191 25.1102 163.511C25.0622 163.831 24.8942 164.167 24.6062 164.519C24.3662 164.839 24.0622 165.047 23.6942 165.143C23.3262 165.223 23.0302 165.183 22.8062 165.023ZM33.0851 174.479C32.7331 174.447 32.4371 174.375 32.1971 174.263C31.9731 174.135 31.7891 173.887 31.6451 173.519C31.5811 173.263 31.5491 172.999 31.5491 172.727C31.5651 172.439 31.5891 172.167 31.6211 171.911C31.6531 171.639 31.6691 171.407 31.6691 171.215C31.6691 171.183 31.6691 171.119 31.6691 171.023C31.6691 170.927 31.6691 170.839 31.6691 170.759C31.6371 170.519 31.5731 170.375 31.4771 170.327C31.3971 170.263 31.2531 170.271 31.0451 170.351C30.7091 170.511 30.3411 170.727 29.9411 170.999C29.5571 171.255 29.1491 171.559 28.7171 171.911C28.3011 172.247 27.8691 172.607 27.4211 172.991C27.0691 173.375 26.8051 173.687 26.6291 173.927C26.4691 174.167 26.3011 174.287 26.1251 174.287C25.9971 174.351 25.8611 174.335 25.7171 174.239C25.5731 174.143 25.4211 174.031 25.2611 173.903C25.1491 173.775 25.0131 173.615 24.8531 173.423C24.7091 173.215 24.6211 173.079 24.5891 173.015C24.5891 172.759 24.6051 172.527 24.6371 172.319C24.6851 172.111 24.7491 171.895 24.8291 171.671C24.9251 171.447 25.0371 171.191 25.1651 170.903C25.2291 170.791 25.2851 170.679 25.3331 170.567C25.3971 170.439 25.4691 170.303 25.5491 170.159C25.6131 169.935 25.7011 169.679 25.8131 169.391C25.9411 169.103 26.0611 168.831 26.1731 168.575C26.3491 168.159 26.4851 167.799 26.5811 167.495C26.6771 167.191 26.7571 166.863 26.8211 166.511C26.8051 166.479 26.8131 166.431 26.8451 166.367C26.8771 166.303 26.9251 166.263 26.9891 166.247H27.0131H27.0371C27.1491 166.167 27.3571 166.159 27.6611 166.223C27.9811 166.271 28.2211 166.359 28.3811 166.487C28.7171 166.775 28.8771 167.151 28.8611 167.615C28.8451 168.079 28.6051 168.687 28.1411 169.439C28.0291 169.695 27.9091 169.935 27.7811 170.159C27.6691 170.367 27.6131 170.511 27.6131 170.591C27.6131 170.591 27.6771 170.543 27.8051 170.447C27.9331 170.351 28.0851 170.239 28.2611 170.111C28.4371 169.967 28.5891 169.855 28.7171 169.775C28.7971 169.695 28.9731 169.551 29.2451 169.343C29.5171 169.119 29.8131 168.887 30.1331 168.647C30.4531 168.407 30.7091 168.223 30.9011 168.095C31.0771 167.967 31.3011 167.839 31.5731 167.711C31.8451 167.567 32.0131 167.495 32.0771 167.495C32.2371 167.495 32.4291 167.551 32.6531 167.663C32.8931 167.775 33.1091 167.911 33.3011 168.071C33.5091 168.215 33.6291 168.351 33.6611 168.479C33.6611 168.543 33.6531 168.631 33.6371 168.743C33.6211 168.839 33.6131 168.927 33.6131 169.007C33.5971 169.263 33.5891 169.575 33.5891 169.943C33.6051 170.295 33.6131 170.655 33.6131 171.023C33.6131 171.375 33.5811 171.695 33.5171 171.983C33.5171 171.983 33.5251 171.999 33.5411 172.031C33.5571 172.047 33.5731 172.079 33.5891 172.127C33.5731 172.143 33.5651 172.175 33.5651 172.223C33.5811 172.255 33.5891 172.271 33.5891 172.271C33.6211 172.383 33.6531 172.495 33.6851 172.607C33.7331 172.719 33.7891 172.847 33.8531 172.991C33.9171 173.119 33.9891 173.287 34.0691 173.495C34.0531 173.703 33.9331 173.911 33.7091 174.119C33.5011 174.311 33.2931 174.431 33.0851 174.479ZM43.5728 174.671C43.1728 174.863 42.7808 174.935 42.3968 174.887C42.0288 174.823 41.7168 174.623 41.4608 174.287C41.2208 173.935 41.1008 173.423 41.1008 172.751C41.1008 172.575 41.1088 172.367 41.1248 172.127C41.1568 171.871 41.2048 171.607 41.2688 171.335C41.3328 171.047 41.4128 170.759 41.5088 170.471C41.5568 170.327 41.6208 170.183 41.7008 170.039C41.7968 169.895 41.8128 169.823 41.7488 169.823C41.6848 169.823 41.6048 169.863 41.5088 169.943C41.4288 170.023 41.3648 170.087 41.3168 170.135C40.9168 170.487 40.5488 170.855 40.2128 171.239C39.8928 171.607 39.6048 171.975 39.3488 172.343C39.1088 172.695 38.9168 173.023 38.7728 173.327C38.6448 173.631 38.5808 173.887 38.5808 174.095C38.5808 174.335 38.4608 174.503 38.2208 174.599C37.9808 174.695 37.7728 174.687 37.5968 174.575C37.2928 174.399 37.0128 174.127 36.7568 173.759C36.5168 173.391 36.4208 172.911 36.4688 172.319C36.5168 171.567 36.5808 170.895 36.6608 170.303C36.7408 169.711 36.8688 169.071 37.0448 168.383C37.2368 167.679 37.4848 166.823 37.7888 165.815C37.9968 165.255 38.1888 164.727 38.3648 164.231C38.5408 163.719 38.6928 163.287 38.8208 162.935C38.9648 162.583 39.0528 162.367 39.0848 162.287C39.1648 162.207 39.2688 162.015 39.3968 161.711C39.5248 161.391 39.6368 161.071 39.7328 160.751C39.8448 160.431 39.9008 160.239 39.9008 160.175C39.9008 160.047 39.9248 159.935 39.9728 159.839C40.0368 159.743 40.0928 159.655 40.1408 159.575C40.2368 159.351 40.3168 159.199 40.3808 159.119C40.4608 159.023 40.5328 158.975 40.5968 158.975C40.6768 158.975 40.8048 159.015 40.9808 159.095C41.1728 159.175 41.3488 159.279 41.5088 159.407C41.6848 159.519 41.7888 159.639 41.8208 159.767C41.9328 159.991 41.9968 160.223 42.0128 160.463C42.0288 160.687 41.9728 160.967 41.8448 161.303C41.7168 161.639 41.4928 162.103 41.1728 162.695C40.9168 163.191 40.6848 163.703 40.4768 164.231C40.2688 164.759 40.0688 165.311 39.8768 165.887C39.7968 166.127 39.6928 166.447 39.5648 166.847C39.4368 167.231 39.3088 167.631 39.1808 168.047C39.0688 168.447 38.9728 168.807 38.8928 169.127C38.8128 169.447 38.7728 169.655 38.7728 169.751C38.7728 169.863 38.8368 169.919 38.9648 169.919C39.0928 169.903 39.2208 169.807 39.3488 169.631C39.4128 169.503 39.5168 169.383 39.6608 169.271C39.8048 169.143 39.9328 169.015 40.0448 168.887C40.1728 168.727 40.3248 168.543 40.5008 168.335C40.6928 168.111 40.8928 167.903 41.1008 167.711C41.3248 167.503 41.5248 167.335 41.7008 167.207C41.8928 167.079 42.0528 167.015 42.1808 167.015C42.4848 167.015 42.7408 167.103 42.9488 167.279C43.1568 167.455 43.3328 167.727 43.4768 168.095C43.5248 168.143 43.5728 168.207 43.6208 168.287C43.6688 168.351 43.7008 168.399 43.7168 168.431C43.7968 168.495 43.8368 168.751 43.8368 169.199C43.8368 169.631 43.7088 170.231 43.4528 170.999C43.3088 171.591 43.2208 172.031 43.1888 172.319C43.1728 172.607 43.2288 172.751 43.3568 172.751C43.3568 172.751 43.4368 172.703 43.5968 172.607C43.7728 172.511 43.9568 172.407 44.1488 172.295C44.6128 171.991 44.9488 171.895 45.1568 172.007C45.3648 172.119 45.4688 172.263 45.4688 172.439C45.4688 172.583 45.4128 172.751 45.3008 172.943C45.2048 173.135 45.1568 173.263 45.1568 173.327C45.1568 173.327 45.1568 173.335 45.1568 173.351C45.1568 173.351 45.1568 173.383 45.1568 173.447C45.1568 173.479 45.0528 173.591 44.8448 173.783C44.6368 173.975 44.4048 174.167 44.1488 174.359C43.9088 174.535 43.7168 174.639 43.5728 174.671ZM49.1141 174.719C48.9861 174.751 48.8181 174.767 48.6101 174.767C48.4021 174.751 48.2181 174.727 48.0581 174.695C47.9141 174.647 47.8421 174.599 47.8421 174.551C47.8421 174.471 47.8021 174.431 47.7221 174.431C47.7221 174.431 47.6341 174.367 47.4581 174.239C47.2821 174.095 47.1221 173.991 46.9781 173.927C46.8341 173.703 46.7381 173.447 46.6901 173.159C46.6581 172.855 46.7541 172.327 46.9781 171.575C46.9941 171.063 47.1381 170.527 47.4101 169.967C47.6821 169.391 48.0261 168.831 48.4421 168.287C48.8581 167.743 49.2901 167.263 49.7381 166.847C50.1861 166.415 50.5861 166.095 50.9381 165.887C51.1621 165.663 51.4581 165.543 51.8261 165.527C52.2101 165.511 52.5461 165.583 52.8341 165.743C52.9941 165.823 53.1701 165.983 53.3621 166.223C53.5541 166.463 53.7381 166.719 53.9141 166.991C54.0901 167.247 54.2261 167.479 54.3221 167.687C54.3701 167.863 54.4101 168.023 54.4421 168.167C54.4901 168.295 54.5221 168.455 54.5381 168.647C54.5541 168.839 54.5381 169.127 54.4901 169.511C54.4101 169.799 54.3381 170.095 54.2741 170.399C54.2261 170.687 54.2021 170.983 54.2021 171.287C54.1701 171.591 54.2021 171.807 54.2981 171.935C54.4101 172.063 54.5701 172.071 54.7781 171.959C54.9701 171.863 55.1701 171.855 55.3781 171.935C55.5861 171.999 55.7301 172.127 55.8101 172.319C55.9061 172.495 55.8821 172.727 55.7381 173.015C55.6421 173.223 55.4901 173.423 55.2821 173.615C55.0741 173.807 54.8421 173.967 54.5861 174.095C54.3301 174.207 54.0821 174.263 53.8421 174.263C53.6661 174.263 53.4901 174.199 53.3141 174.071C53.1381 173.927 52.9781 173.735 52.8341 173.495C52.6901 173.255 52.5701 172.991 52.4741 172.703L52.3301 172.151L51.4661 172.943C51.2581 173.167 51.0501 173.375 50.8421 173.567C50.6501 173.743 50.5301 173.871 50.4821 173.951C50.4021 174.095 50.2421 174.223 50.0021 174.335C49.7781 174.447 49.4821 174.575 49.1141 174.719ZM49.7621 172.415C50.0341 172.255 50.2661 172.063 50.4581 171.839C50.6661 171.615 50.8661 171.367 51.0581 171.095C51.2501 170.807 51.4581 170.503 51.6821 170.183C51.9541 169.815 52.1461 169.519 52.2581 169.295C52.3861 169.071 52.4821 168.831 52.5461 168.575C52.4821 168.399 52.3941 168.215 52.2821 168.023C52.1701 167.815 52.0581 167.703 51.9461 167.687C51.7221 167.687 51.4501 167.823 51.1301 168.095C50.8261 168.367 50.4901 168.759 50.1221 169.271C50.0581 169.351 49.9781 169.479 49.8821 169.655C49.7861 169.831 49.6901 169.999 49.5941 170.159C49.5141 170.303 49.4581 170.399 49.4261 170.447C49.3781 170.511 49.3061 170.663 49.2101 170.903C49.1301 171.127 49.0581 171.359 48.9941 171.599C48.9301 171.823 48.8981 171.983 48.8981 172.079C48.8981 172.175 48.9061 172.279 48.9221 172.391C48.9541 172.503 49.0341 172.575 49.1621 172.607C49.2901 172.639 49.4901 172.575 49.7621 172.415ZM59.1979 175.223C58.3499 175.223 57.7259 174.951 57.3259 174.407C57.2139 174.151 57.1579 173.895 57.1579 173.639C57.1739 173.367 57.2379 173.175 57.3499 173.063C57.4619 172.935 57.5979 172.959 57.7579 173.135C57.9659 173.263 58.2619 173.327 58.6459 173.327C58.8379 173.327 59.0059 173.327 59.1499 173.327C59.3099 173.311 59.4939 173.295 59.7019 173.279C60.0699 173.247 60.3019 173.135 60.3979 172.943C60.5099 172.751 60.4859 172.591 60.3259 172.463H60.3499C59.9179 172.351 59.4939 172.191 59.0779 171.983C58.6619 171.775 58.3099 171.543 58.0219 171.287C57.7339 171.015 57.5659 170.759 57.5179 170.519C57.3899 169.991 57.4219 169.447 57.6139 168.887C57.8059 168.327 58.0859 167.839 58.4539 167.423C58.5979 167.327 58.7979 167.191 59.0539 167.015C59.3099 166.823 59.4939 166.719 59.6059 166.703V166.727C59.9099 166.407 60.2539 166.151 60.6379 165.959C61.0219 165.751 61.4699 165.559 61.9819 165.383L62.3659 165.335C62.5579 165.303 62.7259 165.287 62.8699 165.287C62.8539 165.287 62.8939 165.303 62.9899 165.335C63.0859 165.367 63.1659 165.391 63.2299 165.407C63.3259 165.455 63.4219 165.479 63.5179 165.479C63.7419 165.511 63.9579 165.631 64.1659 165.839C64.3899 166.031 64.5659 166.263 64.6939 166.535C64.8379 166.791 64.8939 167.031 64.8619 167.255C64.8139 167.623 64.6779 167.991 64.4539 168.359C64.2299 168.711 63.9899 168.911 63.7339 168.959C63.7659 168.943 63.7339 168.911 63.6379 168.863C63.5419 168.815 63.4539 168.767 63.3739 168.719L63.2779 168.767C63.2779 168.767 63.2699 168.743 63.2539 168.695C63.2539 168.647 63.2379 168.591 63.2059 168.527C63.1419 168.415 63.0939 168.295 63.0619 168.167C63.0459 168.039 63.0459 167.895 63.0619 167.735C63.0939 167.559 63.1019 167.455 63.0859 167.423C63.0699 167.391 62.9739 167.367 62.7979 167.351C62.5899 167.303 62.3259 167.327 62.0059 167.423C61.6859 167.503 61.3899 167.647 61.1179 167.855C60.7979 168.063 60.5579 168.231 60.3979 168.359C60.2539 168.487 60.1419 168.615 60.0619 168.743C59.9819 168.855 59.8939 169.023 59.7979 169.247C59.7339 169.359 59.6779 169.463 59.6299 169.559C59.5819 169.639 59.5579 169.719 59.5579 169.799C59.5579 169.959 59.6939 170.127 59.9659 170.303C60.2379 170.463 60.6459 170.655 61.1899 170.879C61.6219 171.055 61.9019 171.295 62.0299 171.599C62.1739 171.903 62.3019 172.191 62.4139 172.463C62.4459 172.527 62.4779 172.647 62.5099 172.823C62.5579 172.983 62.5659 173.079 62.5339 173.111C62.5659 173.143 62.5819 173.175 62.5819 173.207V173.183C62.7099 173.423 62.6859 173.679 62.5099 173.951C62.3499 174.207 62.0939 174.447 61.7419 174.671C61.3899 174.879 60.9899 175.031 60.5419 175.127H60.5659C60.3259 175.159 60.0859 175.183 59.8459 175.199C59.6219 175.215 59.4059 175.223 59.1979 175.223ZM70.089 175.847C69.801 175.687 69.641 175.511 69.609 175.319C69.593 175.127 69.705 174.791 69.945 174.311C70.185 173.831 70.561 173.087 71.073 172.079C71.457 171.359 71.713 170.799 71.841 170.399C71.985 169.983 72.065 169.687 72.081 169.511C72.097 169.335 72.105 169.223 72.105 169.175C72.073 169.031 72.089 168.919 72.153 168.839C72.217 168.743 72.321 168.663 72.465 168.599C72.545 168.519 72.729 168.375 73.017 168.167C73.305 167.959 73.529 167.711 73.689 167.423C73.833 167.087 73.993 166.743 74.169 166.391C74.361 166.039 74.609 165.599 74.913 165.071C75.217 164.527 75.625 163.823 76.137 162.959C76.457 162.399 76.833 161.767 77.265 161.063C77.713 160.359 78.153 159.719 78.585 159.143C78.761 158.919 78.945 158.743 79.137 158.615C79.329 158.487 79.497 158.423 79.641 158.423C79.993 158.423 80.345 158.519 80.697 158.711C81.049 158.887 81.361 159.111 81.633 159.383C81.905 159.655 82.089 159.911 82.185 160.151C82.265 160.279 82.297 160.551 82.281 160.967C82.265 161.383 82.233 161.887 82.185 162.479C82.137 163.071 82.081 163.703 82.017 164.375C81.969 165.031 81.897 165.807 81.801 166.703C81.705 167.599 81.609 168.535 81.513 169.511C81.433 170.487 81.369 171.431 81.321 172.343C81.273 173.239 81.273 174.023 81.321 174.695C81.337 174.839 81.337 174.975 81.321 175.103C81.305 175.231 81.297 175.335 81.297 175.415C81.201 175.511 80.993 175.551 80.673 175.535C80.353 175.535 80.041 175.487 79.737 175.391C79.433 175.295 79.265 175.175 79.233 175.031C79.185 174.983 79.153 174.943 79.137 174.911C79.121 174.879 79.121 174.727 79.137 174.455C79.153 174.167 79.177 173.647 79.209 172.895L79.329 169.223L79.017 169.247C78.873 169.247 78.609 169.263 78.225 169.295C77.857 169.327 77.449 169.375 77.001 169.439C76.569 169.487 76.169 169.543 75.801 169.607C75.433 169.655 75.177 169.703 75.033 169.751C74.889 169.751 74.713 169.847 74.505 170.039C74.313 170.231 74.129 170.479 73.953 170.783C73.889 171.007 73.769 171.247 73.593 171.503C73.433 171.743 73.353 171.903 73.353 171.983C73.241 172.063 73.145 172.159 73.065 172.271C73.001 172.383 72.969 172.439 72.969 172.439C72.969 172.535 72.897 172.775 72.753 173.159C72.609 173.527 72.433 173.943 72.225 174.407C72.017 174.855 71.801 175.247 71.577 175.583L70.929 176.495L70.089 175.847ZM75.825 167.591C75.825 167.591 75.913 167.575 76.089 167.543C76.265 167.511 76.473 167.479 76.713 167.447C76.969 167.399 77.193 167.375 77.385 167.375C77.753 167.279 78.057 167.207 78.297 167.159C78.553 167.111 78.761 167.087 78.921 167.087C79.081 167.071 79.209 167.087 79.305 167.135C79.369 167.215 79.425 167.263 79.473 167.279C79.537 167.295 79.569 167.303 79.569 167.303C79.585 167.271 79.617 167.103 79.665 166.799C79.713 166.495 79.769 166.119 79.833 165.671C79.897 165.223 79.961 164.759 80.025 164.279C80.089 163.783 80.145 163.327 80.193 162.911C80.241 162.479 80.273 162.143 80.289 161.903C80.305 161.599 80.297 161.327 80.265 161.087C80.233 160.831 80.217 160.703 80.217 160.703C80.121 160.703 79.937 160.879 79.665 161.231C79.409 161.567 79.105 162.023 78.753 162.599C78.417 163.159 78.081 163.767 77.745 164.423C77.585 164.727 77.433 164.967 77.289 165.143C77.161 165.319 77.057 165.407 76.977 165.407C76.945 165.439 76.857 165.567 76.713 165.791C76.585 165.999 76.441 166.239 76.281 166.511C76.137 166.767 76.009 167.007 75.897 167.231C75.801 167.439 75.777 167.559 75.825 167.591ZM91.2804 174.479C90.9284 174.447 90.6324 174.375 90.3924 174.263C90.1684 174.135 89.9844 173.887 89.8404 173.519C89.7764 173.263 89.7444 172.999 89.7444 172.727C89.7604 172.439 89.7844 172.167 89.8164 171.911C89.8484 171.639 89.8644 171.407 89.8644 171.215C89.8644 171.183 89.8644 171.119 89.8644 171.023C89.8644 170.927 89.8644 170.839 89.8644 170.759C89.8324 170.519 89.7684 170.375 89.6724 170.327C89.5924 170.263 89.4484 170.271 89.2404 170.351C88.9044 170.511 88.5364 170.727 88.1364 170.999C87.7524 171.255 87.3444 171.559 86.9124 171.911C86.4964 172.247 86.0644 172.607 85.6164 172.991C85.2644 173.375 85.0004 173.687 84.8244 173.927C84.6644 174.167 84.4964 174.287 84.3204 174.287C84.1924 174.351 84.0564 174.335 83.9124 174.239C83.7684 174.143 83.6164 174.031 83.4564 173.903C83.3444 173.775 83.2084 173.615 83.0484 173.423C82.9044 173.215 82.8164 173.079 82.7844 173.015C82.7844 172.759 82.8004 172.527 82.8324 172.319C82.8804 172.111 82.9444 171.895 83.0244 171.671C83.1204 171.447 83.2324 171.191 83.3604 170.903C83.4244 170.791 83.4804 170.679 83.5284 170.567C83.5924 170.439 83.6644 170.303 83.7444 170.159C83.8084 169.935 83.8964 169.679 84.0084 169.391C84.1364 169.103 84.2564 168.831 84.3684 168.575C84.5444 168.159 84.6804 167.799 84.7764 167.495C84.8724 167.191 84.9524 166.863 85.0164 166.511C85.0004 166.479 85.0084 166.431 85.0404 166.367C85.0724 166.303 85.1204 166.263 85.1844 166.247H85.2084H85.2324C85.3444 166.167 85.5524 166.159 85.8564 166.223C86.1764 166.271 86.4164 166.359 86.5764 166.487C86.9124 166.775 87.0724 167.151 87.0564 167.615C87.0404 168.079 86.8004 168.687 86.3364 169.439C86.2244 169.695 86.1044 169.935 85.9764 170.159C85.8644 170.367 85.8084 170.511 85.8084 170.591C85.8084 170.591 85.8724 170.543 86.0004 170.447C86.1284 170.351 86.2804 170.239 86.4564 170.111C86.6324 169.967 86.7844 169.855 86.9124 169.775C86.9924 169.695 87.1684 169.551 87.4404 169.343C87.7124 169.119 88.0084 168.887 88.3284 168.647C88.6484 168.407 88.9044 168.223 89.0964 168.095C89.2724 167.967 89.4964 167.839 89.7684 167.711C90.0404 167.567 90.2084 167.495 90.2724 167.495C90.4324 167.495 90.6244 167.551 90.8484 167.663C91.0884 167.775 91.3044 167.911 91.4964 168.071C91.7044 168.215 91.8244 168.351 91.8564 168.479C91.8564 168.543 91.8484 168.631 91.8324 168.743C91.8164 168.839 91.8084 168.927 91.8084 169.007C91.7924 169.263 91.7844 169.575 91.7844 169.943C91.8004 170.295 91.8084 170.655 91.8084 171.023C91.8084 171.375 91.7764 171.695 91.7124 171.983C91.7124 171.983 91.7204 171.999 91.7364 172.031C91.7524 172.047 91.7684 172.079 91.7844 172.127C91.7684 172.143 91.7604 172.175 91.7604 172.223C91.7764 172.255 91.7844 172.271 91.7844 172.271C91.8164 172.383 91.8484 172.495 91.8804 172.607C91.9284 172.719 91.9844 172.847 92.0484 172.991C92.1124 173.119 92.1844 173.287 92.2644 173.495C92.2484 173.703 92.1284 173.911 91.9044 174.119C91.6964 174.311 91.4884 174.431 91.2804 174.479ZM96.4161 175.271C96.2081 175.287 96.0401 175.263 95.9121 175.199C95.7841 175.151 95.6241 175.071 95.4321 174.959C95.0801 174.687 94.7841 174.351 94.5441 173.951C94.3201 173.551 94.2161 173.215 94.2321 172.943C94.2641 172.799 94.2641 172.671 94.2321 172.559C94.2161 172.447 94.2081 172.391 94.2081 172.391C94.1121 172.311 94.0801 172.263 94.1121 172.247C94.1441 172.215 94.1681 172.167 94.1841 172.103C94.3121 172.071 94.3281 171.983 94.2321 171.839C94.1841 171.711 94.2081 171.423 94.3041 170.975C94.4161 170.511 94.5601 170.079 94.7361 169.679C94.8161 169.503 94.9281 169.271 95.0721 168.983C95.2321 168.695 95.4081 168.407 95.6001 168.119C95.7921 167.815 95.9681 167.575 96.1281 167.399C96.4801 166.999 96.7921 166.671 97.0641 166.415C97.3521 166.159 97.6721 165.967 98.0241 165.839C98.3441 165.711 98.6641 165.655 98.9841 165.671C99.3201 165.687 99.6161 165.799 99.8721 166.007C100.256 166.119 100.6 166.295 100.904 166.535C101.208 166.759 101.416 167.079 101.528 167.495C101.656 167.959 101.696 168.511 101.648 169.151C101.616 169.775 101.344 170.583 100.832 171.575C100.528 172.199 100.224 172.703 99.9201 173.087C99.6321 173.471 99.2801 173.839 98.8641 174.191C98.5601 174.447 98.1681 174.671 97.6881 174.863C97.2081 175.055 96.7841 175.191 96.4161 175.271ZM98.5041 171.647C98.7121 171.359 98.8721 171.079 98.9841 170.807C99.1121 170.535 99.2321 170.159 99.3441 169.679C99.3921 169.503 99.4161 169.287 99.4161 169.031C99.4321 168.775 99.4241 168.543 99.3921 168.335C99.3761 168.111 99.3201 167.991 99.2241 167.975C99.0161 167.895 98.8001 167.895 98.5761 167.975C98.3681 168.039 98.1201 168.231 97.8321 168.551C97.5761 168.839 97.3681 169.111 97.2081 169.367C97.0641 169.607 96.9281 169.903 96.8001 170.255C96.6881 170.591 96.5601 171.031 96.4161 171.575C96.2881 172.103 96.2801 172.527 96.3921 172.847C96.5201 173.167 96.7601 173.255 97.1121 173.111C97.4641 172.967 97.9281 172.479 98.5041 171.647ZM105.879 175.199C105.655 175.135 105.431 175.023 105.207 174.863C104.983 174.703 104.751 174.519 104.511 174.311C104.319 174.055 104.183 173.823 104.103 173.615C104.023 173.391 103.975 173.135 103.959 172.847C103.959 172.543 103.959 172.159 103.959 171.695C103.959 171.503 103.991 171.231 104.055 170.879C104.135 170.527 104.215 170.159 104.295 169.775C104.391 169.391 104.479 169.055 104.559 168.767C104.639 168.463 104.687 168.263 104.703 168.167C104.751 167.959 104.671 167.839 104.463 167.807C104.255 167.775 104.023 167.767 103.767 167.783C103.527 167.783 103.367 167.759 103.287 167.711C103.223 167.695 103.191 167.615 103.191 167.471C103.191 167.311 103.191 167.231 103.191 167.231C103.191 167.167 103.159 167.127 103.095 167.111C103.031 167.079 102.975 167.023 102.927 166.943C102.895 166.879 102.935 166.759 103.047 166.583C103.159 166.407 103.303 166.303 103.479 166.271C103.623 166.239 103.839 166.215 104.127 166.199C104.415 166.167 104.703 166.111 104.991 166.031C105.295 165.935 105.527 165.791 105.687 165.599C105.831 165.247 105.991 164.871 106.167 164.471C106.343 164.055 106.511 163.695 106.671 163.391C106.831 163.071 106.943 162.871 107.007 162.791C107.279 162.647 107.559 162.591 107.847 162.623C108.135 162.639 108.359 162.775 108.519 163.031C108.599 163.143 108.663 163.223 108.711 163.271C108.775 163.319 108.799 163.391 108.783 163.487C108.783 163.583 108.719 163.759 108.591 164.015C108.479 164.255 108.287 164.631 108.015 165.143C107.935 165.303 107.863 165.447 107.799 165.575C107.735 165.687 107.703 165.743 107.703 165.743C107.767 165.759 107.863 165.767 107.991 165.767C108.119 165.767 108.279 165.759 108.471 165.743C108.647 165.711 108.839 165.687 109.047 165.671C109.255 165.639 109.439 165.639 109.599 165.671C109.967 165.671 110.239 165.775 110.415 165.983C110.591 166.191 110.687 166.455 110.703 166.775C110.735 166.951 110.671 167.103 110.511 167.231C110.351 167.359 110.055 167.423 109.623 167.423C109.479 167.423 109.271 167.431 108.999 167.447C108.727 167.463 108.447 167.479 108.159 167.495C107.871 167.511 107.623 167.535 107.415 167.567C107.223 167.583 107.127 167.607 107.127 167.639C107.079 167.671 106.999 167.799 106.887 168.023C106.791 168.231 106.687 168.487 106.575 168.791C106.479 169.095 106.391 169.383 106.311 169.655C106.199 170.199 106.119 170.727 106.071 171.239C106.023 171.751 106.015 172.199 106.047 172.583C106.095 172.951 106.191 173.215 106.335 173.375C106.479 173.519 106.695 173.519 106.983 173.375C107.287 173.215 107.567 173.031 107.823 172.823C108.111 172.583 108.359 172.511 108.567 172.607C108.775 172.687 108.903 172.863 108.951 173.135C109.015 173.391 108.943 173.671 108.735 173.975C108.543 174.279 108.271 174.535 107.919 174.743C107.567 174.951 107.207 175.095 106.839 175.175C106.471 175.271 106.151 175.279 105.879 175.199ZM111.281 174.551C111.217 174.423 111.073 174.295 110.849 174.167C110.641 174.039 110.537 173.943 110.537 173.879C110.537 173.815 110.497 173.719 110.417 173.591C110.353 173.447 110.289 173.343 110.225 173.279C110.145 173.183 110.169 172.951 110.297 172.583C110.425 172.199 110.617 171.735 110.873 171.191C111.129 170.647 111.409 170.095 111.713 169.535C111.841 169.407 111.969 169.239 112.097 169.031C112.225 168.823 112.321 168.687 112.385 168.623C112.385 168.559 112.409 168.503 112.457 168.455C112.505 168.391 112.561 168.359 112.625 168.359L112.817 167.975C112.849 167.911 112.945 167.783 113.105 167.591C113.281 167.399 113.489 167.191 113.729 166.967C113.969 166.727 114.209 166.503 114.449 166.295C114.705 166.087 114.913 165.935 115.073 165.839C115.409 165.615 115.753 165.511 116.105 165.527C116.473 165.543 116.785 165.655 117.041 165.863C117.089 165.911 117.193 166.007 117.353 166.151C117.529 166.295 117.721 166.455 117.929 166.631C118.153 166.807 118.345 166.967 118.505 167.111L119.393 167.903L118.985 169.103C118.777 169.743 118.721 170.303 118.817 170.783C118.913 171.263 119.065 171.679 119.273 172.031C119.353 172.207 119.457 172.343 119.585 172.439C119.729 172.535 119.913 172.599 120.137 172.631C120.265 172.647 120.385 172.695 120.497 172.775C120.609 172.855 120.665 172.983 120.665 173.159C120.665 173.543 120.593 173.823 120.449 173.999C120.321 174.159 120.177 174.255 120.017 174.287C119.489 174.351 118.985 174.295 118.505 174.119C118.025 173.943 117.593 173.487 117.209 172.751C117.145 172.655 117.057 172.479 116.945 172.223C116.849 171.951 116.793 171.775 116.777 171.695C116.713 171.775 116.625 171.879 116.513 172.007C116.417 172.119 116.321 172.223 116.225 172.319C115.089 173.471 114.113 174.223 113.297 174.575C112.497 174.911 111.825 174.903 111.281 174.551ZM112.601 172.559C112.713 172.575 112.889 172.519 113.129 172.391C113.369 172.247 113.689 172.015 114.089 171.695C114.633 171.231 115.081 170.847 115.433 170.543C115.785 170.239 116.129 169.847 116.465 169.367L116.993 168.503C116.833 168.135 116.689 167.895 116.561 167.783C116.433 167.671 116.305 167.615 116.177 167.615C115.969 167.615 115.721 167.751 115.433 168.023C115.145 168.279 114.817 168.663 114.449 169.175C114.097 169.671 113.697 170.295 113.249 171.047C113.041 171.399 112.881 171.743 112.769 172.079C112.657 172.399 112.601 172.559 112.601 172.559ZM124.224 175.151C123.76 175.231 123.296 175.191 122.832 175.031C122.384 174.871 122.008 174.615 121.704 174.263C121.416 173.895 121.272 173.455 121.272 172.943C121.224 172.463 121.264 171.895 121.392 171.239C121.536 170.567 121.744 169.895 122.016 169.223C122.304 168.551 122.632 167.983 123 167.519C123.32 167.135 123.64 166.783 123.96 166.463C124.28 166.143 124.568 165.927 124.824 165.815C125.048 165.719 125.32 165.647 125.64 165.599C125.976 165.535 126.208 165.503 126.336 165.503C126.592 165.567 126.872 165.671 127.176 165.815C127.496 165.959 127.656 166.127 127.656 166.319C127.656 166.319 127.672 166.343 127.704 166.391C127.752 166.423 127.776 166.439 127.776 166.439C127.872 166.439 127.976 166.559 128.088 166.799C128.216 167.023 128.312 167.287 128.376 167.591C128.44 167.879 128.424 168.111 128.328 168.287C128.264 168.591 128.136 168.887 127.944 169.175C127.768 169.463 127.616 169.607 127.488 169.607C127.424 169.607 127.36 169.615 127.296 169.631C127.248 169.631 127.224 169.671 127.224 169.751C127.224 169.831 127.136 169.871 126.96 169.871C126.8 169.871 126.632 169.839 126.456 169.775C126.28 169.711 126.168 169.615 126.12 169.487C126.12 169.407 126.136 169.303 126.168 169.175C126.2 169.047 126.248 168.831 126.312 168.527C126.408 168.079 126.416 167.783 126.336 167.639C126.256 167.479 126.056 167.463 125.736 167.591C125.336 167.815 125.008 168.079 124.752 168.383C124.496 168.671 124.264 169.079 124.056 169.607C123.864 170.135 123.648 170.871 123.408 171.815C123.312 172.183 123.296 172.471 123.36 172.679C123.44 172.887 123.504 172.999 123.552 173.015C123.776 173.079 124.016 173.095 124.272 173.063C124.544 173.015 124.768 172.943 124.944 172.847C125.2 172.719 125.424 172.583 125.616 172.439C125.824 172.279 126.048 172.111 126.288 171.935C126.368 171.887 126.44 171.799 126.504 171.671C126.568 171.527 126.664 171.423 126.792 171.359C126.92 171.167 127.08 171.071 127.272 171.071C127.48 171.055 127.68 171.047 127.872 171.047C128 171.079 128.136 171.159 128.28 171.287C128.424 171.415 128.528 171.543 128.592 171.671C128.672 171.783 128.664 171.863 128.568 171.911C128.504 171.911 128.464 171.935 128.448 171.983C128.448 172.015 128.448 172.031 128.448 172.031C128.48 172.095 128.408 172.239 128.232 172.463C128.072 172.687 127.864 172.927 127.608 173.183C127.352 173.439 127.104 173.663 126.864 173.855C126.64 174.031 126.48 174.119 126.384 174.119C126.224 174.119 126.144 174.167 126.144 174.263C126.144 174.295 126.024 174.375 125.784 174.503C125.56 174.631 125.296 174.759 124.992 174.887C124.704 175.015 124.448 175.103 124.224 175.151ZM123.648 179.687C123.408 179.735 123.088 179.719 122.688 179.639C122.288 179.575 121.912 179.495 121.56 179.399C121.224 179.303 121.008 179.239 120.912 179.207C120.72 179.143 120.576 179.015 120.48 178.823C120.384 178.647 120.344 178.463 120.36 178.271C120.376 178.079 120.464 177.927 120.624 177.815C120.784 177.719 121.04 177.719 121.392 177.815C121.648 177.879 121.92 177.959 122.208 178.055C122.512 178.167 122.784 178.223 123.024 178.223C123.264 178.223 123.44 178.111 123.552 177.887C123.664 177.711 123.656 177.527 123.528 177.335C123.4 177.159 123.248 176.975 123.072 176.783C122.96 176.639 122.848 176.511 122.736 176.399C122.64 176.303 122.504 176.175 122.328 176.015C122.2 175.839 122.12 175.631 122.088 175.391C122.072 175.167 122.2 174.911 122.472 174.623C122.744 174.335 123.264 173.999 124.032 173.615L125.376 174.335C124.976 174.527 124.648 174.711 124.392 174.887C124.152 175.063 124.032 175.255 124.032 175.463C124.256 175.783 124.504 176.087 124.776 176.375C125.048 176.679 125.224 176.991 125.304 177.311C125.4 177.695 125.368 178.055 125.208 178.391C125.064 178.727 124.848 179.007 124.56 179.231C124.272 179.471 123.968 179.623 123.648 179.687ZM131.483 174.887C131.275 174.887 131.107 174.847 130.979 174.767C130.867 174.687 130.723 174.575 130.547 174.431C130.243 174.111 129.995 173.767 129.803 173.399C129.627 173.031 129.563 172.711 129.611 172.439C129.659 172.311 129.675 172.191 129.659 172.079C129.659 171.951 129.659 171.887 129.659 171.887C129.579 171.807 129.555 171.759 129.587 171.743C129.619 171.711 129.651 171.663 129.683 171.599C129.779 171.599 129.811 171.511 129.779 171.335C129.747 171.207 129.795 170.935 129.923 170.519C130.067 170.087 130.259 169.679 130.499 169.295C130.595 169.135 130.739 168.927 130.931 168.671C131.123 168.399 131.331 168.135 131.555 167.879C131.795 167.607 132.011 167.391 132.203 167.231C132.603 166.895 132.971 166.623 133.307 166.415C133.659 166.207 134.011 166.063 134.363 165.983C134.715 165.903 135.075 165.863 135.443 165.863C135.827 165.863 136.139 165.991 136.379 166.247C136.747 166.407 137.003 166.623 137.147 166.895C137.307 167.167 137.411 167.519 137.459 167.951C137.507 168.431 137.459 169.023 137.315 169.727C137.171 170.415 136.779 171.215 136.139 172.127C135.739 172.703 135.347 173.151 134.963 173.471C134.579 173.791 134.155 174.087 133.691 174.359C133.355 174.583 132.995 174.719 132.611 174.767C132.227 174.815 131.851 174.855 131.483 174.887ZM133.931 171.959C134.283 171.655 134.531 171.319 134.675 170.951C134.835 170.583 135.003 170.151 135.179 169.655C135.243 169.559 135.283 169.399 135.299 169.175C135.331 168.951 135.339 168.735 135.323 168.527C135.307 168.303 135.251 168.175 135.155 168.143C135.011 168.031 134.867 168.007 134.723 168.071C134.579 168.119 134.395 168.223 134.171 168.383C133.691 168.783 133.243 169.247 132.827 169.775C132.427 170.287 132.147 170.919 131.987 171.671C131.939 172.071 131.979 172.375 132.107 172.583C132.251 172.775 132.475 172.831 132.779 172.751C133.099 172.655 133.483 172.391 133.931 171.959ZM136.859 165.071C136.539 165.071 136.275 165.015 136.067 164.903C135.875 164.775 135.627 164.607 135.323 164.399C135.179 164.319 134.987 164.159 134.747 163.919C134.507 163.679 134.291 163.559 134.099 163.559C133.939 163.559 133.803 163.623 133.691 163.751C133.595 163.879 133.499 164.015 133.403 164.159C133.307 164.287 133.171 164.367 132.995 164.399C132.979 164.479 132.931 164.583 132.851 164.711C132.771 164.823 132.715 164.839 132.683 164.759C132.443 164.727 132.259 164.631 132.131 164.471C132.019 164.295 131.963 164.111 131.963 163.919C131.963 163.775 132.083 163.495 132.323 163.079C132.579 162.647 132.979 162.295 133.523 162.023C133.715 161.943 133.979 161.911 134.315 161.927C134.667 161.943 134.971 162.071 135.227 162.311C135.595 162.647 135.907 162.895 136.163 163.055C136.435 163.199 136.723 163.207 137.027 163.079C137.267 163.015 137.531 162.903 137.819 162.743C138.123 162.567 138.443 162.415 138.779 162.287C138.891 162.239 139.003 162.271 139.115 162.383C139.227 162.479 139.315 162.607 139.379 162.767C139.443 162.927 139.467 163.055 139.451 163.151C139.451 163.215 139.411 163.351 139.331 163.559C139.267 163.751 139.083 163.927 138.779 164.087C138.299 164.359 137.931 164.567 137.675 164.711C137.419 164.855 137.235 164.951 137.123 164.999C137.011 165.047 136.923 165.071 136.859 165.071ZM143.04 174.575C142.56 174.847 142.048 175.007 141.504 175.055C140.976 175.087 140.48 175.015 140.016 174.839C139.552 174.647 139.176 174.367 138.888 173.999C138.728 173.791 138.576 173.463 138.432 173.015C138.288 172.551 138.264 171.927 138.36 171.143C138.456 170.407 138.68 169.663 139.032 168.911C139.4 168.159 139.848 167.495 140.376 166.919C140.904 166.343 141.48 165.951 142.104 165.743C142.328 165.663 142.552 165.607 142.776 165.575C143.016 165.527 143.328 165.519 143.712 165.551C144.08 165.599 144.408 165.695 144.696 165.839C144.984 165.967 145.192 166.111 145.32 166.271C145.576 166.527 145.744 166.775 145.824 167.015C145.904 167.255 145.936 167.487 145.92 167.711C145.84 168.223 145.608 168.775 145.224 169.367C144.856 169.959 144.336 170.399 143.664 170.687C143.392 170.799 143.072 170.871 142.704 170.903C142.336 170.935 141.832 170.887 141.192 170.759C140.808 170.679 140.552 170.719 140.424 170.879C140.312 171.039 140.264 171.351 140.28 171.815C140.312 172.103 140.376 172.359 140.472 172.583C140.584 172.791 140.784 172.935 141.072 173.015C141.44 173.079 141.704 173.087 141.864 173.039C142.024 172.975 142.224 172.887 142.464 172.775C142.592 172.695 142.712 172.607 142.824 172.511C142.952 172.415 143.072 172.319 143.184 172.223C143.312 172.127 143.416 172.055 143.496 172.007C143.576 171.943 143.656 171.903 143.736 171.887C143.816 171.871 143.896 171.863 143.976 171.863C144.152 171.879 144.32 171.975 144.48 172.151C144.64 172.327 144.744 172.495 144.792 172.655C144.792 172.783 144.712 172.967 144.552 173.207C144.392 173.431 144.176 173.671 143.904 173.927C143.648 174.167 143.36 174.383 143.04 174.575ZM142.728 169.223C142.84 169.175 143 169.063 143.208 168.887C143.432 168.711 143.632 168.527 143.808 168.335C143.984 168.127 144.072 167.967 144.072 167.855C144.072 167.679 143.952 167.527 143.712 167.399C143.488 167.271 143.192 167.247 142.824 167.327C142.696 167.359 142.544 167.447 142.368 167.591C142.192 167.735 142.016 167.903 141.84 168.095C141.664 168.271 141.512 168.447 141.384 168.623C141.256 168.783 141.168 168.911 141.12 169.007C141.184 169.087 141.312 169.151 141.504 169.199C141.696 169.247 141.904 169.271 142.128 169.271C142.368 169.271 142.568 169.255 142.728 169.223ZM147.695 175.199C147.151 174.975 146.751 174.743 146.495 174.503C146.255 174.247 146.159 174.023 146.207 173.831C146.239 173.735 146.295 173.647 146.375 173.567C146.455 173.487 146.631 173.455 146.903 173.471C147.191 173.471 147.631 173.543 148.223 173.687C148.399 173.687 148.575 173.679 148.751 173.663C148.927 173.647 149.087 173.623 149.231 173.591C149.391 173.559 149.519 173.519 149.615 173.471C149.695 173.439 149.719 173.399 149.687 173.351C149.655 173.287 149.599 173.223 149.519 173.159C149.455 173.079 149.383 173.031 149.303 173.015C149.223 172.983 149.151 172.967 149.087 172.967C149.055 172.887 148.983 172.807 148.871 172.727C148.775 172.647 148.655 172.559 148.511 172.463C148.159 172.175 147.839 171.919 147.551 171.695C147.263 171.471 147.151 171.303 147.215 171.191C147.215 171.127 147.215 171.095 147.215 171.095C147.215 171.079 147.215 171.071 147.215 171.071C147.103 171.071 146.999 170.919 146.903 170.615C146.807 170.295 146.759 170.007 146.759 169.751C146.759 169.431 146.823 169.111 146.951 168.791C147.095 168.471 147.271 168.167 147.479 167.879C147.703 167.591 147.927 167.335 148.151 167.111C148.455 166.823 148.775 166.543 149.111 166.271C149.463 165.983 149.839 165.727 150.239 165.503C150.655 165.279 151.111 165.103 151.607 164.975C151.831 164.927 152.087 164.903 152.375 164.903C152.663 164.903 152.871 164.943 152.999 165.023C153.127 164.943 153.287 164.967 153.479 165.095C153.671 165.207 153.863 165.367 154.055 165.575C154.247 165.783 154.391 165.991 154.487 166.199C154.487 166.391 154.479 166.631 154.463 166.919C154.463 167.191 154.447 167.431 154.415 167.639C154.383 167.847 154.311 167.951 154.199 167.951C154.199 167.951 154.175 167.959 154.127 167.975C154.095 167.975 154.079 168.015 154.079 168.095C154.079 168.255 153.959 168.439 153.719 168.647C153.415 168.855 153.127 169.023 152.855 169.151C152.583 169.279 152.375 169.287 152.231 169.175C152.135 169.111 152.047 169.047 151.967 168.983C151.887 168.919 151.815 168.839 151.751 168.743C151.751 168.743 151.727 168.711 151.679 168.647C151.647 168.567 151.631 168.495 151.631 168.431C151.631 168.367 151.655 168.311 151.703 168.263C151.751 168.199 151.775 168.167 151.775 168.167C151.999 167.959 152.167 167.767 152.279 167.591C152.407 167.415 152.495 167.263 152.543 167.135C152.591 166.991 152.615 166.879 152.615 166.799C152.615 166.703 152.591 166.647 152.543 166.631C152.511 166.599 152.431 166.583 152.303 166.583C152.223 166.583 152.047 166.647 151.775 166.775C151.519 166.903 151.247 167.063 150.959 167.255C150.671 167.431 150.447 167.591 150.287 167.735C150.223 167.847 150.175 167.919 150.143 167.951C150.127 167.983 150.087 167.999 150.023 167.999C150.023 167.935 149.983 167.943 149.903 168.023C149.823 168.103 149.727 168.215 149.615 168.359C149.503 168.503 149.391 168.655 149.279 168.815C149.167 168.975 149.079 169.103 149.015 169.199C148.999 169.343 148.959 169.479 148.895 169.607C148.847 169.719 148.831 169.839 148.847 169.967C148.863 170.127 148.943 170.279 149.087 170.423C149.231 170.567 149.439 170.751 149.711 170.975C150.271 171.391 150.687 171.719 150.959 171.959C151.247 172.199 151.447 172.391 151.559 172.535C151.671 172.679 151.743 172.823 151.775 172.967C152.047 173.463 152.079 173.895 151.871 174.263C151.663 174.615 151.343 174.887 150.911 175.079C150.751 175.159 150.471 175.231 150.071 175.295C149.671 175.375 149.247 175.407 148.799 175.391C148.367 175.391 147.999 175.327 147.695 175.199Z" fill="#A381EF"/>
</svg>
