<svg width="160" height="184" viewBox="0 0 160 184" fill="none" xmlns="http://www.w3.org/2000/svg">
<path d="M29.7409 30.5645C67.408 -9.65259 101.239 -10.7203 137.859 30.5645C174.48 71.8493 137.859 140.895 137.859 140.895H29.7409C29.7409 140.895 -7.92616 70.7816 29.7409 30.5645Z" fill="#F3EFFC" fill-opacity="0.4"/>
<path d="M118.954 129C118.679 129 118.408 128.928 118.169 128.792L72.822 103.155C72.4534 102.946 72.1827 102.599 72.0694 102.191C71.956 101.783 72.0092 101.346 72.2173 100.977L107.934 37.8021C108.037 37.6194 108.176 37.4588 108.341 37.3295C108.506 37.2002 108.695 37.1047 108.898 37.0486C109.1 36.9924 109.311 36.9767 109.52 37.0022C109.728 37.0277 109.929 37.0941 110.112 37.1974L155.459 62.8351C155.828 63.044 156.098 63.3906 156.212 63.7989C156.325 64.2072 156.272 64.6437 156.064 65.0128L120.347 128.188C120.244 128.371 120.106 128.532 119.941 128.661C119.775 128.79 119.586 128.886 119.383 128.941C119.243 128.98 119.099 129 118.954 129Z" fill="#E6E6E6"/>
<path d="M106.669 40.2772L106.487 40.5995L154.413 67.6949L154.595 67.3726L106.669 40.2772Z" fill="white"/>
<path d="M103.389 46.0789L103.207 46.4012L151.133 73.4967L151.315 73.1744L103.389 46.0789Z" fill="white"/>
<path d="M100.109 51.8807L99.9269 52.203L147.853 79.2984L148.035 78.9761L100.109 51.8807Z" fill="white"/>
<path d="M96.829 57.6825L96.6468 58.0048L144.572 85.1003L144.755 84.7779L96.829 57.6825Z" fill="white"/>
<path d="M93.5489 63.4842L93.3667 63.8065L141.292 90.902L141.475 90.5797L93.5489 63.4842Z" fill="white"/>
<path d="M90.2688 69.286L90.0865 69.6083L138.012 96.7037L138.194 96.3814L90.2688 69.286Z" fill="white"/>
<path d="M86.9887 75.0877L86.8065 75.41L134.732 102.505L134.914 102.183L86.9887 75.0877Z" fill="white"/>
<path d="M83.7086 80.8895L83.5263 81.2118L131.452 108.307L131.634 107.985L83.7086 80.8895Z" fill="white"/>
<path d="M80.4285 86.6912L80.2462 87.0135L128.172 114.109L128.354 113.787L80.4285 86.6912Z" fill="white"/>
<path d="M77.1484 92.493L76.9662 92.8153L124.892 119.911L125.074 119.588L77.1484 92.493Z" fill="white"/>
<path d="M73.8683 98.2948L73.686 98.6171L121.612 125.713L121.794 125.39L73.8683 98.2948Z" fill="white"/>
<path d="M114.735 119.391C114.46 119.391 114.19 119.32 113.951 119.184L68.6036 93.5462C68.235 93.3372 67.9643 92.9905 67.851 92.5822C67.7376 92.1739 67.7908 91.7374 67.9989 91.3683L103.716 28.1935C103.819 28.0107 103.957 27.8501 104.122 27.7208C104.288 27.5916 104.477 27.4961 104.679 27.44C104.881 27.3838 105.093 27.368 105.301 27.3936C105.509 27.4191 105.711 27.4855 105.893 27.5888L151.241 53.2265C151.609 53.4354 151.88 53.782 151.993 54.1903C152.107 54.5986 152.053 55.0351 151.845 55.4042L116.129 118.579C116.026 118.762 115.888 118.923 115.722 119.052C115.557 119.182 115.367 119.277 115.165 119.333C115.025 119.372 114.88 119.391 114.735 119.391Z" fill="#E1D8F6"/>
<path d="M102.451 30.6685L102.269 30.9908L150.194 58.0863L150.377 57.764L102.451 30.6685Z" fill="white"/>
<path d="M99.1708 36.4703L98.9885 36.7926L146.914 63.888L147.096 63.5657L99.1708 36.4703Z" fill="white"/>
<path d="M95.8907 42.272L95.7084 42.5944L143.634 69.6898L143.816 69.3675L95.8907 42.272Z" fill="white"/>
<path d="M92.6105 48.0738L92.4283 48.3961L140.354 75.4915L140.536 75.1692L92.6105 48.0738Z" fill="white"/>
<path d="M89.3304 53.8755L89.1482 54.1978L137.074 81.2933L137.256 80.971L89.3304 53.8755Z" fill="white"/>
<path d="M86.0504 59.6773L85.8681 59.9996L133.794 87.0951L133.976 86.7728L86.0504 59.6773Z" fill="white"/>
<path d="M82.7702 65.4791L82.588 65.8014L130.514 92.8969L130.696 92.5745L82.7702 65.4791Z" fill="white"/>
<path d="M79.4902 71.2808L79.3079 71.6031L127.234 98.6986L127.416 98.3763L79.4902 71.2808Z" fill="white"/>
<path d="M76.2101 77.0826L76.0278 77.4049L123.954 104.5L124.136 104.178L76.2101 77.0826Z" fill="white"/>
<path d="M72.9299 82.8844L72.7477 83.2067L120.673 110.302L120.856 109.98L72.9299 82.8844Z" fill="white"/>
<path d="M69.6498 88.6861L69.4676 89.0084L117.393 116.104L117.576 115.782L69.6498 88.6861Z" fill="white"/>
<path d="M110.216 27H37.7442V127.774H110.216C110.477 127.774 110.726 127.67 110.91 127.486C111.094 127.302 111.198 127.052 111.198 126.792V27.9816C111.198 27.7212 111.094 27.4716 110.91 27.2875C110.726 27.1034 110.477 27 110.216 27ZM41.8341 124.993C41.4782 124.993 41.1302 124.887 40.8343 124.689C40.5384 124.492 40.3077 124.211 40.1715 123.882C40.0353 123.553 39.9997 123.191 40.0691 122.842C40.1386 122.493 40.3099 122.172 40.5616 121.921C40.8133 121.669 41.1339 121.498 41.483 121.428C41.8321 121.359 42.1939 121.394 42.5227 121.531C42.8515 121.667 43.1326 121.897 43.3303 122.193C43.5281 122.489 43.6336 122.837 43.6336 123.193C43.6336 123.429 43.5871 123.663 43.4966 123.882C43.4062 124.1 43.2736 124.298 43.1065 124.466C42.9394 124.633 42.7411 124.765 42.5227 124.856C42.3044 124.946 42.0704 124.993 41.8341 124.993ZM41.8341 115.831C41.4782 115.831 41.1302 115.726 40.8343 115.528C40.5384 115.33 40.3077 115.049 40.1715 114.72C40.0353 114.392 39.9997 114.03 40.0691 113.681C40.1386 113.332 40.3099 113.011 40.5616 112.759C40.8133 112.508 41.1339 112.336 41.483 112.267C41.8321 112.197 42.1939 112.233 42.5227 112.369C42.8515 112.505 43.1326 112.736 43.3303 113.032C43.5281 113.328 43.6336 113.676 43.6336 114.032C43.6336 114.268 43.5871 114.502 43.4966 114.72C43.4062 114.939 43.2736 115.137 43.1065 115.304C42.9394 115.471 42.7411 115.604 42.5227 115.694C42.3044 115.785 42.0704 115.831 41.8341 115.831ZM41.8341 106.67C41.4782 106.67 41.1302 106.565 40.8343 106.367C40.5384 106.169 40.3077 105.888 40.1715 105.559C40.0353 105.23 39.9997 104.869 40.0691 104.52C40.1386 104.17 40.3099 103.85 40.5616 103.598C40.8133 103.346 41.1339 103.175 41.483 103.106C41.8321 103.036 42.1939 103.072 42.5227 103.208C42.8515 103.344 43.1326 103.575 43.3303 103.871C43.5281 104.167 43.6336 104.515 43.6336 104.871C43.6336 105.107 43.5871 105.341 43.4966 105.559C43.4062 105.778 43.2736 105.976 43.1065 106.143C42.9394 106.31 42.7411 106.443 42.5227 106.533C42.3044 106.624 42.0704 106.67 41.8341 106.67ZM41.8341 97.5089C41.4782 97.5089 41.1302 97.4033 40.8343 97.2056C40.5384 97.0079 40.3077 96.7268 40.1715 96.398C40.0353 96.0692 39.9997 95.7074 40.0691 95.3583C40.1386 95.0092 40.3099 94.6885 40.5616 94.4369C40.8133 94.1852 41.1339 94.0138 41.483 93.9444C41.8321 93.8749 42.1939 93.9106 42.5227 94.0468C42.8515 94.183 43.1326 94.4136 43.3303 94.7096C43.5281 95.0055 43.6336 95.3534 43.6336 95.7093C43.6336 95.9457 43.5871 96.1797 43.4966 96.398C43.4062 96.6163 43.2736 96.8147 43.1065 96.9818C42.9394 97.1489 42.7411 97.2814 42.5227 97.3719C42.3044 97.4623 42.0704 97.5089 41.8341 97.5089ZM41.8341 88.3476C41.4782 88.3476 41.1302 88.2421 40.8343 88.0443C40.5384 87.8466 40.3077 87.5656 40.1715 87.2367C40.0353 86.9079 39.9997 86.5461 40.0691 86.197C40.1386 85.8479 40.3099 85.5273 40.5616 85.2756C40.8133 85.024 41.1339 84.8526 41.483 84.7831C41.8321 84.7137 42.1939 84.7493 42.5227 84.8855C42.8515 85.0218 43.1326 85.2524 43.3303 85.5483C43.5281 85.8443 43.6336 86.1922 43.6336 86.5481C43.6336 86.7844 43.5871 87.0184 43.4966 87.2367C43.4062 87.4551 43.2736 87.6535 43.1065 87.8206C42.9394 87.9877 42.7411 88.1202 42.5227 88.2106C42.3044 88.3011 42.0704 88.3476 41.8341 88.3476ZM41.8341 79.1864C41.4782 79.1864 41.1302 79.0808 40.8343 78.8831C40.5384 78.6854 40.3077 78.4043 40.1715 78.0755C40.0353 77.7467 39.9997 77.3848 40.0691 77.0358C40.1386 76.6867 40.3099 76.3661 40.5616 76.1144C40.8133 75.8627 41.1339 75.6913 41.483 75.6219C41.8321 75.5525 42.1939 75.5881 42.5227 75.7243C42.8515 75.8605 43.1326 76.0911 43.3303 76.3871C43.5281 76.683 43.6336 77.0309 43.6336 77.3868C43.6336 77.6232 43.5871 77.8572 43.4966 78.0755C43.4062 78.2938 43.2736 78.4922 43.1065 78.6593C42.9394 78.8264 42.7411 78.959 42.5227 79.0494C42.3044 79.1398 42.0704 79.1864 41.8341 79.1864ZM41.8341 70.0251C41.4782 70.0251 41.1302 69.9196 40.8343 69.7219C40.5384 69.5241 40.3077 69.2431 40.1715 68.9143C40.0353 68.5854 39.9997 68.2236 40.0691 67.8745C40.1386 67.5255 40.3099 67.2048 40.5616 66.9531C40.8133 66.7015 41.1339 66.5301 41.483 66.4607C41.8321 66.3912 42.1939 66.4269 42.5227 66.5631C42.8515 66.6993 43.1326 66.9299 43.3303 67.2258C43.5281 67.5218 43.6336 67.8697 43.6336 68.2256C43.6336 68.4619 43.5871 68.6959 43.4966 68.9143C43.4062 69.1326 43.2736 69.331 43.1065 69.4981C42.9394 69.6652 42.7411 69.7977 42.5227 69.8882C42.3044 69.9786 42.0704 70.0251 41.8341 70.0251ZM41.8341 60.8639C41.4782 60.8639 41.1302 60.7584 40.8343 60.5606C40.5384 60.3629 40.3077 60.0818 40.1715 59.753C40.0353 59.4242 39.9997 59.0624 40.0691 58.7133C40.1386 58.3642 40.3099 58.0436 40.5616 57.7919C40.8133 57.5402 41.1339 57.3688 41.483 57.2994C41.8321 57.23 42.1939 57.2656 42.5227 57.4018C42.8515 57.538 43.1326 57.7687 43.3303 58.0646C43.5281 58.3605 43.6336 58.7084 43.6336 59.0644C43.6336 59.3007 43.5871 59.5347 43.4966 59.753C43.4062 59.9713 43.2736 60.1697 43.1065 60.3368C42.9394 60.5039 42.7411 60.6365 42.5227 60.7269C42.3044 60.8173 42.0704 60.8639 41.8341 60.8639ZM41.8341 51.7026C41.4782 51.7026 41.1302 51.5971 40.8343 51.3994C40.5384 51.2016 40.3077 50.9206 40.1715 50.5918C40.0353 50.2629 39.9997 49.9011 40.0691 49.552C40.1386 49.203 40.3099 48.8823 40.5616 48.6307C40.8133 48.379 41.1339 48.2076 41.483 48.1382C41.8321 48.0687 42.1939 48.1044 42.5227 48.2406C42.8515 48.3768 43.1326 48.6074 43.3303 48.9034C43.5281 49.1993 43.6336 49.5472 43.6336 49.9031C43.6336 50.1394 43.5871 50.3734 43.4966 50.5918C43.4062 50.8101 43.2736 51.0085 43.1065 51.1756C42.9394 51.3427 42.7411 51.4752 42.5227 51.5657C42.3044 51.6561 42.0704 51.7026 41.8341 51.7026ZM41.8341 42.5414C41.4782 42.5414 41.1302 42.4359 40.8343 42.2381C40.5384 42.0404 40.3077 41.7593 40.1715 41.4305C40.0353 41.1017 39.9997 40.7399 40.0691 40.3908C40.1386 40.0417 40.3099 39.7211 40.5616 39.4694C40.8133 39.2177 41.1339 39.0463 41.483 38.9769C41.8321 38.9075 42.1939 38.9431 42.5227 39.0793C42.8515 39.2155 43.1326 39.4462 43.3303 39.7421C43.5281 40.038 43.6336 40.386 43.6336 40.7419C43.6336 40.9782 43.5871 41.2122 43.4966 41.4305C43.4062 41.6488 43.2736 41.8472 43.1065 42.0143C42.9394 42.1814 42.7411 42.314 42.5227 42.4044C42.3044 42.4949 42.0704 42.5414 41.8341 42.5414ZM41.8341 33.3802C41.4782 33.3802 41.1302 33.2746 40.8343 33.0769C40.5384 32.8791 40.3077 32.5981 40.1715 32.2693C40.0353 31.9405 39.9997 31.5786 40.0691 31.2296C40.1386 30.8805 40.3099 30.5598 40.5616 30.3082C40.8133 30.0565 41.1339 29.8851 41.483 29.8157C41.8321 29.7462 42.1939 29.7819 42.5227 29.9181C42.8515 30.0543 43.1326 30.2849 43.3303 30.5809C43.5281 30.8768 43.6336 31.2247 43.6336 31.5806C43.6336 31.8169 43.5871 32.0509 43.4966 32.2693C43.4062 32.4876 43.2736 32.686 43.1065 32.8531C42.9394 33.0202 42.7411 33.1527 42.5227 33.2432C42.3044 33.3336 42.0704 33.3802 41.8341 33.3802Z" fill="#D2C0FB"/>
<path d="M37.7442 32.5622C37.2586 32.5622 33 32.5393 33 31.7442C33 30.9492 37.2586 30.9263 37.7442 30.9263V31.2535C35.2359 31.2535 33.6095 31.5342 33.3476 31.7442C33.6095 31.9542 35.2359 32.235 37.7442 32.235C40.2469 32.235 41.8716 31.9554 42.139 31.7457C42.0118 31.6558 41.492 31.4675 40.0976 31.3469L40.1258 31.021C42.4884 31.2252 42.4884 31.6023 42.4884 31.7442C42.4884 32.5393 38.2298 32.5622 37.7442 32.5622Z" fill="#B3B2C2"/>
<path d="M37.7442 41.5598C37.2586 41.5598 33 41.5369 33 40.7419C33 39.9468 37.2586 39.9239 37.7442 39.9239V40.2511C35.2359 40.2511 33.6095 40.5319 33.3476 40.7419C33.6095 40.9519 35.2359 41.2326 37.7442 41.2326C40.2469 41.2326 41.8716 40.9531 42.139 40.7433C42.0118 40.6534 41.492 40.4651 40.0976 40.3445L40.1258 40.0186C42.4884 40.2228 42.4884 40.5999 42.4884 40.7419C42.4884 41.5369 38.2298 41.5598 37.7442 41.5598Z" fill="#B3B2C2"/>
<path d="M37.7442 50.7211C37.2586 50.7211 33 50.6982 33 49.9031C33 49.1081 37.2586 49.0851 37.7442 49.0851V49.4123C35.2359 49.4123 33.6095 49.6931 33.3476 49.9031C33.6095 50.1131 35.2359 50.3939 37.7442 50.3939C40.2469 50.3939 41.8716 50.1143 42.139 49.9046C42.0118 49.8147 41.492 49.6263 40.0976 49.5058L40.1258 49.1799C42.4884 49.3841 42.4884 49.7612 42.4884 49.9031C42.4884 50.6982 38.2298 50.7211 37.7442 50.7211Z" fill="#B3B2C2"/>
<path d="M37.7442 59.8823C37.2586 59.8823 33 59.8594 33 59.0643C33 58.2693 37.2586 58.2464 37.7442 58.2464V58.5736C35.2359 58.5736 33.6095 58.8543 33.3476 59.0643C33.6095 59.2743 35.2359 59.5551 37.7442 59.5551C40.2469 59.5551 41.8716 59.2755 42.139 59.0658C42.0118 58.9759 41.492 58.7876 40.0976 58.667L40.1258 58.3411C42.4884 58.5453 42.4884 58.9224 42.4884 59.0643C42.4884 59.8594 38.2298 59.8823 37.7442 59.8823Z" fill="#B3B2C2"/>
<path d="M37.7442 69.0436C37.2586 69.0436 33 69.0207 33 68.2256C33 67.4306 37.2586 67.4077 37.7442 67.4077V67.7348C35.2359 67.7348 33.6095 68.0156 33.3476 68.2256C33.6095 68.4356 35.2359 68.7164 37.7442 68.7164C40.2469 68.7164 41.8716 68.4368 42.139 68.2271C42.0118 68.1372 41.492 67.9488 40.0976 67.8283L40.1258 67.5024C42.4884 67.7066 42.4884 68.0837 42.4884 68.2256C42.4884 69.0207 38.2298 69.0436 37.7442 69.0436Z" fill="#B3B2C2"/>
<path d="M37.7442 78.2048C37.2586 78.2048 33 78.1819 33 77.3868C33 76.5918 37.2586 76.5689 37.7442 76.5689V76.8961C35.2359 76.8961 33.6095 77.1768 33.3476 77.3868C33.6095 77.5969 35.2359 77.8776 37.7442 77.8776C40.2469 77.8776 41.8716 77.598 42.139 77.3883C42.0118 77.2984 41.492 77.1101 40.0976 76.9895L40.1258 76.6636C42.4884 76.8678 42.4884 77.2449 42.4884 77.3868C42.4884 78.1819 38.2298 78.2048 37.7442 78.2048Z" fill="#B3B2C2"/>
<path d="M37.7442 87.3661C37.2586 87.3661 33 87.3431 33 86.5481C33 85.7531 37.2586 85.7301 37.7442 85.7301V86.0573C35.2359 86.0573 33.6095 86.3381 33.3476 86.5481C33.6095 86.7581 35.2359 87.0389 37.7442 87.0389C40.2469 87.0389 41.8716 86.7593 42.139 86.5495C42.0118 86.4597 41.492 86.2713 40.0976 86.1508L40.1258 85.8249C42.4884 86.029 42.4884 86.4062 42.4884 86.5481C42.4884 87.3431 38.2298 87.3661 37.7442 87.3661Z" fill="#B3B2C2"/>
<path d="M37.7442 96.5273C37.2586 96.5273 33 96.5044 33 95.7093C33 94.9143 37.2586 94.8914 37.7442 94.8914V95.2186C35.2359 95.2186 33.6095 95.4993 33.3476 95.7093C33.6095 95.9193 35.2359 96.2001 37.7442 96.2001C40.2469 96.2001 41.8716 95.9205 42.139 95.7108C42.0118 95.6209 41.492 95.4326 40.0976 95.312L40.1258 94.9861C42.4884 95.1903 42.4884 95.5674 42.4884 95.7093C42.4884 96.5044 38.2298 96.5273 37.7442 96.5273Z" fill="#B3B2C2"/>
<path d="M37.7442 105.689C37.2586 105.689 33 105.666 33 104.871C33 104.076 37.2586 104.053 37.7442 104.053V104.38C35.2359 104.38 33.6095 104.661 33.3476 104.871C33.6095 105.081 35.2359 105.361 37.7442 105.361C40.2469 105.361 41.8716 105.082 42.139 104.872C42.0118 104.782 41.492 104.594 40.0976 104.473L40.1258 104.147C42.4884 104.352 42.4884 104.729 42.4884 104.871C42.4884 105.666 38.2298 105.689 37.7442 105.689Z" fill="#B3B2C2"/>
<path d="M37.7442 114.85C37.2586 114.85 33 114.827 33 114.032C33 113.237 37.2586 113.214 37.7442 113.214V113.541C35.2359 113.541 33.6095 113.822 33.3476 114.032C33.6095 114.242 35.2359 114.523 37.7442 114.523C40.2469 114.523 41.8716 114.243 42.139 114.033C42.0118 113.943 41.492 113.755 40.0976 113.635L40.1258 113.309C42.4884 113.513 42.4884 113.89 42.4884 114.032C42.4884 114.827 38.2298 114.85 37.7442 114.85Z" fill="#B3B2C2"/>
<path d="M95.411 65.5263H59.4204C59.1385 65.526 58.8682 65.4139 58.6688 65.2145C58.4695 65.0152 58.3573 64.7449 58.357 64.463V50.3939C58.3573 50.112 58.4695 49.8417 58.6688 49.6423C58.8682 49.443 59.1385 49.3309 59.4204 49.3305H95.411C95.6929 49.3309 95.9632 49.443 96.1625 49.6423C96.3619 49.8417 96.474 50.112 96.4744 50.3939V64.463C96.474 64.7449 96.3619 65.0152 96.1625 65.2145C95.9632 65.4139 95.6929 65.526 95.411 65.5263Z" fill="white"/>
<path d="M81.9963 54.1566H72.8351C72.6181 54.1566 72.4101 54.0704 72.2567 53.917C72.1033 53.7636 72.0171 53.5555 72.0171 53.3386C72.0171 53.1217 72.1033 52.9136 72.2567 52.7602C72.4101 52.6068 72.6181 52.5206 72.8351 52.5206H81.9963C82.2132 52.5206 82.4213 52.6068 82.5747 52.7602C82.7281 52.9136 82.8143 53.1217 82.8143 53.3386C82.8143 53.5555 82.7281 53.7636 82.5747 53.917C82.4213 54.0704 82.2132 54.1566 81.9963 54.1566Z" fill="#6C63FF"/>
<path d="M87.0677 58.2464H67.7636C67.5467 58.2464 67.3387 58.1602 67.1853 58.0068C67.0319 57.8534 66.9457 57.6454 66.9457 57.4284C66.9457 57.2115 67.0319 57.0035 67.1853 56.8501C67.3387 56.6967 67.5467 56.6105 67.7636 56.6105H87.0677C87.2846 56.6105 87.4927 56.6967 87.6461 56.8501C87.7995 57.0035 87.8857 57.2115 87.8857 57.4284C87.8857 57.6454 87.7995 57.8534 87.6461 58.0068C87.4927 58.1602 87.2846 58.2464 87.0677 58.2464Z" fill="#6C63FF"/>
<path d="M87.0677 62.3362H67.7636C67.5467 62.3362 67.3387 62.2501 67.1853 62.0967C67.0319 61.9433 66.9457 61.7352 66.9457 61.5183C66.9457 61.3013 67.0319 61.0933 67.1853 60.9399C67.3387 60.7865 67.5467 60.7003 67.7636 60.7003H87.0677C87.2846 60.7003 87.4927 60.7865 87.6461 60.9399C87.7995 61.0933 87.8857 61.3013 87.8857 61.5183C87.8857 61.7352 87.7995 61.9433 87.6461 62.0967C87.4927 62.2501 87.2846 62.3362 87.0677 62.3362Z" fill="#6C63FF"/>
<path d="M36.929 176.639C36.689 176.543 36.409 176.407 36.089 176.231C35.769 176.071 35.465 175.855 35.177 175.583C34.889 175.311 34.665 174.983 34.505 174.599C34.345 174.135 34.233 173.679 34.169 173.231C34.121 172.783 34.105 172.263 34.121 171.671C34.121 170.839 34.177 170.119 34.289 169.511C34.417 168.887 34.609 168.255 34.865 167.615C34.897 167.567 34.953 167.431 35.033 167.207C35.129 166.967 35.233 166.711 35.345 166.439C35.473 166.167 35.569 165.959 35.633 165.815C35.761 165.543 35.953 165.183 36.209 164.735C36.481 164.271 36.769 163.823 37.073 163.391C37.537 162.703 37.929 162.143 38.249 161.711C38.569 161.263 38.873 160.887 39.161 160.583C39.465 160.279 39.793 159.983 40.145 159.695C40.513 159.407 40.969 159.079 41.513 158.711C41.865 158.455 42.313 158.295 42.857 158.231C43.417 158.167 43.961 158.255 44.489 158.495C45.017 158.719 45.409 159.151 45.665 159.791C45.841 160.127 45.921 160.551 45.905 161.063C45.889 161.559 45.793 162.095 45.617 162.671C45.441 163.231 45.217 163.759 44.945 164.255C44.673 164.751 44.369 165.151 44.033 165.455C43.825 165.647 43.545 165.679 43.193 165.551C42.857 165.423 42.577 165.255 42.353 165.047C42.209 164.775 42.129 164.615 42.113 164.567C42.113 164.519 42.145 164.487 42.209 164.471C42.305 164.359 42.433 164.167 42.593 163.895C42.753 163.623 42.913 163.335 43.073 163.031C43.233 162.711 43.345 162.455 43.409 162.263C43.537 161.591 43.625 161.151 43.673 160.943C43.721 160.719 43.673 160.535 43.529 160.391C43.465 160.327 43.369 160.303 43.241 160.319C43.129 160.335 42.937 160.415 42.665 160.559C42.297 160.719 41.857 161.047 41.345 161.543C40.849 162.023 40.353 162.599 39.857 163.271C39.217 164.119 38.681 164.871 38.249 165.527C37.817 166.183 37.489 166.855 37.265 167.543C37.233 167.607 37.177 167.727 37.097 167.903C37.033 168.079 37.001 168.167 37.001 168.167C37.017 168.231 36.993 168.391 36.929 168.647C36.865 168.887 36.793 169.095 36.713 169.271C36.537 170.007 36.433 170.719 36.401 171.407C36.369 172.079 36.409 172.671 36.521 173.183C36.649 173.679 36.833 174.047 37.073 174.287C37.281 174.431 37.545 174.479 37.865 174.431C38.185 174.383 38.553 174.271 38.969 174.095C39.385 173.919 39.833 173.727 40.313 173.519C40.697 173.359 41.049 173.183 41.369 172.991C41.689 172.799 41.929 172.631 42.089 172.487C42.217 172.391 42.377 172.295 42.569 172.199C42.777 172.087 42.953 172.031 43.097 172.031C43.321 171.951 43.489 172.015 43.601 172.223C43.713 172.431 43.769 172.695 43.769 173.015C43.769 173.239 43.609 173.511 43.289 173.831C42.969 174.151 42.617 174.423 42.233 174.647C42.105 174.775 41.929 174.895 41.705 175.007C41.497 175.103 41.281 175.191 41.057 175.271C40.721 175.527 40.305 175.775 39.809 176.015C39.313 176.255 38.809 176.439 38.297 176.567C37.801 176.695 37.345 176.719 36.929 176.639ZM45.9185 174.407C45.7745 174.295 45.6145 174.151 45.4385 173.975C45.2785 173.799 45.2225 173.551 45.2705 173.231C45.3185 172.783 45.3825 172.391 45.4625 172.055C45.5425 171.703 45.6385 171.303 45.7505 170.855C45.7825 170.663 45.8625 170.335 45.9905 169.871C46.1345 169.407 46.3025 168.903 46.4945 168.359C46.6865 167.815 46.8865 167.303 47.0945 166.823C47.3025 166.327 47.4865 165.959 47.6465 165.719C47.8225 165.559 48.0785 165.479 48.4145 165.479C48.7665 165.479 49.0065 165.543 49.1345 165.671C49.3105 165.815 49.3665 166.071 49.3025 166.439C49.2385 166.791 49.0145 167.343 48.6305 168.095C48.5505 168.287 48.4465 168.495 48.3185 168.719C48.2065 168.927 48.1265 169.103 48.0785 169.247C48.0305 169.375 48.0465 169.431 48.1265 169.415C48.2225 169.239 48.3985 169.039 48.6545 168.815C48.9105 168.575 49.1825 168.343 49.4705 168.119C49.7585 167.895 50.0305 167.695 50.2865 167.519C50.5425 167.343 50.7185 167.231 50.8145 167.183C50.9425 167.103 51.0865 167.039 51.2465 166.991C51.4225 166.927 51.5425 166.879 51.6065 166.847C51.9745 166.671 52.3745 166.607 52.8065 166.655C53.2545 166.687 53.5265 166.823 53.6225 167.063C53.6385 167.191 53.6865 167.287 53.7665 167.351C53.8625 167.415 53.9105 167.447 53.9105 167.447C53.9745 167.447 54.0065 167.471 54.0065 167.519C54.0225 167.567 54.0305 167.591 54.0305 167.591C54.0305 167.703 53.9185 167.863 53.6945 168.071C53.4865 168.279 53.2545 168.391 52.9985 168.407C52.7905 168.423 52.6065 168.463 52.4465 168.527C52.2865 168.591 52.0945 168.671 51.8705 168.767C51.2625 169.119 50.7105 169.431 50.2145 169.703C49.7345 169.975 49.2385 170.391 48.7265 170.951C48.6145 171.079 48.4945 171.199 48.3665 171.311C48.2385 171.423 48.1105 171.583 47.9825 171.791C47.9025 171.871 47.8225 172.047 47.7425 172.319C47.6625 172.591 47.5905 172.855 47.5265 173.111C47.4785 173.351 47.4545 173.495 47.4545 173.543C47.4545 173.543 47.4305 173.623 47.3825 173.783C47.3345 173.927 47.2545 174.071 47.1425 174.215C46.9505 174.471 46.7585 174.631 46.5665 174.695C46.3905 174.759 46.1745 174.663 45.9185 174.407ZM54.3001 174.647C54.1721 174.519 54.0761 174.327 54.0121 174.071C53.9641 173.815 53.9481 173.567 53.9641 173.327C53.9801 173.071 54.0201 172.879 54.0841 172.751C54.0841 172.623 54.1001 172.527 54.1321 172.463C54.1801 172.383 54.1961 172.311 54.1801 172.247C54.1641 172.183 54.1801 172.071 54.2281 171.911C54.2761 171.751 54.3241 171.599 54.3721 171.455C54.4841 171.199 54.6121 170.871 54.7561 170.471C54.9001 170.055 55.0441 169.639 55.1881 169.223C55.3321 168.791 55.4521 168.423 55.5481 168.119C55.6441 167.799 55.7001 167.607 55.7161 167.543C55.7161 167.351 55.8441 167.247 56.1001 167.231C56.2921 167.167 56.5241 167.247 56.7961 167.471C57.0681 167.695 57.2841 167.935 57.4441 168.191C57.5721 168.319 57.6201 168.487 57.5881 168.695C57.5561 168.903 57.4521 169.199 57.2761 169.583C57.2121 169.711 57.1321 169.927 57.0361 170.231C56.9561 170.519 56.9001 170.759 56.8681 170.951C56.8041 171.079 56.7241 171.263 56.6281 171.503C56.5481 171.727 56.4761 171.943 56.4121 172.151C56.3801 172.231 56.3481 172.383 56.3161 172.607C56.2841 172.815 56.2441 173.031 56.1961 173.255C56.1481 173.479 56.0841 173.655 56.0041 173.783C55.8601 174.439 55.6041 174.823 55.2361 174.935C54.8841 175.047 54.5721 174.951 54.3001 174.647ZM56.8921 165.023C56.7161 164.895 56.5801 164.743 56.4841 164.567C56.4041 164.375 56.3561 164.207 56.3401 164.063C56.3401 163.919 56.3561 163.831 56.3881 163.799C56.5481 163.623 56.6841 163.391 56.7961 163.103C56.9241 162.815 57.0601 162.551 57.2041 162.311C57.2361 162.263 57.2761 162.199 57.3241 162.119C57.3881 162.023 57.4521 161.967 57.5161 161.951C57.7081 161.823 57.9721 161.831 58.3081 161.975C58.6601 162.119 58.9161 162.319 59.0761 162.575C59.2201 162.879 59.2601 163.191 59.1961 163.511C59.1481 163.831 58.9801 164.167 58.6921 164.519C58.4521 164.839 58.1481 165.047 57.7801 165.143C57.4121 165.223 57.1161 165.183 56.8921 165.023ZM61.0751 174.719C60.9471 174.751 60.7791 174.767 60.5711 174.767C60.3631 174.751 60.1791 174.727 60.0191 174.695C59.8751 174.647 59.8031 174.599 59.8031 174.551C59.8031 174.471 59.7631 174.431 59.6831 174.431C59.6831 174.431 59.5951 174.367 59.4191 174.239C59.2431 174.095 59.0831 173.991 58.9391 173.927C58.7951 173.703 58.6991 173.447 58.6511 173.159C58.6191 172.855 58.7151 172.327 58.9391 171.575C58.9551 171.063 59.0991 170.527 59.3711 169.967C59.6431 169.391 59.9871 168.831 60.4031 168.287C60.8191 167.743 61.2511 167.263 61.6991 166.847C62.1471 166.415 62.5471 166.095 62.8991 165.887C63.1231 165.663 63.4191 165.543 63.7871 165.527C64.1711 165.511 64.5071 165.583 64.7951 165.743C64.9551 165.823 65.1311 165.983 65.3231 166.223C65.5151 166.463 65.6991 166.719 65.8751 166.991C66.0511 167.247 66.1871 167.479 66.2831 167.687C66.3311 167.863 66.3711 168.023 66.4031 168.167C66.4511 168.295 66.4831 168.455 66.4991 168.647C66.5151 168.839 66.4991 169.127 66.4511 169.511C66.3711 169.799 66.2991 170.095 66.2351 170.399C66.1871 170.687 66.1631 170.983 66.1631 171.287C66.1311 171.591 66.1631 171.807 66.2591 171.935C66.3711 172.063 66.5311 172.071 66.7391 171.959C66.9311 171.863 67.1311 171.855 67.3391 171.935C67.5471 171.999 67.6911 172.127 67.7711 172.319C67.8671 172.495 67.8431 172.727 67.6991 173.015C67.6031 173.223 67.4511 173.423 67.2431 173.615C67.0351 173.807 66.8031 173.967 66.5471 174.095C66.2911 174.207 66.0431 174.263 65.8031 174.263C65.6271 174.263 65.4511 174.199 65.2751 174.071C65.0991 173.927 64.9391 173.735 64.7951 173.495C64.6511 173.255 64.5311 172.991 64.4351 172.703L64.2911 172.151L63.4271 172.943C63.2191 173.167 63.0111 173.375 62.8031 173.567C62.6111 173.743 62.4911 173.871 62.4431 173.951C62.3631 174.095 62.2031 174.223 61.9631 174.335C61.7391 174.447 61.4431 174.575 61.0751 174.719ZM61.7231 172.415C61.9951 172.255 62.2271 172.063 62.4191 171.839C62.6271 171.615 62.8271 171.367 63.0191 171.095C63.2111 170.807 63.4191 170.503 63.6431 170.183C63.9151 169.815 64.1071 169.519 64.2191 169.295C64.3471 169.071 64.4431 168.831 64.5071 168.575C64.4431 168.399 64.3551 168.215 64.2431 168.023C64.1311 167.815 64.0191 167.703 63.9071 167.687C63.6831 167.687 63.4111 167.823 63.0911 168.095C62.7871 168.367 62.4511 168.759 62.0831 169.271C62.0191 169.351 61.9391 169.479 61.8431 169.655C61.7471 169.831 61.6511 169.999 61.5551 170.159C61.4751 170.303 61.4191 170.399 61.3871 170.447C61.3391 170.511 61.2671 170.663 61.1711 170.903C61.0911 171.127 61.0191 171.359 60.9551 171.599C60.8911 171.823 60.8591 171.983 60.8591 172.079C60.8591 172.175 60.8671 172.279 60.8831 172.391C60.9151 172.503 60.9951 172.575 61.1231 172.607C61.2511 172.639 61.4511 172.575 61.7231 172.415ZM70.7028 174.551C70.6548 174.567 70.5508 174.559 70.3908 174.527C70.2468 174.495 70.0948 174.455 69.9348 174.407C69.7908 174.359 69.7028 174.319 69.6708 174.287C69.6068 174.223 69.5188 174.111 69.4068 173.951C69.2948 173.775 69.2308 173.543 69.2148 173.255C69.2148 172.967 69.3508 172.623 69.6228 172.223C69.7028 172.063 69.7988 171.823 69.9108 171.503C70.0228 171.183 70.1348 170.847 70.2468 170.495C70.3748 170.127 70.4868 169.799 70.5828 169.511C70.6948 169.223 70.7748 169.023 70.8228 168.911C70.8548 168.639 70.8388 168.447 70.7748 168.335C70.7268 168.207 70.5908 168.135 70.3668 168.119C70.2068 168.119 70.0788 168.063 69.9828 167.951C69.9028 167.839 69.8628 167.639 69.8628 167.351C69.8948 167.127 69.9508 166.935 70.0308 166.775C70.1268 166.599 70.2548 166.455 70.4148 166.343C70.5748 166.263 70.7748 166.207 71.0148 166.175C71.2708 166.143 71.5188 166.135 71.7588 166.151C71.9988 166.167 72.1668 166.223 72.2628 166.319C72.3748 166.383 72.4628 166.527 72.5268 166.751C72.6068 166.959 72.6708 167.175 72.7188 167.399C72.7668 167.623 72.7988 167.791 72.8148 167.903C72.9748 167.775 73.1508 167.599 73.3428 167.375C73.5508 167.135 73.7588 166.911 73.9668 166.703C74.2228 166.527 74.5268 166.351 74.8788 166.175C75.2308 165.983 75.4868 165.887 75.6468 165.887C75.8228 165.887 76.0388 165.975 76.2948 166.151C76.5508 166.311 76.7108 166.455 76.7748 166.583C76.9348 166.855 77.0468 167.143 77.1108 167.447C77.1908 167.735 77.1428 167.991 76.9668 168.215C76.8068 168.423 76.5828 168.631 76.2948 168.839C76.0068 169.031 75.6468 169.087 75.2148 169.007C75.1188 168.975 75.0148 168.855 74.9028 168.647C74.8068 168.439 74.7508 168.287 74.7348 168.191C74.7348 168.143 74.6628 168.191 74.5188 168.335C74.3908 168.463 74.2308 168.623 74.0388 168.815C73.8628 169.007 73.6948 169.183 73.5348 169.343C73.2628 169.679 72.9748 170.135 72.6708 170.711C72.3668 171.287 72.0068 171.983 71.5908 172.799C71.3988 173.199 71.2388 173.583 71.1108 173.951C70.9828 174.303 70.8468 174.503 70.7028 174.551ZM86.7958 174.839C86.5878 174.935 86.3478 174.975 86.0758 174.959C85.8038 174.943 85.4358 174.855 84.9718 174.695C84.9398 174.695 84.8278 174.623 84.6358 174.479C84.4438 174.335 84.2518 174.167 84.0598 173.975C83.8678 173.783 83.7398 173.623 83.6758 173.495C83.4198 173.127 83.3398 172.583 83.4358 171.863C83.5478 171.143 83.8038 170.279 84.2038 169.271C84.3158 169.031 84.4838 168.727 84.7078 168.359C84.9478 167.991 85.1798 167.655 85.4038 167.351C85.6438 167.031 85.8118 166.847 85.9078 166.799C85.9078 166.799 85.9958 166.767 86.1718 166.703C86.3478 166.639 86.5718 166.535 86.8438 166.391C86.9238 166.359 87.0598 166.319 87.2518 166.271C87.4598 166.223 87.6678 166.183 87.8758 166.151C88.0998 166.103 88.2518 166.087 88.3318 166.103C88.6518 166.119 88.9798 166.239 89.3158 166.463C89.6678 166.671 89.9558 166.919 90.1798 167.207C90.4038 167.479 90.4758 167.719 90.3958 167.927C90.3958 167.959 90.3478 168.063 90.2518 168.239C90.1718 168.399 90.0838 168.567 89.9878 168.743C89.8918 168.903 89.8118 169.023 89.7478 169.103C89.6678 169.199 89.5238 169.239 89.3158 169.223C89.1238 169.207 88.9478 169.143 88.7878 169.031C88.6278 168.919 88.5398 168.767 88.5238 168.575C88.4918 168.447 88.3718 168.327 88.1638 168.215C87.9718 168.103 87.8758 168.047 87.8758 168.047C87.7478 168.047 87.5798 168.175 87.3718 168.431C87.1638 168.687 86.9478 168.975 86.7238 169.295C86.4358 169.583 86.2278 169.895 86.0998 170.231C85.9878 170.551 85.9078 170.855 85.8598 171.143C85.8278 171.415 85.7878 171.623 85.7398 171.767C85.6758 171.927 85.6758 172.127 85.7398 172.367C85.8038 172.607 85.8838 172.743 85.9798 172.775C86.1238 172.791 86.3158 172.783 86.5558 172.751C86.8118 172.703 87.0758 172.647 87.3478 172.583C87.6358 172.503 87.9238 172.423 88.2118 172.343C88.4998 172.247 88.7558 172.151 88.9798 172.055C89.2838 171.863 89.5478 171.791 89.7718 171.839C89.9958 171.871 90.1638 171.903 90.2758 171.935C90.4518 171.999 90.5398 172.135 90.5398 172.343C90.5398 172.551 90.4678 172.775 90.3238 173.015C90.1798 173.239 89.9718 173.423 89.6998 173.567C89.4438 173.695 89.2118 173.839 89.0038 173.999C88.8118 174.143 88.7158 174.255 88.7158 174.335C88.6518 174.335 88.5798 174.359 88.4998 174.407C88.4358 174.439 88.3798 174.447 88.3318 174.431C88.2998 174.431 88.1718 174.455 87.9478 174.503C87.7238 174.551 87.4918 174.607 87.2518 174.671C87.0278 174.735 86.8758 174.791 86.7958 174.839ZM94.7598 175.271C94.5518 175.287 94.3838 175.263 94.2558 175.199C94.1278 175.151 93.9678 175.071 93.7758 174.959C93.4238 174.687 93.1278 174.351 92.8878 173.951C92.6638 173.551 92.5598 173.215 92.5758 172.943C92.6078 172.799 92.6078 172.671 92.5758 172.559C92.5598 172.447 92.5518 172.391 92.5518 172.391C92.4558 172.311 92.4238 172.263 92.4558 172.247C92.4878 172.215 92.5118 172.167 92.5278 172.103C92.6558 172.071 92.6718 171.983 92.5758 171.839C92.5278 171.711 92.5518 171.423 92.6478 170.975C92.7598 170.511 92.9038 170.079 93.0798 169.679C93.1598 169.503 93.2718 169.271 93.4158 168.983C93.5758 168.695 93.7518 168.407 93.9438 168.119C94.1358 167.815 94.3118 167.575 94.4718 167.399C94.8238 166.999 95.1358 166.671 95.4078 166.415C95.6958 166.159 96.0158 165.967 96.3678 165.839C96.6878 165.711 97.0078 165.655 97.3278 165.671C97.6638 165.687 97.9598 165.799 98.2158 166.007C98.5998 166.119 98.9438 166.295 99.2478 166.535C99.5518 166.759 99.7598 167.079 99.8718 167.495C99.9998 167.959 100.04 168.511 99.9918 169.151C99.9598 169.775 99.6878 170.583 99.1758 171.575C98.8718 172.199 98.5678 172.703 98.2638 173.087C97.9758 173.471 97.6238 173.839 97.2078 174.191C96.9038 174.447 96.5118 174.671 96.0318 174.863C95.5518 175.055 95.1278 175.191 94.7598 175.271ZM96.8478 171.647C97.0558 171.359 97.2158 171.079 97.3278 170.807C97.4558 170.535 97.5758 170.159 97.6878 169.679C97.7358 169.503 97.7598 169.287 97.7598 169.031C97.7758 168.775 97.7678 168.543 97.7358 168.335C97.7198 168.111 97.6638 167.991 97.5678 167.975C97.3598 167.895 97.1438 167.895 96.9198 167.975C96.7118 168.039 96.4638 168.231 96.1758 168.551C95.9198 168.839 95.7118 169.111 95.5518 169.367C95.4078 169.607 95.2718 169.903 95.1438 170.255C95.0318 170.591 94.9038 171.031 94.7598 171.575C94.6318 172.103 94.6238 172.527 94.7358 172.847C94.8638 173.167 95.1038 173.255 95.4558 173.111C95.8078 172.967 96.2718 172.479 96.8478 171.647ZM109.335 174.479C108.983 174.447 108.687 174.375 108.447 174.263C108.223 174.135 108.039 173.887 107.895 173.519C107.831 173.263 107.799 172.999 107.799 172.727C107.815 172.439 107.839 172.167 107.871 171.911C107.903 171.639 107.919 171.407 107.919 171.215C107.919 171.183 107.919 171.119 107.919 171.023C107.919 170.927 107.919 170.839 107.919 170.759C107.887 170.519 107.823 170.375 107.727 170.327C107.647 170.263 107.503 170.271 107.295 170.351C106.959 170.511 106.591 170.727 106.191 170.999C105.807 171.255 105.399 171.559 104.967 171.911C104.551 172.247 104.119 172.607 103.671 172.991C103.319 173.375 103.055 173.687 102.879 173.927C102.719 174.167 102.551 174.287 102.375 174.287C102.247 174.351 102.111 174.335 101.967 174.239C101.823 174.143 101.671 174.031 101.511 173.903C101.399 173.775 101.263 173.615 101.103 173.423C100.959 173.215 100.871 173.079 100.839 173.015C100.839 172.759 100.855 172.527 100.887 172.319C100.935 172.111 100.999 171.895 101.079 171.671C101.175 171.447 101.287 171.191 101.415 170.903C101.479 170.791 101.535 170.679 101.583 170.567C101.647 170.439 101.719 170.303 101.799 170.159C101.863 169.935 101.951 169.679 102.063 169.391C102.191 169.103 102.311 168.831 102.423 168.575C102.599 168.159 102.735 167.799 102.831 167.495C102.927 167.191 103.007 166.863 103.071 166.511C103.055 166.479 103.063 166.431 103.095 166.367C103.127 166.303 103.175 166.263 103.239 166.247H103.263H103.287C103.399 166.167 103.607 166.159 103.911 166.223C104.231 166.271 104.471 166.359 104.631 166.487C104.967 166.775 105.127 167.151 105.111 167.615C105.095 168.079 104.855 168.687 104.391 169.439C104.279 169.695 104.159 169.935 104.031 170.159C103.919 170.367 103.863 170.511 103.863 170.591C103.863 170.591 103.927 170.543 104.055 170.447C104.183 170.351 104.335 170.239 104.511 170.111C104.687 169.967 104.839 169.855 104.967 169.775C105.047 169.695 105.223 169.551 105.495 169.343C105.767 169.119 106.063 168.887 106.383 168.647C106.703 168.407 106.959 168.223 107.151 168.095C107.327 167.967 107.551 167.839 107.823 167.711C108.095 167.567 108.263 167.495 108.327 167.495C108.487 167.495 108.679 167.551 108.903 167.663C109.143 167.775 109.359 167.911 109.551 168.071C109.759 168.215 109.879 168.351 109.911 168.479C109.911 168.543 109.903 168.631 109.887 168.743C109.871 168.839 109.863 168.927 109.863 169.007C109.847 169.263 109.839 169.575 109.839 169.943C109.855 170.295 109.863 170.655 109.863 171.023C109.863 171.375 109.831 171.695 109.767 171.983C109.767 171.983 109.775 171.999 109.791 172.031C109.807 172.047 109.823 172.079 109.839 172.127C109.823 172.143 109.815 172.175 109.815 172.223C109.831 172.255 109.839 172.271 109.839 172.271C109.871 172.383 109.903 172.495 109.935 172.607C109.983 172.719 110.039 172.847 110.103 172.991C110.167 173.119 110.239 173.287 110.319 173.495C110.303 173.703 110.183 173.911 109.959 174.119C109.751 174.311 109.543 174.431 109.335 174.479ZM115.239 175.199C115.015 175.135 114.791 175.023 114.567 174.863C114.343 174.703 114.111 174.519 113.871 174.311C113.679 174.055 113.543 173.823 113.463 173.615C113.383 173.391 113.335 173.135 113.319 172.847C113.319 172.543 113.319 172.159 113.319 171.695C113.319 171.503 113.351 171.231 113.415 170.879C113.495 170.527 113.575 170.159 113.655 169.775C113.751 169.391 113.839 169.055 113.919 168.767C113.999 168.463 114.047 168.263 114.063 168.167C114.111 167.959 114.031 167.839 113.823 167.807C113.615 167.775 113.383 167.767 113.127 167.783C112.887 167.783 112.727 167.759 112.647 167.711C112.583 167.695 112.551 167.615 112.551 167.471C112.551 167.311 112.551 167.231 112.551 167.231C112.551 167.167 112.519 167.127 112.455 167.111C112.391 167.079 112.335 167.023 112.287 166.943C112.255 166.879 112.295 166.759 112.407 166.583C112.519 166.407 112.663 166.303 112.839 166.271C112.983 166.239 113.199 166.215 113.487 166.199C113.775 166.167 114.063 166.111 114.351 166.031C114.655 165.935 114.887 165.791 115.047 165.599C115.191 165.247 115.351 164.871 115.527 164.471C115.703 164.055 115.871 163.695 116.031 163.391C116.191 163.071 116.303 162.871 116.367 162.791C116.639 162.647 116.919 162.591 117.207 162.623C117.495 162.639 117.719 162.775 117.879 163.031C117.959 163.143 118.023 163.223 118.071 163.271C118.135 163.319 118.159 163.391 118.143 163.487C118.143 163.583 118.079 163.759 117.951 164.015C117.839 164.255 117.647 164.631 117.375 165.143C117.295 165.303 117.223 165.447 117.159 165.575C117.095 165.687 117.063 165.743 117.063 165.743C117.127 165.759 117.223 165.767 117.351 165.767C117.479 165.767 117.639 165.759 117.831 165.743C118.007 165.711 118.199 165.687 118.407 165.671C118.615 165.639 118.799 165.639 118.959 165.671C119.327 165.671 119.599 165.775 119.775 165.983C119.951 166.191 120.047 166.455 120.063 166.775C120.095 166.951 120.031 167.103 119.871 167.231C119.711 167.359 119.415 167.423 118.983 167.423C118.839 167.423 118.631 167.431 118.359 167.447C118.087 167.463 117.807 167.479 117.519 167.495C117.231 167.511 116.983 167.535 116.775 167.567C116.583 167.583 116.487 167.607 116.487 167.639C116.439 167.671 116.359 167.799 116.247 168.023C116.151 168.231 116.047 168.487 115.935 168.791C115.839 169.095 115.751 169.383 115.671 169.655C115.559 170.199 115.479 170.727 115.431 171.239C115.383 171.751 115.375 172.199 115.407 172.583C115.455 172.951 115.551 173.215 115.695 173.375C115.839 173.519 116.055 173.519 116.343 173.375C116.647 173.215 116.927 173.031 117.183 172.823C117.471 172.583 117.719 172.511 117.927 172.607C118.135 172.687 118.263 172.863 118.311 173.135C118.375 173.391 118.303 173.671 118.095 173.975C117.903 174.279 117.631 174.535 117.279 174.743C116.927 174.951 116.567 175.095 116.199 175.175C115.831 175.271 115.511 175.279 115.239 175.199ZM120.64 174.551C120.576 174.423 120.432 174.295 120.208 174.167C120 174.039 119.896 173.943 119.896 173.879C119.896 173.815 119.856 173.719 119.776 173.591C119.712 173.447 119.648 173.343 119.584 173.279C119.504 173.183 119.528 172.951 119.656 172.583C119.784 172.199 119.976 171.735 120.232 171.191C120.488 170.647 120.768 170.095 121.072 169.535C121.2 169.407 121.328 169.239 121.456 169.031C121.584 168.823 121.68 168.687 121.744 168.623C121.744 168.559 121.768 168.503 121.816 168.455C121.864 168.391 121.92 168.359 121.984 168.359L122.176 167.975C122.208 167.911 122.304 167.783 122.464 167.591C122.64 167.399 122.848 167.191 123.088 166.967C123.328 166.727 123.568 166.503 123.808 166.295C124.064 166.087 124.272 165.935 124.432 165.839C124.768 165.615 125.112 165.511 125.464 165.527C125.832 165.543 126.144 165.655 126.4 165.863C126.448 165.911 126.552 166.007 126.712 166.151C126.888 166.295 127.08 166.455 127.288 166.631C127.512 166.807 127.704 166.967 127.864 167.111L128.752 167.903L128.344 169.103C128.136 169.743 128.08 170.303 128.176 170.783C128.272 171.263 128.424 171.679 128.632 172.031C128.712 172.207 128.816 172.343 128.944 172.439C129.088 172.535 129.272 172.599 129.496 172.631C129.624 172.647 129.744 172.695 129.856 172.775C129.968 172.855 130.024 172.983 130.024 173.159C130.024 173.543 129.952 173.823 129.808 173.999C129.68 174.159 129.536 174.255 129.376 174.287C128.848 174.351 128.344 174.295 127.864 174.119C127.384 173.943 126.952 173.487 126.568 172.751C126.504 172.655 126.416 172.479 126.304 172.223C126.208 171.951 126.152 171.775 126.136 171.695C126.072 171.775 125.984 171.879 125.872 172.007C125.776 172.119 125.68 172.223 125.584 172.319C124.448 173.471 123.472 174.223 122.656 174.575C121.856 174.911 121.184 174.903 120.64 174.551ZM121.96 172.559C122.072 172.575 122.248 172.519 122.488 172.391C122.728 172.247 123.048 172.015 123.448 171.695C123.992 171.231 124.44 170.847 124.792 170.543C125.144 170.239 125.488 169.847 125.824 169.367L126.352 168.503C126.192 168.135 126.048 167.895 125.92 167.783C125.792 167.671 125.664 167.615 125.536 167.615C125.328 167.615 125.08 167.751 124.792 168.023C124.504 168.279 124.176 168.663 123.808 169.175C123.456 169.671 123.056 170.295 122.608 171.047C122.4 171.399 122.24 171.743 122.128 172.079C122.016 172.399 121.96 172.559 121.96 172.559Z" fill="#A381EF"/>
</svg>
