<svg width="155" height="40" viewBox="0 0 155 40" fill="none" xmlns="http://www.w3.org/2000/svg">
<path d="M4.74464 8.67727C15.4201 -2.74037 25.0082 -3.04348 35.3871 8.67727C45.7661 20.398 35.3871 40 35.3871 40H4.74464C4.74464 40 -5.93081 20.0949 4.74464 8.67727Z" fill="#F3EFFC" fill-opacity="0.4"/>
<path d="M26.4569 11.4731H11.8182C11.6444 11.4731 11.4724 11.5074 11.3118 11.5739C11.1513 11.6404 11.0055 11.7379 10.8826 11.8607C10.7597 11.9836 10.6623 12.1295 10.5958 12.29C10.5293 12.4506 10.4951 12.6227 10.4951 12.7965V34.9023C10.4951 35.2533 10.6345 35.5899 10.8826 35.838C11.1307 36.0862 11.4673 36.2256 11.8182 36.2256H26.4569C26.8079 36.2256 27.1444 36.0862 27.3925 35.838C27.6407 35.5899 27.7801 35.2533 27.7801 34.9023C29.722 27.3898 29.7817 20.0168 27.7801 12.7965C27.7801 12.4455 27.6407 12.1089 27.3925 11.8607C27.1444 11.6126 26.8079 11.4731 26.4569 11.4731ZM12.2628 33.1629C12.2628 33.2197 12.2403 33.2742 12.2001 33.3144C12.1599 33.3545 12.1054 33.3771 12.0486 33.3771H11.4949C11.4381 33.3771 11.3837 33.3545 11.3435 33.3144C11.3033 33.2742 11.2807 33.2197 11.2807 33.1629V32.6091C11.2807 32.5523 11.3033 32.4978 11.3435 32.4576C11.3837 32.4174 11.4381 32.3949 11.4949 32.3949H12.0486C12.1054 32.3949 12.1599 32.4174 12.2001 32.4576C12.2403 32.4978 12.2628 32.5523 12.2628 32.6091V33.1629ZM12.2628 30.9774C12.2628 31.0342 12.2403 31.0887 12.2001 31.1289C12.1599 31.1691 12.1054 31.1916 12.0486 31.1916H11.4949C11.4381 31.1916 11.3837 31.1691 11.3435 31.1289C11.3033 31.0887 11.2807 31.0342 11.2807 30.9774V30.4236C11.2807 30.3955 11.2863 30.3676 11.297 30.3416C11.3078 30.3157 11.3236 30.292 11.3435 30.2721C11.3634 30.2522 11.387 30.2365 11.413 30.2257C11.439 30.2149 11.4668 30.2094 11.4949 30.2094H12.0486C12.0768 30.2094 12.1046 30.2149 12.1306 30.2257C12.1566 30.2365 12.1802 30.2522 12.2001 30.2721C12.22 30.292 12.2358 30.3157 12.2465 30.3416C12.2573 30.3676 12.2628 30.3955 12.2628 30.4236V30.9774ZM12.2628 28.7919C12.2628 28.8487 12.2403 28.9032 12.2001 28.9434C12.1599 28.9836 12.1054 29.0061 12.0486 29.0061H11.4949C11.4381 29.0061 11.3837 28.9836 11.3435 28.9434C11.3033 28.9032 11.2807 28.8487 11.2807 28.7919V28.2381C11.2807 28.1813 11.3033 28.1268 11.3435 28.0867C11.3837 28.0465 11.4381 28.0239 11.4949 28.0239H12.0486C12.1054 28.0239 12.1599 28.0465 12.2001 28.0867C12.2403 28.1268 12.2628 28.1813 12.2628 28.2381V28.7919ZM12.2628 26.6064C12.2628 26.6632 12.2403 26.7177 12.2001 26.7579C12.1599 26.7981 12.1054 26.8207 12.0486 26.8207H11.4949C11.4381 26.8207 11.3837 26.7981 11.3435 26.7579C11.3033 26.7177 11.2807 26.6632 11.2807 26.6064V26.0527C11.2807 25.9958 11.3033 25.9413 11.3435 25.9012C11.3837 25.861 11.4381 25.8384 11.4949 25.8384H12.0486C12.1054 25.8384 12.1599 25.861 12.2001 25.9012C12.2403 25.9413 12.2628 25.9958 12.2628 26.0527V26.6064ZM12.2628 24.4209C12.2628 24.4778 12.2403 24.5322 12.2001 24.5724C12.1599 24.6126 12.1054 24.6352 12.0486 24.6352H11.4949C11.4381 24.6352 11.3837 24.6126 11.3435 24.5724C11.3033 24.5322 11.2807 24.4778 11.2807 24.4209V23.8672C11.2807 23.8104 11.3033 23.7559 11.3435 23.7157C11.3837 23.6755 11.4381 23.6529 11.4949 23.6529H12.0486C12.1054 23.6529 12.1599 23.6755 12.2001 23.7157C12.2403 23.7559 12.2628 23.8104 12.2628 23.8672V24.4209ZM12.2628 22.2355C12.2628 22.2923 12.2403 22.3468 12.2001 22.3869C12.1599 22.4271 12.1054 22.4497 12.0486 22.4497H11.4949C11.4381 22.4497 11.3837 22.4271 11.3435 22.3869C11.3033 22.3468 11.2807 22.2923 11.2807 22.2355V21.6817C11.2807 21.6249 11.3033 21.5704 11.3435 21.5302C11.3837 21.49 11.4381 21.4674 11.4949 21.4674H12.0486C12.1054 21.4674 12.1599 21.49 12.2001 21.5302C12.2403 21.5704 12.2628 21.6249 12.2628 21.6817V22.2355ZM12.2628 20.05C12.2628 20.1068 12.2403 20.1613 12.2001 20.2015C12.1599 20.2416 12.1054 20.2642 12.0486 20.2642H11.4949C11.4381 20.2642 11.3837 20.2416 11.3435 20.2015C11.3033 20.1613 11.2807 20.1068 11.2807 20.05V19.4962C11.2807 19.4394 11.3033 19.3849 11.3435 19.3447C11.3837 19.3045 11.4381 19.282 11.4949 19.282H12.0486C12.1054 19.282 12.1599 19.3045 12.2001 19.3447C12.2403 19.3849 12.2628 19.4394 12.2628 19.4962V20.05ZM12.2628 17.8645C12.2628 17.9213 12.2403 17.9758 12.2001 18.016C12.1599 18.0561 12.1054 18.0787 12.0486 18.0787H11.4949C11.4381 18.0787 11.3837 18.0561 11.3435 18.016C11.3033 17.9758 11.2807 17.9213 11.2807 17.8645V17.3107C11.2807 17.2539 11.3033 17.1994 11.3435 17.1592C11.3837 17.119 11.4381 17.0965 11.4949 17.0965H12.0486C12.1054 17.0965 12.1599 17.119 12.2001 17.1592C12.2403 17.1994 12.2628 17.2539 12.2628 17.3107V17.8645ZM12.2628 15.679C12.2628 15.7358 12.2403 15.7903 12.2001 15.8305C12.1599 15.8707 12.1054 15.8932 12.0486 15.8932H11.4949C11.4381 15.8932 11.3837 15.8707 11.3435 15.8305C11.3033 15.7903 11.2807 15.7358 11.2807 15.679V15.1252C11.2807 15.0684 11.3033 15.0139 11.3435 14.9737C11.3837 14.9336 11.4381 14.911 11.4949 14.911H12.0486C12.1054 14.911 12.1599 14.9336 12.2001 14.9737C12.2403 15.0139 12.2628 15.0684 12.2628 15.1252V15.679Z" fill="#E1D8F6"/>
<path d="M12.1379 12.6518H11.4057C11.3367 12.6518 11.2808 12.7078 11.2808 12.7768V13.509C11.2808 13.578 11.3367 13.6339 11.4057 13.6339H12.1379C12.2069 13.6339 12.2629 13.578 12.2629 13.509V12.7768C12.2629 12.7078 12.2069 12.6518 12.1379 12.6518Z" fill="#6C63FF"/>
<path d="M24.932 15.4594H14.2409C14.2258 15.4594 14.2112 15.4533 14.2004 15.4426C14.1897 15.4318 14.1837 15.4173 14.1837 15.4021C14.1837 15.3869 14.1897 15.3723 14.2004 15.3616C14.2112 15.3508 14.2258 15.3448 14.2409 15.3448H24.932C24.9472 15.3448 24.9617 15.3508 24.9725 15.3616C24.9832 15.3723 24.9892 15.3869 24.9892 15.4021C24.9892 15.4173 24.9832 15.4318 24.9725 15.4426C24.9617 15.4533 24.9472 15.4594 24.932 15.4594Z" fill="#E6E6E6"/>
<path d="M24.932 13.2985H21.8874C21.8722 13.2985 21.8577 13.2924 21.8469 13.2817C21.8362 13.271 21.8301 13.2564 21.8301 13.2412C21.8301 13.226 21.8362 13.2114 21.8469 13.2007C21.8577 13.1899 21.8722 13.1839 21.8874 13.1839H24.932C24.9472 13.1839 24.9617 13.1899 24.9725 13.2007C24.9832 13.2114 24.9893 13.226 24.9893 13.2412C24.9893 13.2564 24.9832 13.271 24.9725 13.2817C24.9617 13.2924 24.9472 13.2985 24.932 13.2985Z" fill="#E6E6E6"/>
<path d="M24.932 17.6203H14.2409C14.2258 17.6203 14.2112 17.6143 14.2004 17.6035C14.1897 17.5928 14.1837 17.5782 14.1837 17.563C14.1837 17.5478 14.1897 17.5333 14.2004 17.5225C14.2112 17.5118 14.2258 17.5057 14.2409 17.5057H24.932C24.9472 17.5057 24.9617 17.5118 24.9725 17.5225C24.9832 17.5333 24.9892 17.5478 24.9892 17.563C24.9892 17.5782 24.9832 17.5928 24.9725 17.6035C24.9617 17.6143 24.9472 17.6203 24.932 17.6203Z" fill="#E6E6E6"/>
<path d="M24.932 19.7813H14.2409C14.2258 19.7813 14.2112 19.7752 14.2004 19.7645C14.1897 19.7537 14.1837 19.7392 14.1837 19.724C14.1837 19.7088 14.1897 19.6942 14.2004 19.6835C14.2112 19.6727 14.2258 19.6667 14.2409 19.6667H24.932C24.9472 19.6667 24.9617 19.6727 24.9725 19.6835C24.9832 19.6942 24.9892 19.7088 24.9892 19.724C24.9892 19.7392 24.9832 19.7537 24.9725 19.7645C24.9617 19.7752 24.9472 19.7813 24.932 19.7813Z" fill="#E6E6E6"/>
<path d="M24.932 21.9422H14.2409C14.2258 21.9422 14.2112 21.9362 14.2004 21.9254C14.1897 21.9147 14.1837 21.9001 14.1837 21.8849C14.1837 21.8697 14.1897 21.8551 14.2004 21.8444C14.2112 21.8336 14.2258 21.8276 14.2409 21.8276H24.932C24.9472 21.8276 24.9617 21.8336 24.9725 21.8444C24.9832 21.8551 24.9892 21.8697 24.9892 21.8849C24.9892 21.9001 24.9832 21.9147 24.9725 21.9254C24.9617 21.9362 24.9472 21.9422 24.932 21.9422Z" fill="#E6E6E6"/>
<path d="M24.932 24.1031H14.2409C14.2258 24.1031 14.2112 24.0971 14.2004 24.0864C14.1897 24.0756 14.1837 24.061 14.1837 24.0458C14.1837 24.0307 14.1897 24.0161 14.2004 24.0053C14.2112 23.9946 14.2258 23.9886 14.2409 23.9886H24.932C24.9472 23.9886 24.9617 23.9946 24.9725 24.0053C24.9832 24.0161 24.9892 24.0307 24.9892 24.0458C24.9892 24.061 24.9832 24.0756 24.9725 24.0864C24.9617 24.0971 24.9472 24.1031 24.932 24.1031Z" fill="#E6E6E6"/>
<path d="M24.932 26.264H14.2409C14.2258 26.264 14.2112 26.258 14.2004 26.2472C14.1897 26.2365 14.1837 26.2219 14.1837 26.2067C14.1837 26.1915 14.1897 26.177 14.2004 26.1662C14.2112 26.1555 14.2258 26.1494 14.2409 26.1494H24.932C24.9472 26.1494 24.9617 26.1555 24.9725 26.1662C24.9832 26.177 24.9892 26.1915 24.9892 26.2067C24.9892 26.2219 24.9832 26.2365 24.9725 26.2472C24.9617 26.258 24.9472 26.264 24.932 26.264Z" fill="#E6E6E6"/>
<path d="M24.932 28.425H14.2409C14.2258 28.425 14.2112 28.419 14.2004 28.4082C14.1897 28.3975 14.1837 28.3829 14.1837 28.3677C14.1837 28.3525 14.1897 28.3379 14.2004 28.3272C14.2112 28.3165 14.2258 28.3104 14.2409 28.3104H24.932C24.9472 28.3104 24.9617 28.3165 24.9725 28.3272C24.9832 28.3379 24.9892 28.3525 24.9892 28.3677C24.9892 28.3829 24.9832 28.3975 24.9725 28.4082C24.9617 28.419 24.9472 28.425 24.932 28.425Z" fill="#E6E6E6"/>
<path d="M24.932 30.5859H14.2409C14.2258 30.5859 14.2112 30.5799 14.2004 30.5691C14.1897 30.5584 14.1837 30.5438 14.1837 30.5286C14.1837 30.5134 14.1897 30.4988 14.2004 30.4881C14.2112 30.4773 14.2258 30.4713 14.2409 30.4713H24.932C24.9472 30.4713 24.9617 30.4773 24.9725 30.4881C24.9832 30.4988 24.9892 30.5134 24.9892 30.5286C24.9892 30.5438 24.9832 30.5584 24.9725 30.5691C24.9617 30.5799 24.9472 30.5859 24.932 30.5859Z" fill="#E6E6E6"/>
<path d="M24.932 32.7468H14.2409C14.2258 32.7468 14.2112 32.7408 14.2004 32.7301C14.1897 32.7193 14.1837 32.7047 14.1837 32.6896C14.1837 32.6744 14.1897 32.6598 14.2004 32.649C14.2112 32.6383 14.2258 32.6323 14.2409 32.6323H24.932C24.9472 32.6323 24.9617 32.6383 24.9725 32.649C24.9832 32.6598 24.9892 32.6744 24.9892 32.6896C24.9892 32.7047 24.9832 32.7193 24.9725 32.7301C24.9617 32.7408 24.9472 32.7468 24.932 32.7468Z" fill="#E6E6E6"/>
<path d="M23.347 14.9549H15.9738C15.9451 14.9549 15.9167 14.9493 15.8901 14.9384C15.8636 14.9274 15.8395 14.9113 15.8192 14.891C15.7988 14.8708 15.7827 14.8467 15.7717 14.8201C15.7607 14.7936 15.7551 14.7652 15.7551 14.7365C15.7551 14.7078 15.7607 14.6794 15.7717 14.6528C15.7827 14.6263 15.7988 14.6022 15.8192 14.5819C15.8395 14.5617 15.8636 14.5456 15.8901 14.5346C15.9167 14.5237 15.9451 14.5181 15.9738 14.5181H23.347C23.4049 14.5182 23.4603 14.5412 23.5012 14.5822C23.5421 14.6231 23.5651 14.6786 23.5651 14.7365C23.5651 14.7943 23.5421 14.8498 23.5012 14.8908C23.4603 14.9317 23.4049 14.9548 23.347 14.9549Z" fill="#CCCCCC"/>
<path d="M23.347 17.1158H15.9738C15.9159 17.1158 15.8604 17.0928 15.8194 17.0518C15.7784 17.0109 15.7554 16.9553 15.7554 16.8974C15.7554 16.8395 15.7784 16.7839 15.8194 16.743C15.8604 16.702 15.9159 16.679 15.9738 16.679H23.347C23.405 16.679 23.4605 16.702 23.5015 16.743C23.5424 16.7839 23.5654 16.8395 23.5654 16.8974C23.5654 16.9553 23.5424 17.0109 23.5015 17.0518C23.4605 17.0928 23.405 17.1158 23.347 17.1158Z" fill="#CCCCCC"/>
<path d="M23.347 19.2767H15.9738C15.9451 19.2768 15.9167 19.2712 15.8901 19.2602C15.8636 19.2493 15.8395 19.2332 15.8192 19.2129C15.7988 19.1926 15.7827 19.1685 15.7717 19.142C15.7607 19.1155 15.7551 19.0871 15.7551 19.0584C15.7551 19.0296 15.7607 19.0012 15.7717 18.9747C15.7827 18.9482 15.7988 18.9241 15.8192 18.9038C15.8395 18.8835 15.8636 18.8674 15.8901 18.8565C15.9167 18.8455 15.9451 18.8399 15.9738 18.84H23.347C23.4049 18.8401 23.4603 18.8631 23.5012 18.9041C23.5421 18.945 23.5651 19.0005 23.5651 19.0584C23.5651 19.1162 23.5421 19.1717 23.5012 19.2127C23.4603 19.2536 23.4049 19.2767 23.347 19.2767Z" fill="#CCCCCC"/>
<path d="M23.347 21.4377H15.9738C15.9159 21.4377 15.8604 21.4147 15.8194 21.3737C15.7784 21.3327 15.7554 21.2772 15.7554 21.2193C15.7554 21.1614 15.7784 21.1058 15.8194 21.0648C15.8604 21.0239 15.9159 21.0009 15.9738 21.0009H23.347C23.405 21.0009 23.4605 21.0239 23.5015 21.0648C23.5424 21.1058 23.5654 21.1614 23.5654 21.2193C23.5654 21.2772 23.5424 21.3327 23.5015 21.3737C23.4605 21.4147 23.405 21.4377 23.347 21.4377Z" fill="#CCCCCC"/>
<path d="M23.347 23.5986H15.9738C15.9451 23.5986 15.9167 23.593 15.8901 23.5821C15.8636 23.5711 15.8395 23.555 15.8192 23.5347C15.7988 23.5145 15.7827 23.4904 15.7717 23.4639C15.7607 23.4373 15.7551 23.4089 15.7551 23.3802C15.7551 23.3515 15.7607 23.3231 15.7717 23.2965C15.7827 23.27 15.7988 23.2459 15.8192 23.2256C15.8395 23.2054 15.8636 23.1893 15.8901 23.1783C15.9167 23.1674 15.9451 23.1618 15.9738 23.1618H23.347C23.4049 23.1619 23.4603 23.1849 23.5012 23.2259C23.5421 23.2668 23.5651 23.3223 23.5651 23.3802C23.5651 23.4381 23.5421 23.4935 23.5012 23.5345C23.4603 23.5754 23.4049 23.5985 23.347 23.5986Z" fill="#CCCCCC"/>
<path d="M23.347 25.7595H15.9738C15.9451 25.7596 15.9167 25.754 15.8901 25.743C15.8636 25.7321 15.8395 25.716 15.8192 25.6957C15.7988 25.6754 15.7827 25.6513 15.7717 25.6248C15.7607 25.5983 15.7551 25.5699 15.7551 25.5411C15.7551 25.5124 15.7607 25.484 15.7717 25.4575C15.7827 25.431 15.7988 25.4069 15.8192 25.3866C15.8395 25.3663 15.8636 25.3502 15.8901 25.3393C15.9167 25.3283 15.9451 25.3227 15.9738 25.3228H23.347C23.4049 25.3228 23.4603 25.3459 23.5012 25.3868C23.5421 25.4278 23.5651 25.4833 23.5651 25.5411C23.5651 25.599 23.5421 25.6545 23.5012 25.6954C23.4603 25.7364 23.4049 25.7594 23.347 25.7595Z" fill="#CCCCCC"/>
<path d="M23.347 27.9205H15.9738C15.9159 27.9205 15.8604 27.8974 15.8194 27.8565C15.7784 27.8155 15.7554 27.76 15.7554 27.7021C15.7554 27.6441 15.7784 27.5886 15.8194 27.5476C15.8604 27.5067 15.9159 27.4837 15.9738 27.4837H23.347C23.405 27.4837 23.4605 27.5067 23.5015 27.5476C23.5424 27.5886 23.5654 27.6441 23.5654 27.7021C23.5654 27.76 23.5424 27.8155 23.5015 27.8565C23.4605 27.8974 23.405 27.9205 23.347 27.9205Z" fill="#CCCCCC"/>
<path d="M23.347 30.0814H15.9738C15.9451 30.0814 15.9167 30.0758 15.8901 30.0648C15.8636 30.0539 15.8395 30.0378 15.8192 30.0175C15.7988 29.9972 15.7827 29.9732 15.7717 29.9466C15.7607 29.9201 15.7551 29.8917 15.7551 29.863C15.7551 29.8343 15.7607 29.8058 15.7717 29.7793C15.7827 29.7528 15.7988 29.7287 15.8192 29.7084C15.8395 29.6881 15.8636 29.6721 15.8901 29.6611C15.9167 29.6502 15.9451 29.6445 15.9738 29.6446H23.347C23.4049 29.6447 23.4603 29.6677 23.5012 29.7087C23.5421 29.7496 23.5651 29.8051 23.5651 29.863C23.5651 29.9208 23.5421 29.9763 23.5012 30.0173C23.4603 30.0582 23.4049 30.0813 23.347 30.0814Z" fill="#CCCCCC"/>
<path d="M23.347 32.2423H15.9738C15.9451 32.2423 15.9167 32.2367 15.8902 32.2257C15.8638 32.2147 15.8397 32.1986 15.8194 32.1784C15.7991 32.1581 15.783 32.134 15.7721 32.1075C15.7611 32.081 15.7554 32.0526 15.7554 32.0239C15.7554 31.9953 15.7611 31.9669 15.7721 31.9404C15.783 31.9139 15.7991 31.8898 15.8194 31.8695C15.8397 31.8492 15.8638 31.8331 15.8902 31.8222C15.9167 31.8112 15.9451 31.8055 15.9738 31.8055H23.347C23.405 31.8055 23.4605 31.8286 23.5015 31.8695C23.5424 31.9105 23.5654 31.966 23.5654 32.0239C23.5654 32.0819 23.5424 32.1374 23.5015 32.1784C23.4605 32.2193 23.405 32.2423 23.347 32.2423Z" fill="#CCCCCC"/>
<path d="M16.6864 13.3202H14.7782C14.763 13.3202 14.7485 13.3262 14.7377 13.337C14.727 13.3477 14.7209 13.3623 14.7209 13.3775C14.7209 13.3927 14.727 13.4072 14.7377 13.418C14.7485 13.4287 14.763 13.4348 14.7782 13.4348H15.675V15.3046C15.675 15.3198 15.681 15.3343 15.6918 15.3451C15.7025 15.3558 15.7171 15.3619 15.7323 15.3619C15.7475 15.3619 15.7621 15.3558 15.7728 15.3451C15.7835 15.3343 15.7896 15.3198 15.7896 15.3046V14.3315C15.7896 14.0937 15.8841 13.8656 16.0522 13.6974C16.2204 13.5292 16.4485 13.4348 16.6864 13.4348C16.7015 13.4348 16.7161 13.4287 16.7269 13.418C16.7376 13.4072 16.7436 13.3927 16.7436 13.3775C16.7436 13.3623 16.7376 13.3477 16.7269 13.337C16.7161 13.3262 16.7015 13.3202 16.6864 13.3202Z" fill="#D2C0FB"/>
<path d="M23.6143 32.6975C23.5826 32.6975 23.181 32.6718 23.181 32.6402L23.557 30.7321C23.557 30.7169 23.563 30.7023 23.5738 30.6916C23.5845 30.6808 23.5991 30.6748 23.6143 30.6748C23.6295 30.6748 23.644 30.6808 23.6548 30.6916C23.6655 30.7023 23.6716 30.7169 23.6716 30.7321V32.6402C23.6716 32.6554 23.6655 32.67 23.6548 32.6807C23.644 32.6915 23.6295 32.6975 23.6143 32.6975Z" fill="#D2C0FB"/>
<path d="M27.9445 12.7965C27.9445 12.4455 27.8051 12.1089 27.557 11.8607C27.3089 11.6126 26.9723 11.4731 26.6214 11.4731H11.8127C12.4115 11.4731 19.6059 11.8963 24.1894 12.4304C24.9535 12.5193 25.6704 12.8462 26.2387 13.3649C26.807 13.8835 27.1979 14.5676 27.3562 15.3206C28.7038 21.7328 28.4576 28.2631 26.7415 34.9023C26.7415 35.2533 26.6021 35.5899 26.3539 35.838C26.1058 36.0862 25.7693 36.2256 25.4183 36.2256H26.6214C26.9723 36.2256 27.3089 36.0862 27.557 35.838C27.8051 35.5899 27.9445 35.2533 27.9445 34.9023C29.8864 27.3898 29.9462 20.0168 27.9445 12.7965Z" fill="#D2C0FB"/>
<path d="M27.386 35.5726L27.2751 35.544C29.2341 27.9655 29.2347 20.5402 27.2772 13.4742C27.0734 13.1048 26.7802 12.7923 26.4245 12.5654C26.0688 12.3385 25.6619 12.2045 25.241 12.1755L19.3708 11.7595L19.379 11.6452L25.2491 12.0612C25.6902 12.0916 26.1166 12.2324 26.4891 12.4707C26.8616 12.7089 27.1682 13.037 27.3808 13.4248L27.3858 13.4371C28.3755 17.0057 28.8738 20.6926 28.8667 24.3959C28.8593 28.0399 28.3611 31.8003 27.386 35.5726Z" fill="white"/>
<path d="M62.8 25.768C62.7573 25.8107 62.656 25.8213 62.496 25.8C62.336 25.7893 62.208 25.7147 62.112 25.576C62.0373 25.4267 61.9947 25.256 61.984 25.064C61.9733 24.872 61.9733 24.6053 61.984 24.264C62.048 23.8907 62.1547 23.4 62.304 22.792C62.4533 22.184 62.6187 21.5067 62.8 20.76C62.992 20.0027 63.184 19.2293 63.376 18.44C63.472 18.0667 63.5467 17.752 63.6 17.496C63.664 17.24 63.7067 17.048 63.728 16.92C63.76 16.7813 63.776 16.712 63.776 16.712C63.7653 16.7333 63.7493 16.7547 63.728 16.776C63.7173 16.7973 63.7067 16.8187 63.696 16.84C63.6853 16.8613 63.6747 16.8827 63.664 16.904C63.664 16.904 63.6427 16.9413 63.6 17.016C63.568 17.0907 63.4933 17.2187 63.376 17.4C63.2907 17.528 63.2107 17.6773 63.136 17.848C63.0613 18.0187 62.9333 18.2427 62.752 18.52C62.5813 18.84 62.3893 19.208 62.176 19.624C61.9627 20.04 61.7813 20.3707 61.632 20.616C61.5573 20.7333 61.488 20.8347 61.424 20.92C61.3707 21.0053 61.3333 21.0747 61.312 21.128C61.2693 21.2453 61.2 21.3893 61.104 21.56C61.008 21.7307 60.896 21.896 60.768 22.056C60.704 22.152 60.6187 22.264 60.512 22.392C60.416 22.52 60.3307 22.6373 60.256 22.744C60.1813 22.84 60.144 22.888 60.144 22.888C60.1227 22.952 60.0533 23.0533 59.936 23.192C59.8187 23.3307 59.6747 23.4853 59.504 23.656C59.344 23.816 59.1787 23.9653 59.008 24.104C58.6347 24.4027 58.3253 24.5893 58.08 24.664C57.8453 24.7387 57.5733 24.648 57.264 24.392C57.1253 24.2213 57.0133 24.0507 56.928 23.88C56.8427 23.6987 56.8 23.4533 56.8 23.144C56.8 22.8347 56.8533 22.4027 56.96 21.848C57.0347 21.496 57.1147 21.1227 57.2 20.728C57.296 20.3333 57.392 19.9547 57.488 19.592C57.584 19.2187 57.6693 18.8987 57.744 18.632C57.8293 18.3547 57.888 18.1627 57.92 18.056C57.952 17.7893 57.9573 17.6507 57.936 17.64C57.9147 17.6187 57.8613 17.6773 57.776 17.816C57.7013 17.9333 57.5627 18.1787 57.36 18.552C57.1573 18.9253 56.928 19.3627 56.672 19.864C56.4267 20.3653 56.1867 20.8667 55.952 21.368C55.5147 22.1787 55.1467 22.856 54.848 23.4C54.5493 23.944 54.304 24.3813 54.112 24.712C53.92 25.032 53.7707 25.272 53.664 25.432C53.568 25.6027 53.4933 25.72 53.44 25.784C53.3973 25.8587 53.3653 25.9067 53.344 25.928C53.184 25.9173 53.0453 25.8427 52.928 25.704C52.8107 25.5653 52.7147 25.4 52.64 25.208C52.6187 25.1013 52.6027 24.9893 52.592 24.872C52.5813 24.7547 52.592 24.6267 52.624 24.488C52.6667 24.3387 52.7307 24.1787 52.816 24.008C52.9547 23.7307 53.088 23.496 53.216 23.304C53.344 23.112 53.424 22.9947 53.456 22.952C53.5093 22.8773 53.552 22.7973 53.584 22.712C53.616 22.6267 53.6373 22.5467 53.648 22.472C53.7013 22.408 53.7813 22.2747 53.888 22.072C54.0053 21.8693 54.1227 21.6507 54.24 21.416C54.3253 21.2773 54.4427 21.0853 54.592 20.84C54.7413 20.584 54.9013 20.312 55.072 20.024C55.2427 19.7253 55.392 19.4533 55.52 19.208C55.9893 18.3653 56.3627 17.6933 56.64 17.192C56.9173 16.68 57.1147 16.3547 57.232 16.216C57.3067 16.1627 57.3707 16.0613 57.424 15.912C57.488 15.752 57.5413 15.6347 57.584 15.56C57.7333 15.2613 57.8827 15.016 58.032 14.824C58.192 14.6213 58.3307 14.52 58.448 14.52C58.5333 14.52 58.64 14.552 58.768 14.616C58.9067 14.68 59.04 14.7707 59.168 14.888C59.2853 15.0267 59.392 15.2133 59.488 15.448C59.5947 15.672 59.616 15.9707 59.552 16.344C59.5413 16.5147 59.5147 16.7227 59.472 16.968C59.4293 17.2027 59.3867 17.4373 59.344 17.672C59.3013 17.9067 59.2587 18.104 59.216 18.264C59.1307 18.744 59.0347 19.2027 58.928 19.64C58.832 20.0667 58.7413 20.4613 58.656 20.824C58.5707 21.1867 58.5013 21.5067 58.448 21.784C58.3947 22.0507 58.3573 22.2693 58.336 22.44C58.3253 22.6107 58.3467 22.7227 58.4 22.776C58.432 22.7867 58.4747 22.776 58.528 22.744C58.592 22.7013 58.64 22.6587 58.672 22.616C58.736 22.5307 58.7947 22.4453 58.848 22.36C58.9013 22.2747 58.9707 22.168 59.056 22.04C59.2267 21.8053 59.4027 21.5493 59.584 21.272C59.776 20.984 60 20.632 60.256 20.216C60.5227 19.7893 60.8373 19.2667 61.2 18.648C61.5627 18.0187 62.0053 17.24 62.528 16.312C62.7733 15.9387 63.008 15.5653 63.232 15.192C63.456 14.8187 63.6587 14.5307 63.84 14.328C64 14.1573 64.1973 14.0987 64.432 14.152C64.6773 14.2053 64.9013 14.3387 65.104 14.552C65.3067 14.7653 65.4187 15.0267 65.44 15.336C65.4507 15.4853 65.4187 15.752 65.344 16.136C65.28 16.5093 65.1893 16.9307 65.072 17.4C64.9547 17.8693 64.8213 18.328 64.672 18.776C64.64 18.9573 64.5867 19.1973 64.512 19.496C64.4373 19.7947 64.3573 20.0987 64.272 20.408C64.1867 20.7173 64.1067 20.9947 64.032 21.24C63.9573 21.6027 63.8933 21.8907 63.84 22.104C63.7973 22.3173 63.776 22.5627 63.776 22.84C63.68 23.0107 63.616 23.256 63.584 23.576C63.552 23.896 63.536 24.2267 63.536 24.568C63.4933 24.984 63.4027 25.2773 63.264 25.448C63.136 25.6187 63.0507 25.6987 63.008 25.688C62.9227 25.656 62.8533 25.6827 62.8 25.768ZM65.4605 24.728C65.3752 24.6427 65.3112 24.5147 65.2685 24.344C65.2365 24.1733 65.2258 24.008 65.2365 23.848C65.2472 23.6773 65.2738 23.5493 65.3165 23.464C65.3165 23.3787 65.3272 23.3147 65.3485 23.272C65.3805 23.2187 65.3912 23.1707 65.3805 23.128C65.3698 23.0853 65.3805 23.0107 65.4125 22.904C65.4445 22.7973 65.4765 22.696 65.5085 22.6C65.5832 22.4293 65.6685 22.2107 65.7645 21.944C65.8605 21.6667 65.9565 21.3893 66.0525 21.112C66.1485 20.824 66.2285 20.5787 66.2925 20.376C66.3565 20.1627 66.3938 20.0347 66.4045 19.992C66.4045 19.864 66.4898 19.7947 66.6605 19.784C66.7885 19.7413 66.9432 19.7947 67.1245 19.944C67.3058 20.0933 67.4498 20.2533 67.5565 20.424C67.6418 20.5093 67.6738 20.6213 67.6525 20.76C67.6312 20.8987 67.5618 21.096 67.4445 21.352C67.4018 21.4373 67.3485 21.5813 67.2845 21.784C67.2312 21.976 67.1938 22.136 67.1725 22.264C67.1298 22.3493 67.0765 22.472 67.0125 22.632C66.9592 22.7813 66.9112 22.9253 66.8685 23.064C66.8472 23.1173 66.8258 23.2187 66.8045 23.368C66.7832 23.5067 66.7565 23.6507 66.7245 23.8C66.6925 23.9493 66.6498 24.0667 66.5965 24.152C66.5005 24.5893 66.3298 24.8453 66.0845 24.92C65.8498 24.9947 65.6418 24.9307 65.4605 24.728ZM67.1885 18.312C67.0712 18.2267 66.9805 18.1253 66.9165 18.008C66.8632 17.88 66.8312 17.768 66.8205 17.672C66.8205 17.576 66.8312 17.5173 66.8525 17.496C66.9592 17.3787 67.0498 17.224 67.1245 17.032C67.2098 16.84 67.3005 16.664 67.3965 16.504C67.4178 16.472 67.4445 16.4293 67.4765 16.376C67.5192 16.312 67.5618 16.2747 67.6045 16.264C67.7325 16.1787 67.9085 16.184 68.1325 16.28C68.3672 16.376 68.5378 16.5093 68.6445 16.68C68.7405 16.8827 68.7672 17.0907 68.7245 17.304C68.6925 17.5173 68.5805 17.7413 68.3885 17.976C68.2285 18.1893 68.0258 18.328 67.7805 18.392C67.5352 18.4453 67.3378 18.4187 67.1885 18.312ZM74.0411 24.616C73.8065 24.5947 73.6091 24.5467 73.4491 24.472C73.2998 24.3867 73.1771 24.2213 73.0811 23.976C73.0385 23.8053 73.0171 23.6293 73.0171 23.448C73.0278 23.256 73.0438 23.0747 73.0651 22.904C73.0865 22.7227 73.0971 22.568 73.0971 22.44C73.0971 22.4187 73.0971 22.376 73.0971 22.312C73.0971 22.248 73.0971 22.1893 73.0971 22.136C73.0758 21.976 73.0331 21.88 72.9691 21.848C72.9158 21.8053 72.8198 21.8107 72.6811 21.864C72.4571 21.9707 72.2118 22.1147 71.9451 22.296C71.6891 22.4667 71.4171 22.6693 71.1291 22.904C70.8518 23.128 70.5638 23.368 70.2651 23.624C70.0305 23.88 69.8545 24.088 69.7371 24.248C69.6305 24.408 69.5185 24.488 69.4011 24.488C69.3158 24.5307 69.2251 24.52 69.1291 24.456C69.0331 24.392 68.9318 24.3173 68.8251 24.232C68.7505 24.1467 68.6598 24.04 68.5531 23.912C68.4571 23.7733 68.3985 23.6827 68.3771 23.64C68.3771 23.4693 68.3878 23.3147 68.4091 23.176C68.4411 23.0373 68.4838 22.8933 68.5371 22.744C68.6011 22.5947 68.6758 22.424 68.7611 22.232C68.8038 22.1573 68.8411 22.0827 68.8731 22.008C68.9158 21.9227 68.9638 21.832 69.0171 21.736C69.0598 21.5867 69.1185 21.416 69.1931 21.224C69.2785 21.032 69.3585 20.8507 69.4331 20.68C69.5505 20.4027 69.6411 20.1627 69.7051 19.96C69.7691 19.7573 69.8225 19.5387 69.8651 19.304C69.8545 19.2827 69.8598 19.2507 69.8811 19.208C69.9025 19.1653 69.9345 19.1387 69.9771 19.128H69.9931H70.0091C70.0838 19.0747 70.2225 19.0693 70.4251 19.112C70.6385 19.144 70.7985 19.2027 70.9051 19.288C71.1291 19.48 71.2358 19.7307 71.2251 20.04C71.2145 20.3493 71.0545 20.7547 70.7451 21.256C70.6705 21.4267 70.5905 21.5867 70.5051 21.736C70.4305 21.8747 70.3931 21.9707 70.3931 22.024C70.3931 22.024 70.4358 21.992 70.5211 21.928C70.6065 21.864 70.7078 21.7893 70.8251 21.704C70.9425 21.608 71.0438 21.5333 71.1291 21.48C71.1825 21.4267 71.2998 21.3307 71.4811 21.192C71.6625 21.0427 71.8598 20.888 72.0731 20.728C72.2865 20.568 72.4571 20.4453 72.5851 20.36C72.7025 20.2747 72.8518 20.1893 73.0331 20.104C73.2145 20.008 73.3265 19.96 73.3691 19.96C73.4758 19.96 73.6038 19.9973 73.7531 20.072C73.9131 20.1467 74.0571 20.2373 74.1851 20.344C74.3238 20.44 74.4038 20.5307 74.4251 20.616C74.4251 20.6587 74.4198 20.7173 74.4091 20.792C74.3985 20.856 74.3931 20.9147 74.3931 20.968C74.3825 21.1387 74.3771 21.3467 74.3771 21.592C74.3878 21.8267 74.3931 22.0667 74.3931 22.312C74.3931 22.5467 74.3718 22.76 74.3291 22.952C74.3291 22.952 74.3345 22.9627 74.3451 22.984C74.3558 22.9947 74.3665 23.016 74.3771 23.048C74.3665 23.0587 74.3611 23.08 74.3611 23.112C74.3718 23.1333 74.3771 23.144 74.3771 23.144C74.3985 23.2187 74.4198 23.2933 74.4411 23.368C74.4731 23.4427 74.5105 23.528 74.5531 23.624C74.5958 23.7093 74.6438 23.8213 74.6971 23.96C74.6865 24.0987 74.6065 24.2373 74.4571 24.376C74.3185 24.504 74.1798 24.584 74.0411 24.616ZM81.0329 24.744C80.7662 24.872 80.5049 24.92 80.2489 24.888C80.0035 24.8453 79.7955 24.712 79.6249 24.488C79.4649 24.2533 79.3849 23.912 79.3849 23.464C79.3849 23.3467 79.3902 23.208 79.4009 23.048C79.4222 22.8773 79.4542 22.7013 79.4969 22.52C79.5395 22.328 79.5929 22.136 79.6569 21.944C79.6889 21.848 79.7315 21.752 79.7849 21.656C79.8489 21.56 79.8595 21.512 79.8169 21.512C79.7742 21.512 79.7209 21.5387 79.6569 21.592C79.6035 21.6453 79.5609 21.688 79.5289 21.72C79.2622 21.9547 79.0169 22.2 78.7929 22.456C78.5795 22.7013 78.3875 22.9467 78.2169 23.192C78.0569 23.4267 77.9289 23.6453 77.8329 23.848C77.7475 24.0507 77.7049 24.2213 77.7049 24.36C77.7049 24.52 77.6249 24.632 77.4649 24.696C77.3049 24.76 77.1662 24.7547 77.0489 24.68C76.8462 24.5627 76.6595 24.3813 76.4889 24.136C76.3289 23.8907 76.2649 23.5707 76.2969 23.176C76.3289 22.6747 76.3715 22.2267 76.4249 21.832C76.4782 21.4373 76.5635 21.0107 76.6809 20.552C76.8089 20.0827 76.9742 19.512 77.1769 18.84C77.3155 18.4667 77.4435 18.1147 77.5609 17.784C77.6782 17.4427 77.7795 17.1547 77.8649 16.92C77.9609 16.6853 78.0195 16.5413 78.0409 16.488C78.0942 16.4347 78.1635 16.3067 78.2489 16.104C78.3342 15.8907 78.4089 15.6773 78.4729 15.464C78.5475 15.2507 78.5849 15.1227 78.5849 15.08C78.5849 14.9947 78.6009 14.92 78.6329 14.856C78.6755 14.792 78.7129 14.7333 78.7449 14.68C78.8089 14.5307 78.8622 14.4293 78.9049 14.376C78.9582 14.312 79.0062 14.28 79.0489 14.28C79.1022 14.28 79.1875 14.3067 79.3049 14.36C79.4329 14.4133 79.5502 14.4827 79.6569 14.568C79.7742 14.6427 79.8435 14.7227 79.8649 14.808C79.9395 14.9573 79.9822 15.112 79.9929 15.272C80.0035 15.4213 79.9662 15.608 79.8809 15.832C79.7955 16.056 79.6462 16.3653 79.4329 16.76C79.2622 17.0907 79.1075 17.432 78.9689 17.784C78.8302 18.136 78.6969 18.504 78.5689 18.888C78.5155 19.048 78.4462 19.2613 78.3609 19.528C78.2755 19.784 78.1902 20.0507 78.1049 20.328C78.0302 20.5947 77.9662 20.8347 77.9129 21.048C77.8595 21.2613 77.8329 21.4 77.8329 21.464C77.8329 21.5387 77.8755 21.576 77.9609 21.576C78.0462 21.5653 78.1315 21.5013 78.2169 21.384C78.2595 21.2987 78.3289 21.2187 78.4249 21.144C78.5209 21.0587 78.6062 20.9733 78.6809 20.888C78.7662 20.7813 78.8675 20.6587 78.9849 20.52C79.1129 20.3707 79.2462 20.232 79.3849 20.104C79.5342 19.9653 79.6675 19.8533 79.7849 19.768C79.9129 19.6827 80.0195 19.64 80.1049 19.64C80.3075 19.64 80.4782 19.6987 80.6169 19.816C80.7555 19.9333 80.8729 20.1147 80.9689 20.36C81.0009 20.392 81.0329 20.4347 81.0649 20.488C81.0969 20.5307 81.1182 20.5627 81.1289 20.584C81.1822 20.6267 81.2089 20.7973 81.2089 21.096C81.2089 21.384 81.1235 21.784 80.9529 22.296C80.8569 22.6907 80.7982 22.984 80.7769 23.176C80.7662 23.368 80.8035 23.464 80.8889 23.464C80.8889 23.464 80.9422 23.432 81.0489 23.368C81.1662 23.304 81.2889 23.2347 81.4169 23.16C81.7262 22.9573 81.9502 22.8933 82.0889 22.968C82.2275 23.0427 82.2969 23.1387 82.2969 23.256C82.2969 23.352 82.2595 23.464 82.1849 23.592C82.1209 23.72 82.0889 23.8053 82.0889 23.848C82.0889 23.848 82.0889 23.8533 82.0889 23.864C82.0889 23.864 82.0889 23.8853 82.0889 23.928C82.0889 23.9493 82.0195 24.024 81.8809 24.152C81.7422 24.28 81.5875 24.408 81.4169 24.536C81.2569 24.6533 81.1289 24.7227 81.0329 24.744ZM84.7271 24.776C84.6418 24.7973 84.5298 24.808 84.3911 24.808C84.2525 24.7973 84.1298 24.7813 84.0231 24.76C83.9271 24.728 83.8791 24.696 83.8791 24.664C83.8791 24.6107 83.8525 24.584 83.7991 24.584C83.7991 24.584 83.7405 24.5413 83.6231 24.456C83.5058 24.36 83.3991 24.2907 83.3031 24.248C83.2071 24.0987 83.1431 23.928 83.1111 23.736C83.0898 23.5333 83.1538 23.1813 83.3031 22.68C83.3138 22.3387 83.4098 21.9813 83.5911 21.608C83.7725 21.224 84.0018 20.8507 84.2791 20.488C84.5565 20.1253 84.8445 19.8053 85.1431 19.528C85.4418 19.24 85.7085 19.0267 85.9431 18.888C86.0925 18.7387 86.2898 18.6587 86.5351 18.648C86.7911 18.6373 87.0151 18.6853 87.2071 18.792C87.3138 18.8453 87.4311 18.952 87.5591 19.112C87.6871 19.272 87.8098 19.4427 87.9271 19.624C88.0445 19.7947 88.1351 19.9493 88.1991 20.088C88.2311 20.2053 88.2578 20.312 88.2791 20.408C88.3111 20.4933 88.3325 20.6 88.3431 20.728C88.3538 20.856 88.3431 21.048 88.3111 21.304C88.2578 21.496 88.2098 21.6933 88.1671 21.896C88.1351 22.088 88.1191 22.2853 88.1191 22.488C88.0978 22.6907 88.1191 22.8347 88.1831 22.92C88.2578 23.0053 88.3645 23.0107 88.5031 22.936C88.6311 22.872 88.7645 22.8667 88.9031 22.92C89.0418 22.9627 89.1378 23.048 89.1911 23.176C89.2551 23.2933 89.2391 23.448 89.1431 23.64C89.0791 23.7787 88.9778 23.912 88.8391 24.04C88.7005 24.168 88.5458 24.2747 88.3751 24.36C88.2045 24.4347 88.0391 24.472 87.8791 24.472C87.7618 24.472 87.6445 24.4293 87.5271 24.344C87.4098 24.248 87.3031 24.12 87.2071 23.96C87.1111 23.8 87.0311 23.624 86.9671 23.432L86.8711 23.064L86.2951 23.592C86.1565 23.7413 86.0178 23.88 85.8791 24.008C85.7511 24.1253 85.6711 24.2107 85.6391 24.264C85.5858 24.36 85.4791 24.4453 85.3191 24.52C85.1698 24.5947 84.9725 24.68 84.7271 24.776ZM85.1591 23.24C85.3405 23.1333 85.4951 23.0053 85.6231 22.856C85.7618 22.7067 85.8951 22.5413 86.0231 22.36C86.1511 22.168 86.2898 21.9653 86.4391 21.752C86.6205 21.5067 86.7485 21.3093 86.8231 21.16C86.9085 21.0107 86.9725 20.8507 87.0151 20.68C86.9725 20.5627 86.9138 20.44 86.8391 20.312C86.7645 20.1733 86.6898 20.0987 86.6151 20.088C86.4658 20.088 86.2845 20.1787 86.0711 20.36C85.8685 20.5413 85.6445 20.8027 85.3991 21.144C85.3565 21.1973 85.3031 21.2827 85.2391 21.4C85.1751 21.5173 85.1111 21.6293 85.0471 21.736C84.9938 21.832 84.9565 21.896 84.9351 21.928C84.9031 21.9707 84.8551 22.072 84.7911 22.232C84.7378 22.3813 84.6898 22.536 84.6471 22.696C84.6045 22.8453 84.5831 22.952 84.5831 23.016C84.5831 23.08 84.5885 23.1493 84.5991 23.224C84.6205 23.2987 84.6738 23.3467 84.7591 23.368C84.8445 23.3893 84.9778 23.3467 85.1591 23.24ZM91.4496 25.112C90.8843 25.112 90.4683 24.9307 90.2016 24.568C90.127 24.3973 90.0896 24.2267 90.0896 24.056C90.1003 23.8747 90.143 23.7467 90.2176 23.672C90.2923 23.5867 90.383 23.6027 90.4896 23.72C90.6283 23.8053 90.8256 23.848 91.0816 23.848C91.2096 23.848 91.3216 23.848 91.4176 23.848C91.5243 23.8373 91.647 23.8267 91.7856 23.816C92.031 23.7947 92.1856 23.72 92.2496 23.592C92.3243 23.464 92.3083 23.3573 92.2016 23.272H92.2176C91.9296 23.1973 91.647 23.0907 91.3696 22.952C91.0923 22.8133 90.8576 22.6587 90.6656 22.488C90.4736 22.3067 90.3616 22.136 90.3296 21.976C90.2443 21.624 90.2656 21.2613 90.3936 20.888C90.5216 20.5147 90.7083 20.1893 90.9536 19.912C91.0496 19.848 91.183 19.7573 91.3536 19.64C91.5243 19.512 91.647 19.4427 91.7216 19.432V19.448C91.9243 19.2347 92.1536 19.064 92.4096 18.936C92.6656 18.7973 92.9643 18.6693 93.3056 18.552L93.5616 18.52C93.6896 18.4987 93.8016 18.488 93.8976 18.488C93.887 18.488 93.9136 18.4987 93.9776 18.52C94.0416 18.5413 94.095 18.5573 94.1376 18.568C94.2016 18.6 94.2656 18.616 94.3296 18.616C94.479 18.6373 94.623 18.7173 94.7616 18.856C94.911 18.984 95.0283 19.1387 95.1136 19.32C95.2096 19.4907 95.247 19.6507 95.2256 19.8C95.1936 20.0453 95.103 20.2907 94.9536 20.536C94.8043 20.7707 94.6443 20.904 94.4736 20.936C94.495 20.9253 94.4736 20.904 94.4096 20.872C94.3456 20.84 94.287 20.808 94.2336 20.776L94.1696 20.808C94.1696 20.808 94.1643 20.792 94.1536 20.76C94.1536 20.728 94.143 20.6907 94.1216 20.648C94.079 20.5733 94.047 20.4933 94.0256 20.408C94.015 20.3227 94.015 20.2267 94.0256 20.12C94.047 20.0027 94.0523 19.9333 94.0416 19.912C94.031 19.8907 93.967 19.8747 93.8496 19.864C93.711 19.832 93.535 19.848 93.3216 19.912C93.1083 19.9653 92.911 20.0613 92.7296 20.2C92.5163 20.3387 92.3563 20.4507 92.2496 20.536C92.1536 20.6213 92.079 20.7067 92.0256 20.792C91.9723 20.8667 91.9136 20.9787 91.8496 21.128C91.807 21.2027 91.7696 21.272 91.7376 21.336C91.7056 21.3893 91.6896 21.4427 91.6896 21.496C91.6896 21.6027 91.7803 21.7147 91.9616 21.832C92.143 21.9387 92.415 22.0667 92.7776 22.216C93.0656 22.3333 93.2523 22.4933 93.3376 22.696C93.4336 22.8987 93.519 23.0907 93.5936 23.272C93.615 23.3147 93.6363 23.3947 93.6576 23.512C93.6896 23.6187 93.695 23.6827 93.6736 23.704C93.695 23.7253 93.7056 23.7467 93.7056 23.768V23.752C93.791 23.912 93.775 24.0827 93.6576 24.264C93.551 24.4347 93.3803 24.5947 93.1456 24.744C92.911 24.8827 92.6443 24.984 92.3456 25.048H92.3616C92.2016 25.0693 92.0416 25.0853 91.8816 25.096C91.7323 25.1067 91.5883 25.112 91.4496 25.112ZM98.7104 25.528C98.5184 25.4213 98.4117 25.304 98.3904 25.176C98.3797 25.048 98.4544 24.824 98.6144 24.504C98.7744 24.184 99.025 23.688 99.3664 23.016C99.6224 22.536 99.793 22.1627 99.8784 21.896C99.9744 21.6187 100.028 21.4213 100.038 21.304C100.049 21.1867 100.054 21.112 100.054 21.08C100.033 20.984 100.044 20.9093 100.086 20.856C100.129 20.792 100.198 20.7387 100.294 20.696C100.348 20.6427 100.47 20.5467 100.662 20.408C100.854 20.2693 101.004 20.104 101.11 19.912C101.206 19.688 101.313 19.4587 101.43 19.224C101.558 18.9893 101.724 18.696 101.926 18.344C102.129 17.9813 102.401 17.512 102.742 16.936C102.956 16.5627 103.206 16.1413 103.494 15.672C103.793 15.2027 104.086 14.776 104.374 14.392C104.492 14.2427 104.614 14.1253 104.742 14.04C104.87 13.9547 104.982 13.912 105.078 13.912C105.313 13.912 105.548 13.976 105.782 14.104C106.017 14.2213 106.225 14.3707 106.406 14.552C106.588 14.7333 106.71 14.904 106.774 15.064C106.828 15.1493 106.849 15.3307 106.838 15.608C106.828 15.8853 106.806 16.2213 106.774 16.616C106.742 17.0107 106.705 17.432 106.662 17.88C106.63 18.3173 106.582 18.8347 106.518 19.432C106.454 20.0293 106.39 20.6533 106.326 21.304C106.273 21.9547 106.23 22.584 106.198 23.192C106.166 23.7893 106.166 24.312 106.198 24.76C106.209 24.856 106.209 24.9467 106.198 25.032C106.188 25.1173 106.182 25.1867 106.182 25.24C106.118 25.304 105.98 25.3307 105.766 25.32C105.553 25.32 105.345 25.288 105.142 25.224C104.94 25.16 104.828 25.08 104.806 24.984C104.774 24.952 104.753 24.9253 104.742 24.904C104.732 24.8827 104.732 24.7813 104.742 24.6C104.753 24.408 104.769 24.0613 104.79 23.56L104.87 21.112L104.662 21.128C104.566 21.128 104.39 21.1387 104.134 21.16C103.889 21.1813 103.617 21.2133 103.318 21.256C103.03 21.288 102.764 21.3253 102.518 21.368C102.273 21.4 102.102 21.432 102.006 21.464C101.91 21.464 101.793 21.528 101.654 21.656C101.526 21.784 101.404 21.9493 101.286 22.152C101.244 22.3013 101.164 22.4613 101.046 22.632C100.94 22.792 100.886 22.8987 100.886 22.952C100.812 23.0053 100.748 23.0693 100.694 23.144C100.652 23.2187 100.63 23.256 100.63 23.256C100.63 23.32 100.582 23.48 100.486 23.736C100.39 23.9813 100.273 24.2587 100.134 24.568C99.9957 24.8667 99.8517 25.128 99.7024 25.352L99.2704 25.96L98.7104 25.528ZM102.534 20.024C102.534 20.024 102.593 20.0133 102.71 19.992C102.828 19.9707 102.966 19.9493 103.126 19.928C103.297 19.896 103.446 19.88 103.574 19.88C103.82 19.816 104.022 19.768 104.182 19.736C104.353 19.704 104.492 19.688 104.598 19.688C104.705 19.6773 104.79 19.688 104.854 19.72C104.897 19.7733 104.934 19.8053 104.966 19.816C105.009 19.8267 105.03 19.832 105.03 19.832C105.041 19.8107 105.062 19.6987 105.094 19.496C105.126 19.2933 105.164 19.0427 105.206 18.744C105.249 18.4453 105.292 18.136 105.334 17.816C105.377 17.4853 105.414 17.1813 105.446 16.904C105.478 16.616 105.5 16.392 105.51 16.232C105.521 16.0293 105.516 15.848 105.494 15.688C105.473 15.5173 105.462 15.432 105.462 15.432C105.398 15.432 105.276 15.5493 105.094 15.784C104.924 16.008 104.721 16.312 104.486 16.696C104.262 17.0693 104.038 17.4747 103.814 17.912C103.708 18.1147 103.606 18.2747 103.51 18.392C103.425 18.5093 103.356 18.568 103.302 18.568C103.281 18.5893 103.222 18.6747 103.126 18.824C103.041 18.9627 102.945 19.1227 102.838 19.304C102.742 19.4747 102.657 19.6347 102.582 19.784C102.518 19.9227 102.502 20.0027 102.534 20.024ZM112.838 24.616C112.603 24.5947 112.406 24.5467 112.246 24.472C112.097 24.3867 111.974 24.2213 111.878 23.976C111.835 23.8053 111.814 23.6293 111.814 23.448C111.825 23.256 111.841 23.0747 111.862 22.904C111.883 22.7227 111.894 22.568 111.894 22.44C111.894 22.4187 111.894 22.376 111.894 22.312C111.894 22.248 111.894 22.1893 111.894 22.136C111.873 21.976 111.83 21.88 111.766 21.848C111.713 21.8053 111.617 21.8107 111.478 21.864C111.254 21.9707 111.009 22.1147 110.742 22.296C110.486 22.4667 110.214 22.6693 109.926 22.904C109.649 23.128 109.361 23.368 109.062 23.624C108.827 23.88 108.651 24.088 108.534 24.248C108.427 24.408 108.315 24.488 108.198 24.488C108.113 24.5307 108.022 24.52 107.926 24.456C107.83 24.392 107.729 24.3173 107.622 24.232C107.547 24.1467 107.457 24.04 107.35 23.912C107.254 23.7733 107.195 23.6827 107.174 23.64C107.174 23.4693 107.185 23.3147 107.206 23.176C107.238 23.0373 107.281 22.8933 107.334 22.744C107.398 22.5947 107.473 22.424 107.558 22.232C107.601 22.1573 107.638 22.0827 107.67 22.008C107.713 21.9227 107.761 21.832 107.814 21.736C107.857 21.5867 107.915 21.416 107.99 21.224C108.075 21.032 108.155 20.8507 108.23 20.68C108.347 20.4027 108.438 20.1627 108.502 19.96C108.566 19.7573 108.619 19.5387 108.662 19.304C108.651 19.2827 108.657 19.2507 108.678 19.208C108.699 19.1653 108.731 19.1387 108.774 19.128H108.79H108.806C108.881 19.0747 109.019 19.0693 109.222 19.112C109.435 19.144 109.595 19.2027 109.702 19.288C109.926 19.48 110.033 19.7307 110.022 20.04C110.011 20.3493 109.851 20.7547 109.542 21.256C109.467 21.4267 109.387 21.5867 109.302 21.736C109.227 21.8747 109.19 21.9707 109.19 22.024C109.19 22.024 109.233 21.992 109.318 21.928C109.403 21.864 109.505 21.7893 109.622 21.704C109.739 21.608 109.841 21.5333 109.926 21.48C109.979 21.4267 110.097 21.3307 110.278 21.192C110.459 21.0427 110.657 20.888 110.87 20.728C111.083 20.568 111.254 20.4453 111.382 20.36C111.499 20.2747 111.649 20.1893 111.83 20.104C112.011 20.008 112.123 19.96 112.166 19.96C112.273 19.96 112.401 19.9973 112.55 20.072C112.71 20.1467 112.854 20.2373 112.982 20.344C113.121 20.44 113.201 20.5307 113.222 20.616C113.222 20.6587 113.217 20.7173 113.206 20.792C113.195 20.856 113.19 20.9147 113.19 20.968C113.179 21.1387 113.174 21.3467 113.174 21.592C113.185 21.8267 113.19 22.0667 113.19 22.312C113.19 22.5467 113.169 22.76 113.126 22.952C113.126 22.952 113.131 22.9627 113.142 22.984C113.153 22.9947 113.163 23.016 113.174 23.048C113.163 23.0587 113.158 23.08 113.158 23.112C113.169 23.1333 113.174 23.144 113.174 23.144C113.195 23.2187 113.217 23.2933 113.238 23.368C113.27 23.4427 113.307 23.528 113.35 23.624C113.393 23.7093 113.441 23.8213 113.494 23.96C113.483 24.0987 113.403 24.2373 113.254 24.376C113.115 24.504 112.977 24.584 112.838 24.616ZM116.262 25.144C116.123 25.1547 116.011 25.1387 115.926 25.096C115.84 25.064 115.734 25.0107 115.606 24.936C115.371 24.7547 115.174 24.5307 115.014 24.264C114.864 23.9973 114.795 23.7733 114.806 23.592C114.827 23.496 114.827 23.4107 114.806 23.336C114.795 23.2613 114.79 23.224 114.79 23.224C114.726 23.1707 114.704 23.1387 114.726 23.128C114.747 23.1067 114.763 23.0747 114.774 23.032C114.859 23.0107 114.87 22.952 114.806 22.856C114.774 22.7707 114.79 22.5787 114.854 22.28C114.928 21.9707 115.024 21.6827 115.142 21.416C115.195 21.2987 115.27 21.144 115.366 20.952C115.472 20.76 115.59 20.568 115.718 20.376C115.846 20.1733 115.963 20.0133 116.07 19.896C116.304 19.6293 116.512 19.4107 116.694 19.24C116.886 19.0693 117.099 18.9413 117.334 18.856C117.547 18.7707 117.76 18.7333 117.974 18.744C118.198 18.7547 118.395 18.8293 118.566 18.968C118.822 19.0427 119.051 19.16 119.254 19.32C119.456 19.4693 119.595 19.6827 119.67 19.96C119.755 20.2693 119.782 20.6373 119.75 21.064C119.728 21.48 119.547 22.0187 119.206 22.68C119.003 23.096 118.8 23.432 118.598 23.688C118.406 23.944 118.171 24.1893 117.894 24.424C117.691 24.5947 117.43 24.744 117.11 24.872C116.79 25 116.507 25.0907 116.262 25.144ZM117.654 22.728C117.792 22.536 117.899 22.3493 117.974 22.168C118.059 21.9867 118.139 21.736 118.214 21.416C118.246 21.2987 118.262 21.1547 118.262 20.984C118.272 20.8133 118.267 20.6587 118.246 20.52C118.235 20.3707 118.198 20.2907 118.134 20.28C117.995 20.2267 117.851 20.2267 117.702 20.28C117.563 20.3227 117.398 20.4507 117.206 20.664C117.035 20.856 116.896 21.0373 116.79 21.208C116.694 21.368 116.603 21.5653 116.518 21.8C116.443 22.024 116.358 22.3173 116.262 22.68C116.176 23.032 116.171 23.3147 116.246 23.528C116.331 23.7413 116.491 23.8 116.726 23.704C116.96 23.608 117.27 23.2827 117.654 22.728ZM122.571 25.096C122.421 25.0533 122.272 24.9787 122.123 24.872C121.973 24.7653 121.819 24.6427 121.659 24.504C121.531 24.3333 121.44 24.1787 121.387 24.04C121.333 23.8907 121.301 23.72 121.291 23.528C121.291 23.3253 121.291 23.0693 121.291 22.76C121.291 22.632 121.312 22.4507 121.355 22.216C121.408 21.9813 121.461 21.736 121.515 21.48C121.579 21.224 121.637 21 121.691 20.808C121.744 20.6053 121.776 20.472 121.787 20.408C121.819 20.2693 121.765 20.1893 121.627 20.168C121.488 20.1467 121.333 20.1413 121.163 20.152C121.003 20.152 120.896 20.136 120.843 20.104C120.8 20.0933 120.779 20.04 120.779 19.944C120.779 19.8373 120.779 19.784 120.779 19.784C120.779 19.7413 120.757 19.7147 120.715 19.704C120.672 19.6827 120.635 19.6453 120.603 19.592C120.581 19.5493 120.608 19.4693 120.683 19.352C120.757 19.2347 120.853 19.1653 120.971 19.144C121.067 19.1227 121.211 19.1067 121.403 19.096C121.595 19.0747 121.787 19.0373 121.979 18.984C122.181 18.92 122.336 18.824 122.443 18.696C122.539 18.4613 122.645 18.2107 122.763 17.944C122.88 17.6667 122.992 17.4267 123.099 17.224C123.205 17.0107 123.28 16.8773 123.323 16.824C123.504 16.728 123.691 16.6907 123.883 16.712C124.075 16.7227 124.224 16.8133 124.331 16.984C124.384 17.0587 124.427 17.112 124.459 17.144C124.501 17.176 124.517 17.224 124.507 17.288C124.507 17.352 124.464 17.4693 124.379 17.64C124.304 17.8 124.176 18.0507 123.995 18.392C123.941 18.4987 123.893 18.5947 123.851 18.68C123.808 18.7547 123.787 18.792 123.787 18.792C123.829 18.8027 123.893 18.808 123.979 18.808C124.064 18.808 124.171 18.8027 124.299 18.792C124.416 18.7707 124.544 18.7547 124.683 18.744C124.821 18.7227 124.944 18.7227 125.051 18.744C125.296 18.744 125.477 18.8133 125.595 18.952C125.712 19.0907 125.776 19.2667 125.787 19.48C125.808 19.5973 125.765 19.6987 125.659 19.784C125.552 19.8693 125.355 19.912 125.067 19.912C124.971 19.912 124.832 19.9173 124.651 19.928C124.469 19.9387 124.283 19.9493 124.091 19.96C123.899 19.9707 123.733 19.9867 123.595 20.008C123.467 20.0187 123.403 20.0347 123.403 20.056C123.371 20.0773 123.317 20.1627 123.243 20.312C123.179 20.4507 123.109 20.6213 123.035 20.824C122.971 21.0267 122.912 21.2187 122.859 21.4C122.784 21.7627 122.731 22.1147 122.699 22.456C122.667 22.7973 122.661 23.096 122.683 23.352C122.715 23.5973 122.779 23.7733 122.875 23.88C122.971 23.976 123.115 23.976 123.307 23.88C123.509 23.7733 123.696 23.6507 123.867 23.512C124.059 23.352 124.224 23.304 124.363 23.368C124.501 23.4213 124.587 23.5387 124.619 23.72C124.661 23.8907 124.613 24.0773 124.475 24.28C124.347 24.4827 124.165 24.6533 123.931 24.792C123.696 24.9307 123.456 25.0267 123.211 25.08C122.965 25.144 122.752 25.1493 122.571 25.096ZM126.172 24.664C126.129 24.5787 126.033 24.4933 125.884 24.408C125.745 24.3227 125.676 24.2587 125.676 24.216C125.676 24.1733 125.649 24.1093 125.596 24.024C125.553 23.928 125.51 23.8587 125.468 23.816C125.414 23.752 125.43 23.5973 125.516 23.352C125.601 23.096 125.729 22.7867 125.9 22.424C126.07 22.0613 126.257 21.6933 126.46 21.32C126.545 21.2347 126.63 21.1227 126.716 20.984C126.801 20.8453 126.865 20.7547 126.908 20.712C126.908 20.6693 126.924 20.632 126.956 20.6C126.988 20.5573 127.025 20.536 127.068 20.536L127.196 20.28C127.217 20.2373 127.281 20.152 127.388 20.024C127.505 19.896 127.644 19.7573 127.804 19.608C127.964 19.448 128.124 19.2987 128.284 19.16C128.454 19.0213 128.593 18.92 128.7 18.856C128.924 18.7067 129.153 18.6373 129.388 18.648C129.633 18.6587 129.841 18.7333 130.012 18.872C130.044 18.904 130.113 18.968 130.22 19.064C130.337 19.16 130.465 19.2667 130.604 19.384C130.753 19.5013 130.881 19.608 130.988 19.704L131.58 20.232L131.308 21.032C131.169 21.4587 131.132 21.832 131.196 22.152C131.26 22.472 131.361 22.7493 131.5 22.984C131.553 23.1013 131.622 23.192 131.708 23.256C131.804 23.32 131.926 23.3627 132.076 23.384C132.161 23.3947 132.241 23.4267 132.316 23.48C132.39 23.5333 132.428 23.6187 132.428 23.736C132.428 23.992 132.38 24.1787 132.284 24.296C132.198 24.4027 132.102 24.4667 131.996 24.488C131.644 24.5307 131.308 24.4933 130.988 24.376C130.668 24.2587 130.38 23.9547 130.124 23.464C130.081 23.4 130.022 23.2827 129.948 23.112C129.884 22.9307 129.846 22.8133 129.836 22.76C129.793 22.8133 129.734 22.8827 129.66 22.968C129.596 23.0427 129.532 23.112 129.468 23.176C128.71 23.944 128.06 24.4453 127.516 24.68C126.982 24.904 126.534 24.8987 126.172 24.664ZM127.052 23.336C127.126 23.3467 127.244 23.3093 127.404 23.224C127.564 23.128 127.777 22.9733 128.044 22.76C128.406 22.4507 128.705 22.1947 128.94 21.992C129.174 21.7893 129.404 21.528 129.628 21.208L129.98 20.632C129.873 20.3867 129.777 20.2267 129.692 20.152C129.606 20.0773 129.521 20.04 129.436 20.04C129.297 20.04 129.132 20.1307 128.94 20.312C128.748 20.4827 128.529 20.7387 128.284 21.08C128.049 21.4107 127.782 21.8267 127.484 22.328C127.345 22.5627 127.238 22.792 127.164 23.016C127.089 23.2293 127.052 23.336 127.052 23.336ZM134.8 25.064C134.491 25.1173 134.181 25.0907 133.872 24.984C133.573 24.8773 133.323 24.7067 133.12 24.472C132.928 24.2267 132.832 23.9333 132.832 23.592C132.8 23.272 132.827 22.8933 132.912 22.456C133.008 22.008 133.147 21.56 133.328 21.112C133.52 20.664 133.739 20.2853 133.984 19.976C134.197 19.72 134.411 19.4853 134.624 19.272C134.837 19.0587 135.029 18.9147 135.2 18.84C135.349 18.776 135.531 18.728 135.744 18.696C135.968 18.6533 136.123 18.632 136.208 18.632C136.379 18.6747 136.565 18.744 136.768 18.84C136.981 18.936 137.088 19.048 137.088 19.176C137.088 19.176 137.099 19.192 137.12 19.224C137.152 19.2453 137.168 19.256 137.168 19.256C137.232 19.256 137.301 19.336 137.376 19.496C137.461 19.6453 137.525 19.8213 137.568 20.024C137.611 20.216 137.6 20.3707 137.536 20.488C137.493 20.6907 137.408 20.888 137.28 21.08C137.163 21.272 137.061 21.368 136.976 21.368C136.933 21.368 136.891 21.3733 136.848 21.384C136.816 21.384 136.8 21.4107 136.8 21.464C136.8 21.5173 136.741 21.544 136.624 21.544C136.517 21.544 136.405 21.5227 136.288 21.48C136.171 21.4373 136.096 21.3733 136.064 21.288C136.064 21.2347 136.075 21.1653 136.096 21.08C136.117 20.9947 136.149 20.8507 136.192 20.648C136.256 20.3493 136.261 20.152 136.208 20.056C136.155 19.9493 136.021 19.9387 135.808 20.024C135.541 20.1733 135.323 20.3493 135.152 20.552C134.981 20.744 134.827 21.016 134.688 21.368C134.56 21.72 134.416 22.2107 134.256 22.84C134.192 23.0853 134.181 23.2773 134.224 23.416C134.277 23.5547 134.32 23.6293 134.352 23.64C134.501 23.6827 134.661 23.6933 134.832 23.672C135.013 23.64 135.163 23.592 135.28 23.528C135.451 23.4427 135.6 23.352 135.728 23.256C135.867 23.1493 136.016 23.0373 136.176 22.92C136.229 22.888 136.277 22.8293 136.32 22.744C136.363 22.648 136.427 22.5787 136.512 22.536C136.597 22.408 136.704 22.344 136.832 22.344C136.971 22.3333 137.104 22.328 137.232 22.328C137.317 22.3493 137.408 22.4027 137.504 22.488C137.6 22.5733 137.669 22.6587 137.712 22.744C137.765 22.8187 137.76 22.872 137.696 22.904C137.653 22.904 137.627 22.92 137.616 22.952C137.616 22.9733 137.616 22.984 137.616 22.984C137.637 23.0267 137.589 23.1227 137.472 23.272C137.365 23.4213 137.227 23.5813 137.056 23.752C136.885 23.9227 136.72 24.072 136.56 24.2C136.411 24.3173 136.304 24.376 136.24 24.376C136.133 24.376 136.08 24.408 136.08 24.472C136.08 24.4933 136 24.5467 135.84 24.632C135.691 24.7173 135.515 24.8027 135.312 24.888C135.12 24.9733 134.949 25.032 134.8 25.064ZM134.416 28.088C134.256 28.12 134.043 28.1093 133.776 28.056C133.509 28.0133 133.259 27.96 133.024 27.896C132.8 27.832 132.656 27.7893 132.592 27.768C132.464 27.7253 132.368 27.64 132.304 27.512C132.24 27.3947 132.213 27.272 132.224 27.144C132.235 27.016 132.293 26.9147 132.4 26.84C132.507 26.776 132.677 26.776 132.912 26.84C133.083 26.8827 133.264 26.936 133.456 27C133.659 27.0747 133.84 27.112 134 27.112C134.16 27.112 134.277 27.0373 134.352 26.888C134.427 26.7707 134.421 26.648 134.336 26.52C134.251 26.4027 134.149 26.28 134.032 26.152C133.957 26.056 133.883 25.9707 133.808 25.896C133.744 25.832 133.653 25.7467 133.536 25.64C133.451 25.5227 133.397 25.384 133.376 25.224C133.365 25.0747 133.451 24.904 133.632 24.712C133.813 24.52 134.16 24.296 134.672 24.04L135.568 24.52C135.301 24.648 135.083 24.7707 134.912 24.888C134.752 25.0053 134.672 25.1333 134.672 25.272C134.821 25.4853 134.987 25.688 135.168 25.88C135.349 26.0827 135.467 26.2907 135.52 26.504C135.584 26.76 135.563 27 135.456 27.224C135.36 27.448 135.216 27.6347 135.024 27.784C134.832 27.944 134.629 28.0453 134.416 28.088ZM139.64 24.888C139.501 24.888 139.389 24.8613 139.304 24.808C139.229 24.7547 139.133 24.68 139.016 24.584C138.813 24.3707 138.648 24.1413 138.52 23.896C138.402 23.6507 138.36 23.4373 138.392 23.256C138.424 23.1707 138.434 23.0907 138.424 23.016C138.424 22.9307 138.424 22.888 138.424 22.888C138.37 22.8347 138.354 22.8027 138.376 22.792C138.397 22.7707 138.418 22.7387 138.44 22.696C138.504 22.696 138.525 22.6373 138.504 22.52C138.482 22.4347 138.514 22.2533 138.6 21.976C138.696 21.688 138.824 21.416 138.984 21.16C139.048 21.0533 139.144 20.9147 139.272 20.744C139.4 20.5627 139.538 20.3867 139.688 20.216C139.848 20.0347 139.992 19.8907 140.12 19.784C140.386 19.56 140.632 19.3787 140.856 19.24C141.09 19.1013 141.325 19.0053 141.56 18.952C141.794 18.8987 142.034 18.872 142.28 18.872C142.536 18.872 142.744 18.9573 142.904 19.128C143.149 19.2347 143.32 19.3787 143.416 19.56C143.522 19.7413 143.592 19.976 143.624 20.264C143.656 20.584 143.624 20.9787 143.528 21.448C143.432 21.9067 143.17 22.44 142.744 23.048C142.477 23.432 142.216 23.7307 141.96 23.944C141.704 24.1573 141.421 24.3547 141.112 24.536C140.888 24.6853 140.648 24.776 140.392 24.808C140.136 24.84 139.885 24.8667 139.64 24.888ZM141.272 22.936C141.506 22.7333 141.672 22.5093 141.768 22.264C141.874 22.0187 141.986 21.7307 142.104 21.4C142.146 21.336 142.173 21.2293 142.184 21.08C142.205 20.9307 142.21 20.7867 142.2 20.648C142.189 20.4987 142.152 20.4133 142.088 20.392C141.992 20.3173 141.896 20.3013 141.8 20.344C141.704 20.376 141.581 20.4453 141.432 20.552C141.112 20.8187 140.813 21.128 140.536 21.48C140.269 21.8213 140.082 22.2427 139.976 22.744C139.944 23.0107 139.97 23.2133 140.056 23.352C140.152 23.48 140.301 23.5173 140.504 23.464C140.717 23.4 140.973 23.224 141.272 22.936ZM143.224 18.344C143.01 18.344 142.834 18.3067 142.696 18.232C142.568 18.1467 142.402 18.0347 142.2 17.896C142.104 17.8427 141.976 17.736 141.816 17.576C141.656 17.416 141.512 17.336 141.384 17.336C141.277 17.336 141.186 17.3787 141.112 17.464C141.048 17.5493 140.984 17.64 140.92 17.736C140.856 17.8213 140.765 17.8747 140.648 17.896C140.637 17.9493 140.605 18.0187 140.552 18.104C140.498 18.1787 140.461 18.1893 140.44 18.136C140.28 18.1147 140.157 18.0507 140.072 17.944C139.997 17.8267 139.96 17.704 139.96 17.576C139.96 17.48 140.04 17.2933 140.2 17.016C140.37 16.728 140.637 16.4933 141 16.312C141.128 16.2587 141.304 16.2373 141.528 16.248C141.762 16.2587 141.965 16.344 142.136 16.504C142.381 16.728 142.589 16.8933 142.76 17C142.941 17.096 143.133 17.1013 143.336 17.016C143.496 16.9733 143.672 16.8987 143.864 16.792C144.066 16.6747 144.28 16.5733 144.504 16.488C144.578 16.456 144.653 16.4773 144.728 16.552C144.802 16.616 144.861 16.7013 144.904 16.808C144.946 16.9147 144.962 17 144.952 17.064C144.952 17.1067 144.925 17.1973 144.872 17.336C144.829 17.464 144.706 17.5813 144.504 17.688C144.184 17.8693 143.938 18.008 143.768 18.104C143.597 18.2 143.474 18.264 143.4 18.296C143.325 18.328 143.266 18.344 143.224 18.344ZM147.344 24.68C147.024 24.8613 146.683 24.968 146.32 25C145.968 25.0213 145.638 24.9733 145.328 24.856C145.019 24.728 144.768 24.5413 144.576 24.296C144.47 24.1573 144.368 23.9387 144.272 23.64C144.176 23.3307 144.16 22.9147 144.224 22.392C144.288 21.9013 144.438 21.4053 144.672 20.904C144.918 20.4027 145.216 19.96 145.568 19.576C145.92 19.192 146.304 18.9307 146.72 18.792C146.87 18.7387 147.019 18.7013 147.168 18.68C147.328 18.648 147.536 18.6427 147.792 18.664C148.038 18.696 148.256 18.76 148.448 18.856C148.64 18.9413 148.779 19.0373 148.864 19.144C149.035 19.3147 149.147 19.48 149.2 19.64C149.254 19.8 149.275 19.9547 149.264 20.104C149.211 20.4453 149.056 20.8133 148.8 21.208C148.555 21.6027 148.208 21.896 147.76 22.088C147.579 22.1627 147.366 22.2107 147.12 22.232C146.875 22.2533 146.539 22.2213 146.112 22.136C145.856 22.0827 145.686 22.1093 145.6 22.216C145.526 22.3227 145.494 22.5307 145.504 22.84C145.526 23.032 145.568 23.2027 145.632 23.352C145.707 23.4907 145.84 23.5867 146.032 23.64C146.278 23.6827 146.454 23.688 146.56 23.656C146.667 23.6133 146.8 23.5547 146.96 23.48C147.046 23.4267 147.126 23.368 147.2 23.304C147.286 23.24 147.366 23.176 147.44 23.112C147.526 23.048 147.595 23 147.648 22.968C147.702 22.9253 147.755 22.8987 147.808 22.888C147.862 22.8773 147.915 22.872 147.968 22.872C148.086 22.8827 148.198 22.9467 148.304 23.064C148.411 23.1813 148.48 23.2933 148.512 23.4C148.512 23.4853 148.459 23.608 148.352 23.768C148.246 23.9173 148.102 24.0773 147.92 24.248C147.75 24.408 147.558 24.552 147.344 24.68ZM147.136 21.112C147.211 21.08 147.318 21.0053 147.456 20.888C147.606 20.7707 147.739 20.648 147.856 20.52C147.974 20.3813 148.032 20.2747 148.032 20.2C148.032 20.0827 147.952 19.9813 147.792 19.896C147.643 19.8107 147.446 19.7947 147.2 19.848C147.115 19.8693 147.014 19.928 146.896 20.024C146.779 20.12 146.662 20.232 146.544 20.36C146.427 20.4773 146.326 20.5947 146.24 20.712C146.155 20.8187 146.096 20.904 146.064 20.968C146.107 21.0213 146.192 21.064 146.32 21.096C146.448 21.128 146.587 21.144 146.736 21.144C146.896 21.144 147.03 21.1333 147.136 21.112ZM150.448 25.096C150.085 24.9467 149.819 24.792 149.648 24.632C149.488 24.4613 149.424 24.312 149.456 24.184C149.477 24.12 149.515 24.0613 149.568 24.008C149.621 23.9547 149.739 23.9333 149.92 23.944C150.112 23.944 150.405 23.992 150.8 24.088C150.917 24.088 151.035 24.0827 151.152 24.072C151.269 24.0613 151.376 24.0453 151.472 24.024C151.579 24.0027 151.664 23.976 151.728 23.944C151.781 23.9227 151.797 23.896 151.776 23.864C151.755 23.8213 151.717 23.7787 151.664 23.736C151.621 23.6827 151.573 23.6507 151.52 23.64C151.467 23.6187 151.419 23.608 151.376 23.608C151.355 23.5547 151.307 23.5013 151.232 23.448C151.168 23.3947 151.088 23.336 150.992 23.272C150.757 23.08 150.544 22.9093 150.352 22.76C150.16 22.6107 150.085 22.4987 150.128 22.424C150.128 22.3813 150.128 22.36 150.128 22.36C150.128 22.3493 150.128 22.344 150.128 22.344C150.053 22.344 149.984 22.2427 149.92 22.04C149.856 21.8267 149.824 21.6347 149.824 21.464C149.824 21.2507 149.867 21.0373 149.952 20.824C150.048 20.6107 150.165 20.408 150.304 20.216C150.453 20.024 150.603 19.8533 150.752 19.704C150.955 19.512 151.168 19.3253 151.392 19.144C151.627 18.952 151.877 18.7813 152.144 18.632C152.421 18.4827 152.725 18.3653 153.056 18.28C153.205 18.248 153.376 18.232 153.568 18.232C153.76 18.232 153.899 18.2587 153.984 18.312C154.069 18.2587 154.176 18.2747 154.304 18.36C154.432 18.4347 154.56 18.5413 154.688 18.68C154.816 18.8187 154.912 18.9573 154.976 19.096C154.976 19.224 154.971 19.384 154.96 19.576C154.96 19.7573 154.949 19.9173 154.928 20.056C154.907 20.1947 154.859 20.264 154.784 20.264C154.784 20.264 154.768 20.2693 154.736 20.28C154.715 20.28 154.704 20.3067 154.704 20.36C154.704 20.4667 154.624 20.5893 154.464 20.728C154.261 20.8667 154.069 20.9787 153.888 21.064C153.707 21.1493 153.568 21.1547 153.472 21.08C153.408 21.0373 153.349 20.9947 153.296 20.952C153.243 20.9093 153.195 20.856 153.152 20.792C153.152 20.792 153.136 20.7707 153.104 20.728C153.083 20.6747 153.072 20.6267 153.072 20.584C153.072 20.5413 153.088 20.504 153.12 20.472C153.152 20.4293 153.168 20.408 153.168 20.408C153.317 20.2693 153.429 20.1413 153.504 20.024C153.589 19.9067 153.648 19.8053 153.68 19.72C153.712 19.624 153.728 19.5493 153.728 19.496C153.728 19.432 153.712 19.3947 153.68 19.384C153.659 19.3627 153.605 19.352 153.52 19.352C153.467 19.352 153.349 19.3947 153.168 19.48C152.997 19.5653 152.816 19.672 152.624 19.8C152.432 19.9173 152.283 20.024 152.176 20.12C152.133 20.1947 152.101 20.2427 152.08 20.264C152.069 20.2853 152.043 20.296 152 20.296C152 20.2533 151.973 20.2587 151.92 20.312C151.867 20.3653 151.803 20.44 151.728 20.536C151.653 20.632 151.579 20.7333 151.504 20.84C151.429 20.9467 151.371 21.032 151.328 21.096C151.317 21.192 151.291 21.2827 151.248 21.368C151.216 21.4427 151.205 21.5227 151.216 21.608C151.227 21.7147 151.28 21.816 151.376 21.912C151.472 22.008 151.611 22.1307 151.792 22.28C152.165 22.5573 152.443 22.776 152.624 22.936C152.816 23.096 152.949 23.224 153.024 23.32C153.099 23.416 153.147 23.512 153.168 23.608C153.349 23.9387 153.371 24.2267 153.232 24.472C153.093 24.7067 152.88 24.888 152.592 25.016C152.485 25.0693 152.299 25.1173 152.032 25.16C151.765 25.2133 151.483 25.2347 151.184 25.224C150.896 25.224 150.651 25.1813 150.448 25.096Z" fill="#A381EF"/>
</svg>
