<svg width="40" height="40" viewBox="0 0 40 40" fill="none" xmlns="http://www.w3.org/2000/svg">
<path d="M36.167 24.4583C35.4101 24.4583 32.7735 24.4583 28.9356 24.4583C25.8497 24.4583 25.2564 24.9783 25.2564 25.8097C25.2564 26.7593 26.7993 28.4195 27.1558 29.014C27.5123 29.6073 29.7669 31.6239 30.2418 34.5915C30.7166 37.559 27.1558 39.6952 25.9693 37.6774C25.2649 36.4799 23.4766 32.9301 21.3404 31.3871C17.3779 28.5245 14.1004 22.294 9.97192 22.294V6.72521C13.374 6.72521 21.0815 2.94349 23.8122 2.39661C26.9043 1.77771 30.9448 0.41177 33.0896 3.32435C34.4115 5.11997 36.4831 12.0915 38.0383 17.0353C41.9825 20.8243 39.2591 24.4583 36.167 24.4583Z" fill="#FB923C"/>
<path d="M6.10352e-05 19.2656V5.73407C6.10352e-05 4.06173 1.35506 2.70548 3.0274 2.70548H4.74858C5.86311 2.70548 6.76764 3.60883 6.76764 4.72454V22.2941H3.0274C1.35506 22.2941 6.10352e-05 20.9379 6.10352e-05 19.2656Z" fill="#FB923C"/>
</svg>
