<svg width="40" height="40" viewBox="0 0 40 40" fill="none" xmlns="http://www.w3.org/2000/svg">
<g clip-path="url(#clip0_91_273)">
<path d="M13.125 17.5C11.7443 17.5 10.625 18.6193 10.625 20C10.625 21.3807 11.7443 22.5 13.125 22.5H26.875C28.2558 22.5 29.375 21.3807 29.375 20C29.375 18.6193 28.2558 17.5 26.875 17.5H13.125Z" fill="#FB7185"/>
<path d="M0 20C0 8.9543 8.9543 0 20 0C31.0457 0 40 8.9543 40 20C40 31.0457 31.0457 40 20 40C8.9543 40 0 31.0457 0 20ZM20 5C11.7157 5 5 11.7157 5 20C5 28.2843 11.7157 35 20 35C28.2843 35 35 28.2843 35 20C35 11.7157 28.2843 5 20 5Z" fill="#FB7185"/>
</g>
<defs>
<clipPath id="clip0_91_273">
<rect width="40" height="40" fill="white"/>
</clipPath>
</defs>
</svg>
