<svg width="72" height="72" viewBox="0 0 72 72" fill="none" xmlns="http://www.w3.org/2000/svg">
<g clip-path="url(#clip0_79_1070)">
<path d="M27.4712 59.4931C27.4712 60.403 26.731 61.1431 25.8211 61.1431C24.9113 61.1431 24.1711 60.403 24.1711 59.4931C24.1711 58.5832 24.9113 57.843 25.8211 57.843C26.731 57.843 27.4712 58.5832 27.4712 59.4931Z" fill="#8862DB"/>
<path d="M35.6047 9.30884e-07C38.0255 8.25064e-07 40.005 1.92616 40.0911 4.32644C40.5171 4.19193 40.9705 4.11932 41.4404 4.11932C43.9158 4.11932 45.9298 6.13317 45.9298 8.60872L45.9298 32.5864C47.0754 30.1799 47.7456 27.4423 47.93 24.3999C48.0024 23.2029 48.5367 22.1058 49.4345 21.3108C50.3323 20.5158 51.4857 20.1178 52.6826 20.1904C53.8796 20.263 54.9766 20.7973 55.7718 21.6949C56.567 22.5927 56.9655 23.7463 56.8923 24.9431C56.2223 35.9982 50.7767 44.4495 41.124 49.4446L41.124 52.6095L44.3585 52.6095C45.2264 52.6095 45.9299 53.3131 45.9299 54.181L45.9299 63.2335L47.33 63.2335C48.1979 63.2335 48.9014 63.9371 48.9014 64.805L48.9014 70.4285C48.9014 71.2964 48.1979 72 47.33 72C46.462 72 45.7585 71.2964 45.7585 70.4285L45.7585 66.3765L18.2424 66.3765L18.2424 70.4285C18.2424 71.2965 17.5388 72 16.6709 72C15.8029 72 15.0994 71.2965 15.0994 70.4285L15.0994 64.805C15.0994 63.9371 15.8029 63.2335 16.6709 63.2335L18.0709 63.2335L18.0709 54.181C18.0709 53.3131 18.7745 52.6095 19.6424 52.6095L24.25 52.6095L24.25 49.2407C21.2266 46.7311 19.4441 42.9393 19.4441 38.9386L19.4441 12.7279C19.4441 10.2525 21.4579 8.23848 23.9335 8.23848C24.4033 8.23848 24.8567 8.31108 25.2827 8.4456C25.3687 6.04532 27.3483 4.11916 29.7691 4.11916C30.239 4.11916 30.6924 4.19177 31.1184 4.32628C31.2042 1.92616 33.1838 1.0367e-06 35.6047 9.30884e-07ZM21.2135 55.7525L21.2135 63.2335L42.7868 63.2335L42.7868 55.7525L21.2135 55.7525ZM34.2582 4.48924L34.2582 8.60856L34.2582 25.0814C34.2582 25.9494 33.5547 26.6529 32.6868 26.6529C31.8188 26.6529 31.1153 25.9494 31.1153 25.0814L31.1153 8.60856C31.1153 7.8662 30.5112 7.26212 29.7688 7.26212C29.0265 7.26212 28.4225 7.8662 28.4225 8.60856L28.4225 12.7279L28.4226 27.9246C28.4226 28.7925 27.719 29.496 26.8511 29.496C25.9831 29.496 25.2796 28.7925 25.2796 27.9246L25.2796 12.7279C25.2796 11.9855 24.6755 11.3814 23.9331 11.3814C23.1908 11.3814 22.5867 11.9855 22.5867 12.7279L22.5867 38.9386C22.5867 42.2642 24.1029 45.2765 26.7467 47.2033C27.1526 47.4991 27.3926 47.9711 27.3926 48.4734L27.3926 52.6095L37.9809 52.6095L37.9809 48.4735C37.9809 47.8706 38.3259 47.3209 38.8688 47.0586C47.99 42.6528 53.1375 34.9396 53.755 24.7532C53.7768 24.3933 53.6574 24.0482 53.4188 23.779C53.1803 23.5098 52.8514 23.3495 52.4923 23.3278C52.1333 23.306 51.7875 23.4254 51.5181 23.6638C51.2488 23.9022 51.0886 24.2313 51.0668 24.5904C50.7222 30.2775 48.8614 35.0709 45.5361 38.8374C45.1036 39.3272 44.4131 39.4983 43.802 39.267C43.1908 39.0359 42.7865 38.4506 42.7865 37.7972L42.7865 32.388C37.9632 33.1449 34.2615 37.327 34.2615 42.358C34.2615 43.2259 33.558 43.9295 32.6901 43.9295C31.8221 43.9295 31.1186 43.2259 31.1186 42.358C31.1186 35.5915 36.2248 29.9983 42.7865 29.2185L42.7865 8.60888C42.7865 7.86651 42.1824 7.26244 41.4401 7.26244C40.6977 7.26244 40.0938 7.86651 40.0938 8.60888L40.0938 26.5033C40.0938 27.3712 39.3902 28.0748 38.5223 28.0748C37.6544 28.0748 36.9508 27.3712 36.9508 26.5033L36.9508 8.60888L36.9508 4.48924C36.9508 3.74687 36.3467 3.14296 35.6044 3.14296C34.862 3.14296 34.2582 3.74687 34.2582 4.48924Z" fill="#8862DB"/>
</g>
<defs>
<clipPath id="clip0_79_1070">
<rect width="72" height="72" fill="white" transform="matrix(-4.37114e-08 -1 -1 4.37114e-08 72 72)"/>
</clipPath>
</defs>
</svg>
